<svg width="188" height="154" viewBox="0 0 188 154" fill="none" xmlns="http://www.w3.org/2000/svg">
<path d="M187.869 123.017H0V123.111H187.869V123.017Z" fill="#EBEBEB"/>
<path d="M124.452 130.084H121.187V130.178H124.452V130.084Z" fill="#EBEBEB"/>
<path d="M65.0856 125.414H56.376V125.508H65.0856V125.414Z" fill="#EBEBEB"/>
<path d="M172.377 127.427H151.084V127.521H172.377V127.427Z" fill="#EBEBEB"/>
<path d="M37.3448 127.427H16.0518V127.521H37.3448V127.427Z" fill="#EBEBEB"/>
<path d="M89.0493 106.259H16.4981C15.9298 106.258 15.385 106.031 14.9835 105.629C14.582 105.227 14.3564 104.681 14.3564 104.113V2.12667C14.3614 1.56157 14.5891 1.02125 14.9901 0.623055C15.3911 0.224863 15.933 0.000968045 16.4981 0H89.0493C89.6183 0 90.164 0.226039 90.5664 0.628391C90.9687 1.03074 91.1948 1.57645 91.1948 2.14546V104.113C91.1948 104.682 90.9687 105.228 90.5664 105.63C90.164 106.033 89.6183 106.259 89.0493 106.259ZM16.4981 0.0751478C15.9547 0.0761431 15.4339 0.292724 15.0499 0.677352C14.666 1.06198 14.4504 1.58323 14.4504 2.12667V104.113C14.4504 104.657 14.666 105.178 15.0499 105.562C15.4339 105.947 15.9547 106.164 16.4981 106.165H89.0493C89.5931 106.164 90.1143 105.947 90.4988 105.563C90.8834 105.178 91.0998 104.657 91.1008 104.113V2.12667C91.0998 1.58288 90.8834 1.06164 90.4988 0.677123C90.1143 0.292602 89.5931 0.076141 89.0493 0.0751478H16.4981Z" fill="#EBEBEB"/>
<path d="M170.325 106.259H97.7705C97.2018 106.258 96.6566 106.031 96.2545 105.629C95.8524 105.227 95.626 104.682 95.625 104.113V2.12667C95.6309 1.56123 95.8595 1.02091 96.2611 0.62282C96.6627 0.224732 97.205 0.000957488 97.7705 0H170.325C170.89 0.00195552 171.431 0.226288 171.831 0.624373C172.231 1.02246 172.458 1.56222 172.463 2.12667V104.113C172.463 104.681 172.238 105.225 171.838 105.628C171.437 106.03 170.893 106.257 170.325 106.259ZM97.7705 0.0751478C97.2267 0.076141 96.7054 0.292602 96.3209 0.677123C95.9364 1.06164 95.7199 1.58288 95.7189 2.12667V104.113C95.7199 104.657 95.9364 105.178 96.3209 105.563C96.7054 105.947 97.2267 106.164 97.7705 106.165H170.325C170.869 106.164 171.39 105.947 171.775 105.563C172.159 105.178 172.376 104.657 172.377 104.113V2.12667C172.376 1.58288 172.159 1.06164 171.775 0.677123C171.39 0.292602 170.869 0.076141 170.325 0.0751478H97.7705Z" fill="#EBEBEB"/>
<path d="M152.068 10.2427C152.174 7.80418 150.697 5.92173 148.311 5.52721C147.578 4.44884 146.312 3.78003 144.7 3.78003C142.183 3.78003 139.583 5.40697 138.181 7.66891C137.201 7.81144 136.26 8.15133 135.416 8.668C134.571 9.18467 133.84 9.86738 133.266 10.6748C133.012 10.5925 132.745 10.5519 132.477 10.5546C131.661 10.6031 130.879 10.8997 130.236 11.4046C129.593 11.9095 129.119 12.5987 128.878 13.3801C128.767 13.7527 128.738 14.1452 128.795 14.5299H153.286C153.525 14.1773 153.708 13.7893 153.827 13.3801C154.255 11.8095 153.492 10.5208 152.068 10.2427Z" fill="#F5F5F5"/>
<path d="M39.4524 16.8858C39.5443 15.9161 39.2559 14.9485 38.6482 14.1873C38.0404 13.426 37.1608 12.9305 36.1948 12.8053C35.8406 12.3146 35.3696 11.9201 34.8243 11.6576C34.279 11.3952 33.6768 11.273 33.0724 11.3024C30.8931 11.3024 28.6462 12.7114 27.4363 14.684C26.5867 14.8115 25.7719 15.1104 25.0414 15.5626C24.3108 16.0147 23.6798 16.6107 23.1867 17.3142C22.9658 17.2432 22.735 17.2076 22.5029 17.209C21.7964 17.2482 21.1187 17.502 20.5602 17.9363C20.0017 18.3707 19.5888 18.965 19.3767 19.64C19.28 19.9613 19.2556 20.3001 19.3054 20.6319H40.4932C40.7012 20.3282 40.8598 19.9934 40.9629 19.64C41.3574 18.2422 40.6961 17.1113 39.4524 16.8858Z" fill="#F5F5F5"/>
<path d="M103.177 17.9303C102.31 17.9351 101.448 18.0732 100.622 18.3399C98.9563 16.9461 96.8578 16.1745 94.6857 16.1568C93.4007 12.1064 89.7373 9.39355 84.6648 9.39355C79.8065 9.39355 74.8205 11.8772 71.251 15.6458C70.9654 15.6195 70.6761 15.6083 70.3755 15.6083C64.5253 15.6083 58.4346 20.3501 56.7663 26.2003C56.5509 26.9426 56.4161 27.706 56.3643 28.4773H107.014C107.688 27.5567 108.197 26.5255 108.517 25.43C109.715 21.2894 107.322 17.9303 103.177 17.9303Z" fill="#FAFAFA"/>
<path d="M37.0783 89.7749H19.2871V123.013H37.0783V89.7749Z" fill="#E0E0E0"/>
<path d="M35.0116 82.542H21.3535V90.2333H35.0116V82.542Z" fill="#E0E0E0"/>
<path d="M35.9689 82.0349H20.3945V83.2298H35.9689V82.0349Z" fill="#E0E0E0"/>
<path d="M142.292 70.4807L164.615 78.0481V123.016H142.292V70.4807Z" fill="#E0E0E0"/>
<path d="M146.564 62.8533L160.343 67.5274V95.2832H146.564V62.8533Z" fill="#E0E0E0"/>
<path d="M154.77 59.2612H97.4512V123.065H154.77V59.2612Z" fill="#F5F5F5"/>
<path d="M158.794 56.5034H93.4346V60.3435H158.794V56.5034Z" fill="#F5F5F5"/>
<path d="M156.179 77.2029H96.042V81.0429H156.179V77.2029Z" fill="#F5F5F5"/>
<path d="M156.179 97.2896H96.042V101.13H156.179V97.2896Z" fill="#F5F5F5"/>
<path d="M73.9902 35.6799L105.113 48.2634V123.016H73.9902V35.6799Z" fill="#EBEBEB"/>
<path d="M79.9453 23.0027L99.1568 30.7692V76.9135H79.9453V23.0027Z" fill="#EBEBEB"/>
<path d="M85.4199 15.3149L86.8139 15.8785V32.3171H85.4199V15.3149Z" fill="#EBEBEB"/>
<path d="M67.5389 59.0322L26.8916 68.2491V123.017H67.5389V59.0322Z" fill="#F0F0F0"/>
<path d="M59.7569 36.4692L34.6689 42.1617V89.2378H59.7569V36.4692Z" fill="#F0F0F0"/>
<path d="M52.6073 22.21L51.3975 22.9088V56.5674H52.6073V22.21Z" fill="#F0F0F0"/>
<path d="M41.1659 26.8237L39.9561 27.5226V61.1849H41.1659V26.8237Z" fill="#F0F0F0"/>
<path d="M84.9162 76.876H48.3457V123.017H84.9162V76.876Z" fill="#F5F5F5"/>
<path d="M80.6707 66.8325H52.5918V77.511H80.6707V66.8325Z" fill="#F5F5F5"/>
<path d="M82.6396 66.1299H50.623V67.7906H82.6396V66.1299Z" fill="#F5F5F5"/>
<path d="M139.151 52.1748H116.22V123.016H139.151V52.1748Z" fill="#F0F0F0"/>
<path d="M136.486 36.7622H118.879V53.1556H136.486V36.7622Z" fill="#F0F0F0"/>
<path d="M137.722 35.6799H117.646V38.2274H137.722V35.6799Z" fill="#F0F0F0"/>
<path d="M93.9347 139.985C134.17 139.985 166.786 138.08 166.786 135.731C166.786 133.382 134.17 131.478 93.9347 131.478C53.6998 131.478 21.083 133.382 21.083 135.731C21.083 138.08 53.6998 139.985 93.9347 139.985Z" fill="#F5F5F5"/>
<path d="M17.753 123.017L78.2881 123.017L78.2881 60.8621L17.753 60.8621L17.753 123.017Z" fill="#84041C"/>
<path opacity="0.4" d="M17.753 123.017L78.2881 123.017L78.2881 60.8621L17.753 60.8621L17.753 123.017Z" fill="white"/>
<path d="M78.7882 123.013L17.2537 123.013V120.582C17.2537 120.468 17.2761 120.356 17.3195 120.251C17.3629 120.146 17.4266 120.051 17.5068 119.971C17.5871 119.89 17.6823 119.827 17.7872 119.783C17.892 119.74 18.0044 119.717 18.1179 119.717L77.9278 119.717C78.0413 119.717 78.1537 119.74 78.2585 119.783C78.3634 119.827 78.4586 119.89 78.5389 119.971C78.6191 120.051 78.6828 120.146 78.7262 120.251C78.7696 120.356 78.792 120.468 78.792 120.582V123.013H78.7882Z" fill="#84041C"/>
<path d="M17.2538 74.178H78.7883V74.9633C78.7883 75.1925 78.6972 75.4123 78.5352 75.5744C78.3731 75.7364 78.1533 75.8275 77.9241 75.8275H18.1142C17.885 75.8275 17.6652 75.7364 17.5031 75.5744C17.341 75.4123 17.25 75.1925 17.25 74.9633V74.178H17.2538Z" fill="#263238"/>
<path d="M78.7882 61.4106L17.2537 61.4106V60.6254C17.2537 60.3962 17.3448 60.1763 17.5068 60.0143C17.6689 59.8522 17.8887 59.7612 18.1179 59.7612L77.9278 59.7612C78.157 59.7612 78.3768 59.8522 78.5389 60.0143C78.7009 60.1763 78.792 60.3962 78.792 60.6254V61.4106H78.7882Z" fill="#263238"/>
<path d="M26.1168 69.1093V67.6815H29.3895V70.6047C28.8789 70.9729 28.3184 71.2665 27.7249 71.4765C27.1692 71.6418 26.5913 71.7204 26.0116 71.7094C25.3236 71.7366 24.6395 71.5933 24.0202 71.2923C23.5053 71.011 23.0895 70.5781 22.8291 70.0524C22.5398 69.469 22.3942 68.8248 22.4045 68.1737C22.3878 67.4931 22.5483 66.8198 22.8704 66.2199C23.1777 65.6672 23.6527 65.2264 24.2268 64.9612C24.821 64.7135 25.4624 64.5993 26.1055 64.6268C26.6791 64.6032 27.2527 64.673 27.8039 64.8334C28.1658 64.9617 28.4882 65.1818 28.7394 65.4722C29.0056 65.7884 29.1993 66.159 29.3068 66.5581L27.2628 66.9338C27.1925 66.6926 27.0412 66.4829 26.8344 66.3401C26.6097 66.1988 26.3483 66.1269 26.083 66.1335C25.8705 66.1221 25.6582 66.1599 25.4627 66.2439C25.2671 66.328 25.0937 66.4561 24.9558 66.6182C24.6421 67.0647 24.4958 67.6075 24.5425 68.1512C24.4905 68.7135 24.6382 69.2762 24.9595 69.7406C25.1066 69.9019 25.2878 70.0285 25.4899 70.111C25.6921 70.1936 25.9101 70.23 26.1281 70.2177C26.3574 70.2189 26.5855 70.1846 26.8044 70.1163C27.0674 70.0273 27.3195 69.9088 27.5559 69.7631V69.1206L26.1168 69.1093Z" fill="#84041C"/>
<path d="M30.6748 71.5932V64.736H34.1917C34.6981 64.7165 35.2046 64.7722 35.6947 64.9013C36.0359 65.0117 36.3306 65.2324 36.5326 65.5288C36.6835 65.7466 36.7882 65.9932 36.8402 66.2531C36.8922 66.513 36.8903 66.7809 36.8346 67.04C36.779 67.2992 36.6708 67.5442 36.5167 67.7599C36.3627 67.9757 36.166 68.1575 35.9389 68.2942C35.7039 68.4227 35.4504 68.514 35.1874 68.5647C35.382 68.6221 35.5668 68.7083 35.736 68.8202C35.8657 68.9302 35.9806 69.0565 36.0779 69.196C36.1894 69.3296 36.2888 69.473 36.3747 69.6243L37.4005 71.612H35.0258L33.8986 69.5153C33.8105 69.3151 33.6827 69.1349 33.5229 68.9856C33.3704 68.8808 33.1893 68.8257 33.0044 68.8277H32.8165V71.612L30.6748 71.5932ZM32.8052 67.5127H33.6995C33.8886 67.4986 34.076 67.4671 34.2593 67.4187C34.3975 67.3935 34.521 67.317 34.605 67.2046C34.6917 67.09 34.7379 66.9499 34.7365 66.8063C34.742 66.7108 34.7259 66.6153 34.6894 66.5268C34.653 66.4384 34.5972 66.3593 34.5261 66.2953C34.2891 66.1528 34.0122 66.0908 33.7371 66.1187H32.8052V67.5127Z" fill="#84041C"/>
<path d="M37.671 68.1663C37.6239 67.6893 37.683 67.2078 37.844 66.7564C38.0051 66.3049 38.2641 65.8948 38.6025 65.5553C38.9408 65.2159 39.3502 64.9556 39.8011 64.7931C40.252 64.6306 40.7333 64.57 41.2104 64.6155C42.3527 64.6155 43.2294 64.9224 43.8406 65.5361C44.1623 65.8794 44.4105 66.2847 44.5701 66.7273C44.7297 67.1698 44.7973 67.6403 44.7687 68.1099C44.7952 68.7906 44.6559 69.4676 44.3629 70.0825C44.1009 70.5891 43.6941 71.0064 43.1943 71.2811C42.6065 71.5847 41.9505 71.7322 41.2893 71.7095C40.6293 71.7298 39.9731 71.6014 39.3693 71.3337C38.8497 71.0748 38.4193 70.6666 38.1331 70.1614C37.8046 69.5492 37.6451 68.8606 37.671 68.1663ZM39.7902 68.1663C39.7384 68.6956 39.8711 69.2265 40.1659 69.6692C40.3023 69.8112 40.4659 69.9241 40.647 70.0012C40.8282 70.0784 41.023 70.1182 41.2198 70.1182C41.4167 70.1182 41.6115 70.0784 41.7926 70.0012C41.9737 69.9241 42.1374 69.8112 42.2738 69.6692C42.5255 69.3724 42.6495 68.8388 42.6495 68.0723C42.6954 67.5706 42.5623 67.0688 42.2738 66.6558C42.1413 66.5076 41.9775 66.3909 41.7942 66.3142C41.6108 66.2375 41.4127 66.2027 41.2142 66.2124C41.0197 66.2052 40.8261 66.242 40.6479 66.3201C40.4696 66.3982 40.3113 66.5155 40.1847 66.6633C39.8811 67.1068 39.7416 67.6423 39.7902 68.1775V68.1663Z" fill="#84041C"/>
<path d="M50.4833 68.7864L52.3395 69.3463C52.2386 69.8193 52.0374 70.2652 51.7496 70.6538C51.4881 70.9967 51.1443 71.2681 50.7501 71.4429C50.2726 71.6337 49.7611 71.7245 49.2471 71.7096C48.6221 71.732 47.9995 71.6206 47.4211 71.3828C46.9116 71.1358 46.4867 70.7436 46.1999 70.2555C45.8324 69.6212 45.6539 68.8951 45.6851 68.1627C45.6851 67.028 45.987 66.1512 46.5907 65.5325C47.2308 65.0167 48.0112 64.7052 48.8305 64.6382C49.6499 64.5712 50.4705 64.7518 51.1859 65.1568C51.7186 65.559 52.1063 66.1234 52.2906 66.7649L50.4119 67.182C50.3667 67.0196 50.297 66.8651 50.2053 66.7236C50.0914 66.5629 49.9395 66.4328 49.7631 66.3449C49.5868 66.2571 49.3915 66.2142 49.1945 66.2201C48.9758 66.2108 48.7584 66.2594 48.5644 66.361C48.3705 66.4626 48.2068 66.6136 48.0899 66.7988C47.8674 67.2118 47.767 67.6797 47.8006 68.1477C47.8006 68.8991 47.917 69.4289 48.1462 69.7107C48.3889 69.9629 48.7193 70.1122 49.0691 70.1276C49.4188 70.143 49.761 70.0233 50.0249 69.7934C50.2634 69.5038 50.4215 69.1565 50.4833 68.7864Z" fill="#84041C"/>
<path d="M53.3545 64.7358H59.0319V66.1975H55.4774V67.2871H58.7764V68.6886H55.4774V70.0375H59.1333V71.593H53.3545V64.7358Z" fill="#84041C"/>
<path d="M60.3164 71.593V64.7358H63.8483C64.3547 64.7162 64.8613 64.7719 65.3513 64.9011C65.693 65.0104 65.9881 65.2314 66.1892 65.5286C66.4092 65.8554 66.521 66.2432 66.5086 66.637C66.5176 66.9812 66.4332 67.3214 66.2643 67.6214C66.1026 67.8991 65.8723 68.1307 65.5955 68.294C65.3608 68.4231 65.1072 68.5144 64.844 68.5645C65.2082 68.6474 65.5269 68.8666 65.7345 69.177C65.8474 69.3096 65.9469 69.4531 66.0314 69.6053L67.0571 71.593H64.6637L63.5365 69.4964C63.4484 69.2962 63.3206 69.1159 63.1607 68.9666C63.0083 68.8618 62.8272 68.8067 62.6422 68.8088H62.4544V71.593H60.3164ZM62.4431 67.5125H63.3373C63.5265 67.4989 63.7139 67.4674 63.8972 67.4185C64.0356 67.3941 64.1593 67.3174 64.2429 67.2044C64.3409 67.0685 64.3868 66.902 64.3723 66.7351C64.3579 66.5682 64.2839 66.412 64.164 66.2951C63.9269 66.1526 63.6501 66.0906 63.3749 66.1185H62.4431V67.5125Z" fill="#84041C"/>
<path d="M66.6367 64.7358H68.9888L70.3715 67.0466L71.7543 64.7358H74.0951L71.4311 68.7187V71.593H69.3082V68.7187L66.6367 64.7358Z" fill="#84041C"/>
<path d="M26.1169 68.6021V67.1781H29.3895V70.1013C28.8789 70.4695 28.3185 70.763 27.725 70.973C27.1693 71.1384 26.5914 71.2169 26.0117 71.206C25.3236 71.2332 24.6395 71.0899 24.0202 70.7889C23.5054 70.5076 23.0896 70.0747 22.8292 69.549C22.5399 68.9656 22.3943 68.3214 22.4046 67.6703C22.3873 66.9896 22.5479 66.3162 22.8705 65.7165C23.1778 65.1637 23.6528 64.723 24.2269 64.4578C24.8211 64.2101 25.4624 64.0959 26.1056 64.1233C26.6792 64.0998 27.2527 64.1696 27.8039 64.33C28.1658 64.4583 28.4882 64.6784 28.7395 64.9688C29.0057 65.2849 29.1993 65.6556 29.3069 66.0546L27.2629 66.4304C27.1934 66.1887 27.0419 65.9788 26.8345 65.8367C26.6105 65.6939 26.3486 65.6219 26.083 65.6301C25.8705 65.6186 25.6582 65.6564 25.4627 65.7405C25.2672 65.8246 25.0937 65.9527 24.9558 66.1148C24.6422 66.5613 24.4959 67.1041 24.5425 67.6478C24.4913 68.21 24.6388 68.7725 24.9596 69.2371C25.1067 69.3985 25.2879 69.5251 25.49 69.6076C25.6921 69.6902 25.9101 69.7266 26.1281 69.7143C26.3575 69.7154 26.5856 69.6812 26.8045 69.6129C27.0668 69.5223 27.3188 69.4039 27.5559 69.2597V68.6134L26.1169 68.6021Z" fill="white"/>
<path d="M30.6748 71.0895V64.2285H34.1917C34.6983 64.21 35.2048 64.2669 35.6947 64.3976C36.0348 64.508 36.3292 64.7272 36.5326 65.0213C36.6842 65.2393 36.7894 65.4861 36.8417 65.7465C36.894 66.0068 36.8922 66.2751 36.8366 66.5347C36.7809 66.7944 36.6725 67.0398 36.5181 67.2558C36.3637 67.4718 36.1665 67.6538 35.9389 67.7905C35.7039 67.919 35.4504 68.0103 35.1874 68.061C35.3817 68.1175 35.5665 68.2023 35.736 68.3128C35.8642 68.4243 35.9789 68.5504 36.0779 68.6885C36.1894 68.8222 36.2888 68.9655 36.3747 69.1169L37.4005 71.1045H35.0258L33.8986 69.0079C33.8105 68.8077 33.6827 68.6275 33.5229 68.4781C33.3704 68.3734 33.1893 68.3182 33.0044 68.3203H32.8165V71.1045L30.6748 71.0895ZM32.8052 67.009H33.6995C33.8886 66.9949 34.076 66.9634 34.2593 66.915C34.3968 66.8881 34.5197 66.812 34.605 66.7009C34.6917 66.5863 34.7379 66.4462 34.7365 66.3026C34.742 66.2071 34.7259 66.1116 34.6894 66.0232C34.653 65.9347 34.5972 65.8556 34.5261 65.7916C34.2891 65.6491 34.0122 65.5871 33.7371 65.615H32.8052V67.009Z" fill="white"/>
<path d="M37.671 67.6628C37.6239 67.1859 37.683 66.7044 37.844 66.253C38.0051 65.8015 38.2641 65.3914 38.6025 65.0519C38.9408 64.7125 39.3502 64.4521 39.8011 64.2897C40.252 64.1272 40.7333 64.0665 41.2104 64.1121C42.3527 64.1121 43.2294 64.419 43.8406 65.0327C44.1625 65.3758 44.4108 65.7812 44.5704 66.2237C44.73 66.6663 44.7975 67.1369 44.7687 67.6065C44.7952 68.2872 44.6559 68.9641 44.3629 69.5791C44.1009 70.0857 43.6941 70.503 43.1943 70.7777C42.6065 71.0813 41.9505 71.2288 41.2893 71.2061C40.6291 71.2283 39.9725 71.0998 39.3693 70.8303C38.8491 70.5741 38.4182 70.1668 38.1331 69.6618C37.8043 69.0483 37.6448 68.3584 37.671 67.6628ZM39.7902 67.6628C39.739 68.1921 39.8717 68.7228 40.1659 69.1658C40.2957 69.3158 40.4578 69.4347 40.64 69.5134C40.8221 69.5921 41.0197 69.6287 41.218 69.6204C41.4164 69.6316 41.6148 69.5971 41.7978 69.5196C41.9809 69.442 42.1437 69.3236 42.2738 69.1733C42.5255 68.8765 42.6495 68.3467 42.6495 67.5802C42.6961 67.0784 42.5629 66.5764 42.2738 66.1637C42.1417 66.0148 41.978 65.8974 41.7946 65.82C41.6113 65.7427 41.413 65.7073 41.2142 65.7165C41.0194 65.7098 40.8256 65.7472 40.6474 65.8259C40.4691 65.9046 40.3109 66.0227 40.1847 66.1712C39.8836 66.6116 39.7442 67.1426 39.7902 67.6741V67.6628Z" fill="white"/>
<path d="M50.4833 68.2827L52.3395 68.8426C52.2381 69.3143 52.0369 69.7588 51.7496 70.1464C51.4882 70.4903 51.1445 70.763 50.7501 70.9392C50.2726 71.13 49.7611 71.2208 49.2471 71.206C48.6221 71.2284 47.9995 71.1169 47.4211 70.8791C46.9116 70.6321 46.4867 70.2399 46.1999 69.7519C45.8324 69.1175 45.6539 68.3914 45.6851 67.659C45.6851 66.5243 45.987 65.6476 46.5907 65.0288C46.932 64.7094 47.3351 64.4633 47.7752 64.3056C48.2152 64.1479 48.6829 64.082 49.1494 64.112C49.8664 64.0723 50.5779 64.2561 51.1859 64.6381C51.7194 65.0395 52.1073 65.6042 52.2906 66.2462L50.4119 66.6633C50.3667 66.5009 50.297 66.3463 50.2053 66.2049C50.0919 66.0468 49.9425 65.918 49.7694 65.8292C49.5908 65.7408 49.3938 65.6958 49.1945 65.6977C48.976 65.6894 48.7592 65.7389 48.5659 65.8411C48.3726 65.9434 48.2097 66.0948 48.0936 66.28C47.8712 66.6931 47.7708 67.161 47.8043 67.6289C47.8043 68.3804 47.9208 68.9102 48.15 69.192C48.3941 69.4418 48.7241 69.5893 49.073 69.6046C49.4219 69.62 49.7636 69.502 50.0287 69.2747C50.2635 68.9889 50.4201 68.6471 50.4833 68.2827Z" fill="white"/>
<path d="M53.3545 64.2285H59.0319V65.6939H55.4774V66.7835H58.7764V68.1813H55.4774V69.5339H59.1333V71.0895H53.3545V64.2285Z" fill="white"/>
<path d="M60.3164 71.0895V64.2286H63.8483C64.3549 64.2098 64.8615 64.2668 65.3513 64.3977C65.6919 64.5071 65.9867 64.7264 66.1892 65.0214C66.4131 65.3535 66.525 65.7484 66.5086 66.1486C66.5172 66.4927 66.4329 66.8328 66.2643 67.133C66.1026 67.4107 65.8723 67.6423 65.5955 67.8056C65.3608 67.9347 65.1072 68.026 64.844 68.0761C65.0391 68.1335 65.2251 68.2182 65.3964 68.3279C65.5221 68.4408 65.6354 68.5668 65.7345 68.7036C65.8474 68.8362 65.9469 68.9797 66.0314 69.1319L67.0571 71.1196H64.6637L63.5365 69.023C63.4484 68.8228 63.3206 68.6425 63.1607 68.4932C63.0083 68.3884 62.8272 68.3333 62.6422 68.3354H62.4544V71.1196L60.3164 71.0895ZM62.4431 67.009H63.3373C63.5265 66.9954 63.7139 66.964 63.8972 66.9151C64.035 66.8892 64.1583 66.8128 64.2429 66.7009C64.3409 66.5651 64.3868 66.3985 64.3723 66.2316C64.3579 66.0647 64.2839 65.9086 64.164 65.7916C63.9269 65.6492 63.6501 65.5872 63.3749 65.615H62.4431V67.009Z" fill="white"/>
<path d="M66.6367 64.2285H68.9888L70.3715 66.5431L71.7543 64.2285H74.0951L71.4311 68.2151V71.0895H69.3082V68.2151L66.6367 64.2285Z" fill="white"/>
<path d="M57.7695 88.2307H38.2725V123.013H57.7695V88.2307Z" fill="white"/>
<path opacity="0.4" d="M56.6384 79.303H39.4033V83.6766H56.6384V79.303Z" fill="#84041C"/>
<path d="M35.4391 83.3987H21.6533V110.132H35.4391V83.3987Z" fill="white"/>
<path opacity="0.3" d="M34.2103 84.6274H22.8818V108.908H34.2103V84.6274Z" fill="#84041C"/>
<path opacity="0.3" d="M39.6361 105.624H56.4053V90.6657H39.6361V105.624Z" fill="#84041C"/>
<path d="M52.6036 103.775H56.361C56.4321 103.774 56.5027 103.788 56.5686 103.815C56.6345 103.842 56.6943 103.882 56.7447 103.932C56.795 103.983 56.8348 104.042 56.8618 104.108C56.8889 104.174 56.9025 104.245 56.902 104.316C56.902 104.459 56.845 104.597 56.7435 104.699C56.6421 104.8 56.5044 104.857 56.361 104.857H52.6036C52.4601 104.857 52.3225 104.8 52.221 104.699C52.1195 104.597 52.0625 104.459 52.0625 104.316C52.062 104.245 52.0757 104.174 52.1027 104.108C52.1297 104.042 52.1695 103.983 52.2199 103.932C52.2702 103.882 52.3301 103.842 52.3959 103.815C52.4618 103.788 52.5324 103.774 52.6036 103.775Z" fill="white"/>
<path opacity="0.4" d="M49.984 90.3123L42.597 120.935H41.2744L48.6614 90.3123H49.984Z" fill="white"/>
<path opacity="0.4" d="M53.8731 90.3123L46.4861 120.935H43.8936L51.2806 90.3123H53.8731Z" fill="white"/>
<path opacity="0.4" d="M28.7773 84.6274L24.0881 108.904H22.4424L27.1316 84.6274H28.7773Z" fill="white"/>
<path opacity="0.4" d="M31.6859 84.6274L26.9967 108.904H24.9902L29.6832 84.6274H31.6859Z" fill="white"/>
<path d="M60.599 110.132H74.3848V83.3986H60.599V110.132Z" fill="white"/>
<path opacity="0.3" d="M61.8311 84.6237V108.904H73.1595V84.6237H61.8311Z" fill="#84041C"/>
<path opacity="0.4" d="M70.5565 84.6274L65.8635 108.904H64.2178L68.9107 84.6274H70.5565Z" fill="white"/>
<path opacity="0.4" d="M73.4642 84.6274L68.775 108.904H66.7686L71.4578 84.6274H73.4642Z" fill="white"/>
<path d="M58.6561 102.847L37.333 99.1533V95.4861L58.6561 99.1758V102.847Z" fill="#84041C"/>
<path d="M140.928 73.0886H80.3926V123.017H140.928V73.0886Z" fill="#84041C"/>
<path opacity="0.2" d="M140.928 73.0886H80.3926V123.017H140.928V73.0886Z" fill="black"/>
<path d="M80.7568 114.81H140.567C140.796 114.81 141.016 114.901 141.178 115.064C141.34 115.226 141.431 115.445 141.431 115.675V123.017H79.8926V115.671C79.8926 115.557 79.9149 115.445 79.9584 115.34C80.0018 115.235 80.0654 115.14 80.1457 115.06C80.2259 114.98 80.3212 114.916 80.4261 114.872C80.5309 114.829 80.6433 114.807 80.7568 114.807V114.81Z" fill="#263238"/>
<path d="M92.6714 85.4766H85.0928V87.2951H92.6714V85.4766Z" fill="#84041C"/>
<path d="M138.928 85.4766H131.35V87.2951H138.928V85.4766Z" fill="#84041C"/>
<path d="M96.4624 87.2952H88.8838V89.1137H96.4624V87.2952Z" fill="#84041C"/>
<path d="M118.274 111.312H125.853V109.494H118.274V111.312Z" fill="#84041C"/>
<path d="M114.487 113.127H122.065V111.309H114.487V113.127Z" fill="#84041C"/>
<path d="M106.164 88.2307H86.667V123.013H106.164V88.2307Z" fill="white"/>
<path d="M136.568 88.2307H109.162V110.129H136.568V88.2307Z" fill="white"/>
<path opacity="0.3" d="M110.388 89.4594V108.904H135.34V89.4594H110.388Z" fill="#84041C"/>
<path opacity="0.3" d="M104.8 90.6655H88.0312V120.586H104.8V90.6655Z" fill="#84041C"/>
<path d="M105.296 104.327H87.5273V106.92H105.296V104.327Z" fill="white"/>
<path opacity="0.4" d="M98.3785 90.3123L90.9915 120.935H89.6689L97.0559 90.3123H98.3785Z" fill="white"/>
<path opacity="0.4" d="M102.268 90.3123L94.8807 120.935H92.2881L99.6751 90.3123H102.268Z" fill="white"/>
<path opacity="0.4" d="M123.339 89.4631L118.65 108.904H117.004L121.693 89.4631H123.339Z" fill="white"/>
<path opacity="0.4" d="M131.349 89.4631L126.66 108.904H121.486L126.176 89.4631H131.349Z" fill="white"/>
<path d="M82.7859 75.497H74.7939L84.1949 67.3623H90.0977L82.7859 75.497Z" fill="#84041C"/>
<path d="M90.7781 75.497H82.7861L90.098 67.3623H96.0008L90.7781 75.497Z" fill="white"/>
<path d="M98.7693 75.497H90.7773L96.0001 67.3623H101.903L98.7693 75.497Z" fill="#84041C"/>
<path d="M106.761 75.497H98.7695L101.903 67.3623H107.806L106.761 75.497Z" fill="white"/>
<path d="M114.754 75.497H106.762L107.806 67.3623H113.709L114.754 75.497Z" fill="#84041C"/>
<path d="M122.749 75.497H114.754L113.709 67.3623H119.612L122.749 75.497Z" fill="white"/>
<path d="M130.741 75.497H122.749L119.611 67.3623H125.514L130.741 75.497Z" fill="#84041C"/>
<path d="M146.726 75.497H138.734L131.418 67.3623H137.325L146.726 75.497Z" fill="#84041C"/>
<path d="M138.733 75.497H130.741L125.515 67.3623H131.417L138.733 75.497Z" fill="white"/>
<path d="M78.7879 82.948C77.7282 82.948 76.7119 82.5273 75.9623 81.7783C75.2127 81.0294 74.791 80.0135 74.79 78.9539V75.4971H82.7857V78.9539C82.7847 80.0135 82.3631 81.0294 81.6135 81.7783C80.8638 82.5273 79.8475 82.948 78.7879 82.948Z" fill="#84041C"/>
<path d="M86.7949 82.948C85.7356 82.948 84.7197 82.5271 83.9706 81.7781C83.2216 81.0291 82.8008 80.0132 82.8008 78.9539V75.4971H90.7777V78.9539C90.7777 80.0112 90.3584 81.0254 89.6118 81.7741C88.8652 82.5228 87.8522 82.945 86.7949 82.948Z" fill="white"/>
<path d="M94.7714 82.948C93.7121 82.948 92.6962 82.5271 91.9472 81.7781C91.1981 81.0291 90.7773 80.0132 90.7773 78.9539V75.4971H98.7693V78.9539C98.7693 79.4787 98.6658 79.9984 98.4649 80.4832C98.2639 80.968 97.9694 81.4085 97.5981 81.7794C97.2268 82.1504 96.7861 82.4445 96.3011 82.645C95.816 82.8455 95.2963 82.9484 94.7714 82.948Z" fill="#84041C"/>
<path d="M98.7704 75.4971H106.762V78.9539C106.762 80.0142 106.341 81.031 105.591 81.7808C104.842 82.5305 103.825 82.9517 102.764 82.9517C101.704 82.9517 100.687 82.5305 99.9375 81.7808C99.1878 81.031 98.7666 80.0142 98.7666 78.9539V75.4971H98.7704Z" fill="white"/>
<path d="M110.76 82.948C110.235 82.9484 109.715 82.8455 109.23 82.645C108.745 82.4445 108.304 82.1504 107.933 81.7794C107.562 81.4085 107.267 80.968 107.066 80.4832C106.865 79.9984 106.762 79.4787 106.762 78.9539V75.4971H114.754V78.9539C114.754 80.0132 114.333 81.0291 113.584 81.7781C112.835 82.5271 111.819 82.948 110.76 82.948Z" fill="#84041C"/>
<path d="M114.753 75.4972H122.745V78.954C122.745 79.4799 122.64 80.0006 122.438 80.4862C122.236 80.9718 121.94 81.4127 121.568 81.7837C121.195 82.1548 120.752 82.4486 120.266 82.6484C119.779 82.8482 119.258 82.95 118.732 82.948C117.672 82.948 116.655 82.5268 115.905 81.7771C115.156 81.0274 114.734 80.0105 114.734 78.9502V75.4934L114.753 75.4972Z" fill="white"/>
<path d="M126.743 82.948C125.684 82.948 124.668 82.5271 123.919 81.7781C123.17 81.0291 122.749 80.0132 122.749 78.9539V75.4971H130.756V78.9539C130.756 79.48 130.652 80.0009 130.45 80.4867C130.248 80.9725 129.952 81.4136 129.58 81.7848C129.207 82.1559 128.764 82.4497 128.277 82.6493C127.791 82.8489 127.269 82.9504 126.743 82.948Z" fill="#84041C"/>
<path d="M142.727 82.948C141.667 82.948 140.651 82.5271 139.902 81.7781C139.153 81.0291 138.732 80.0132 138.732 78.9539V75.4971H146.724V78.9539C146.724 79.4787 146.621 79.9984 146.42 80.4832C146.219 80.968 145.924 81.4085 145.553 81.7794C145.182 82.1504 144.741 82.4445 144.256 82.645C143.771 82.8455 143.251 82.9484 142.727 82.948Z" fill="#84041C"/>
<path d="M130.756 75.4971H138.748V78.9539C138.748 80.0142 138.327 81.031 137.577 81.7808C136.827 82.5305 135.81 82.9517 134.75 82.9517C133.69 82.9507 132.674 82.5291 131.925 81.7794C131.177 81.0298 130.756 80.0135 130.756 78.9539V75.4971Z" fill="white"/>
<path d="M104.277 105.398C104.904 105.398 105.412 104.89 105.412 104.264C105.412 103.637 104.904 103.129 104.277 103.129C103.651 103.129 103.143 103.637 103.143 104.264C103.143 104.89 103.651 105.398 104.277 105.398Z" fill="#84041C"/>
<path d="M102.897 96.474L90.7947 95.3848C90.4647 95.3551 90.1732 95.5985 90.1435 95.9285L89.8094 99.6408C89.7797 99.9707 90.0231 100.262 90.353 100.292L102.456 101.381C102.785 101.411 103.077 101.167 103.107 100.838L103.441 97.1252C103.471 96.7953 103.227 96.5037 102.897 96.474Z" fill="#84041C"/>
<path d="M92.5025 97.474L92.9496 97.6544C92.9125 97.7692 92.8524 97.8753 92.773 97.9662C92.7011 98.0448 92.6107 98.1041 92.51 98.1391C92.3881 98.1742 92.2605 98.1857 92.1343 98.1729C91.9771 98.1699 91.8222 98.1341 91.6796 98.0677C91.5578 97.994 91.4609 97.8853 91.4016 97.7558C91.3252 97.5904 91.2965 97.4069 91.3189 97.226C91.3263 96.9878 91.4276 96.7623 91.6007 96.5985C91.6929 96.5281 91.7982 96.4769 91.9105 96.4478C92.0228 96.4188 92.1398 96.4125 92.2545 96.4295C92.4323 96.436 92.6039 96.4962 92.7467 96.6023C92.8705 96.7137 92.9538 96.863 92.9835 97.0269L92.5138 97.087C92.506 97.0463 92.4921 97.007 92.4724 96.9705C92.4466 96.9296 92.4119 96.895 92.371 96.8691C92.3295 96.8419 92.2815 96.8263 92.232 96.824C92.178 96.817 92.1231 96.8245 92.073 96.8456C92.0228 96.8667 91.9792 96.9007 91.9464 96.9442C91.8826 97.0415 91.8474 97.1548 91.845 97.2711C91.8198 97.4049 91.8382 97.5432 91.8976 97.6656C91.9238 97.7033 91.9586 97.7342 91.9991 97.7557C92.0396 97.7773 92.0846 97.7889 92.1305 97.7896C92.1717 97.7969 92.2139 97.795 92.2542 97.7839C92.2945 97.7729 92.3318 97.753 92.3635 97.7258C92.4315 97.6558 92.4795 97.5689 92.5025 97.474Z" fill="white"/>
<path d="M93.3026 96.5344L93.8287 96.5833L93.716 97.8608L94.5313 97.9322L94.4975 98.3492L93.1523 98.2328L93.3026 96.5344Z" fill="white"/>
<path d="M94.7039 97.5151C94.727 97.3424 94.7985 97.1797 94.9101 97.0458C95.0217 96.912 95.1689 96.8124 95.3347 96.7586C95.5004 96.7047 95.678 96.6989 95.847 96.7417C96.0159 96.7845 96.1694 96.8741 96.2895 97.0004C96.3611 97.0927 96.4133 97.1985 96.443 97.3115C96.4727 97.4245 96.4793 97.5423 96.4624 97.6579C96.4519 97.8258 96.403 97.989 96.3196 98.1351C96.2419 98.2532 96.1325 98.3469 96.004 98.4056C95.8522 98.4692 95.6862 98.4912 95.523 98.4695C95.3585 98.4619 95.1979 98.4169 95.0534 98.338C94.9325 98.2614 94.8361 98.1519 94.7753 98.0224C94.7052 97.8631 94.6805 97.6876 94.7039 97.5151ZM95.2262 97.564C95.2032 97.6928 95.2258 97.8257 95.2901 97.9397C95.3176 97.9804 95.3545 98.0139 95.3976 98.0374C95.4408 98.061 95.4889 98.0738 95.5381 98.075C95.5868 98.0824 95.6365 98.0785 95.6835 98.0635C95.7304 98.0485 95.7732 98.0229 95.8086 97.9886C95.8927 97.8815 95.9378 97.749 95.9363 97.6128C95.958 97.49 95.9354 97.3635 95.8725 97.2559C95.8426 97.2167 95.8046 97.1843 95.7612 97.161C95.7178 97.1377 95.6699 97.1239 95.6207 97.1206C95.5724 97.1156 95.5235 97.121 95.4775 97.1366C95.4315 97.1522 95.3893 97.1775 95.3539 97.2108C95.2747 97.3119 95.23 97.4356 95.2262 97.564Z" fill="white"/>
<path d="M96.6274 97.9736H97.1271C97.128 98.0405 97.1447 98.1062 97.176 98.1652C97.2008 98.2025 97.2342 98.2333 97.2735 98.2549C97.3127 98.2765 97.3566 98.2883 97.4014 98.2892C97.4629 98.2979 97.5254 98.2846 97.578 98.2517C97.5977 98.2386 97.6143 98.2215 97.6266 98.2013C97.639 98.1812 97.6467 98.1586 97.6494 98.1352C97.6514 98.1121 97.648 98.089 97.6395 98.0675C97.631 98.046 97.6177 98.0267 97.6006 98.0112C97.5245 97.9518 97.4358 97.9107 97.3413 97.891C97.1663 97.8444 97.0043 97.7582 96.8679 97.6392C96.8239 97.5953 96.7903 97.5422 96.7695 97.4837C96.7487 97.4252 96.7412 97.3628 96.7476 97.301C96.7553 97.2129 96.7893 97.1291 96.8453 97.0606C96.9086 96.9825 96.9936 96.925 97.0896 96.8952C97.2279 96.8584 97.372 96.8481 97.5141 96.8652C97.6887 96.8698 97.8578 96.9275 97.9988 97.0305C98.0538 97.0818 98.0972 97.1442 98.1263 97.2135C98.1555 97.2828 98.1696 97.3574 98.1679 97.4326H97.672C97.6696 97.369 97.6457 97.308 97.6043 97.2597C97.5567 97.2196 97.4974 97.1958 97.4352 97.1921C97.386 97.1849 97.3358 97.1941 97.2925 97.2184C97.277 97.2283 97.2639 97.2415 97.2541 97.2571C97.2444 97.2727 97.2382 97.2903 97.2361 97.3086C97.2373 97.3381 97.2493 97.3662 97.2699 97.3875C97.3204 97.424 97.378 97.4496 97.439 97.4626C97.6064 97.5088 97.7678 97.5744 97.9199 97.658C98.0044 97.7068 98.0735 97.7784 98.1191 97.8646C98.1567 97.9442 98.1723 98.0325 98.1642 98.1202C98.156 98.2274 98.1154 98.3296 98.0477 98.4132C97.9784 98.5016 97.8841 98.567 97.7772 98.6011C97.6432 98.6405 97.5025 98.652 97.3638 98.6349C97.1477 98.6406 96.9376 98.5625 96.7777 98.417C96.6749 98.2926 96.6214 98.1348 96.6274 97.9736Z" fill="white"/>
<path d="M98.5292 96.9966L99.9345 97.1206L99.9006 97.4963L99.0214 97.4212L98.9989 97.6879L99.8142 97.7631L99.7842 98.1088L98.9688 98.0374L98.9388 98.3718L99.8443 98.4507L99.8105 98.8264L98.3789 98.6987L98.5292 96.9966Z" fill="white"/>
<path d="M100.25 97.147L101.028 97.2146C101.158 97.2213 101.286 97.2545 101.403 97.3123C101.493 97.3589 101.569 97.4274 101.625 97.5114C101.681 97.5982 101.718 97.6954 101.734 97.797C101.749 97.9067 101.749 98.018 101.734 98.1277C101.727 98.2715 101.694 98.4129 101.636 98.5447C101.589 98.6369 101.523 98.7177 101.441 98.7814C101.369 98.8386 101.284 98.8773 101.193 98.8942C101.089 98.9147 100.983 98.9211 100.877 98.9129L100.1 98.8453L100.25 97.147ZM100.738 97.5791L100.656 98.5072H100.787C100.867 98.5189 100.947 98.5125 101.024 98.4884C101.076 98.4641 101.118 98.4231 101.144 98.3719C101.183 98.2789 101.205 98.1796 101.208 98.0788C101.232 97.9508 101.212 97.8184 101.152 97.7031C101.116 97.6637 101.073 97.6323 101.024 97.6109C100.975 97.5895 100.923 97.5787 100.87 97.5791H100.738Z" fill="white"/>
<path d="M136.576 105.515L108.933 92.8524C108.907 92.8399 108.884 92.8202 108.868 92.7957C108.852 92.7711 108.843 92.7426 108.843 92.7134V91.3682C108.843 91.3425 108.85 91.3173 108.862 91.2948C108.874 91.2723 108.892 91.2533 108.914 91.2395C108.936 91.2257 108.96 91.2175 108.986 91.2157C109.012 91.2139 109.037 91.2185 109.061 91.2292L136.704 103.892C136.731 103.903 136.754 103.923 136.77 103.948C136.786 103.972 136.794 104.001 136.794 104.031V105.376C136.794 105.401 136.787 105.427 136.775 105.449C136.762 105.472 136.744 105.491 136.723 105.504C136.701 105.518 136.676 105.526 136.651 105.528C136.625 105.53 136.599 105.525 136.576 105.515Z" fill="#84041C"/>
<path d="M136.587 93.1831L108.94 103.914C108.912 103.925 108.887 103.945 108.87 103.971C108.852 103.996 108.843 104.026 108.843 104.057V105.41C108.843 105.435 108.849 105.459 108.861 105.481C108.873 105.504 108.89 105.522 108.91 105.536C108.931 105.551 108.955 105.559 108.98 105.562C109.005 105.565 109.03 105.562 109.053 105.552L136.696 94.8213C136.725 94.8105 136.75 94.7909 136.768 94.7654C136.785 94.7398 136.794 94.7095 136.794 94.6785V93.3259C136.794 93.3013 136.787 93.2771 136.776 93.2554C136.764 93.2337 136.748 93.2151 136.727 93.2011C136.707 93.1872 136.684 93.1782 136.66 93.1751C136.635 93.1719 136.61 93.1747 136.587 93.1831Z" fill="#84041C"/>
<path d="M159.467 95.5349H157.776V117.087H159.467V95.5349Z" fill="#263238"/>
<path d="M164.851 111.218H152.388C152.31 111.212 152.232 111.223 152.159 111.251C152.087 111.279 152.021 111.322 151.967 111.378C151.912 111.434 151.871 111.501 151.846 111.575C151.821 111.649 151.812 111.727 151.821 111.804L153.756 122.577C153.786 122.703 153.86 122.816 153.964 122.894C154.068 122.972 154.197 123.011 154.327 123.005H162.916C163.046 123.011 163.174 122.972 163.277 122.893C163.381 122.815 163.454 122.703 163.483 122.577L165.422 111.804C165.431 111.727 165.422 111.648 165.397 111.574C165.371 111.5 165.33 111.432 165.275 111.376C165.221 111.32 165.154 111.277 165.081 111.25C165.008 111.222 164.929 111.212 164.851 111.218Z" fill="#84041C"/>
<path opacity="0.5" d="M164.851 111.218H152.388C152.31 111.212 152.232 111.223 152.159 111.251C152.087 111.279 152.021 111.322 151.967 111.378C151.912 111.434 151.871 111.501 151.846 111.575C151.821 111.649 151.812 111.727 151.821 111.804L153.756 122.577C153.786 122.703 153.86 122.816 153.964 122.894C154.068 122.972 154.197 123.011 154.327 123.005H162.916C163.046 123.011 163.174 122.972 163.277 122.893C163.381 122.815 163.454 122.703 163.483 122.577L165.422 111.804C165.431 111.727 165.422 111.648 165.397 111.574C165.371 111.5 165.33 111.432 165.275 111.376C165.221 111.32 165.154 111.277 165.081 111.25C165.008 111.222 164.929 111.212 164.851 111.218Z" fill="white"/>
<path d="M166.786 93.1603C166.787 93.0484 166.759 92.9381 166.706 92.8397C166.653 92.7412 166.576 92.6576 166.482 92.5967C166.427 92.5432 166.364 92.4999 166.294 92.4689C166.239 92.4978 166.175 92.5038 166.116 92.4854C166.057 92.4671 166.007 92.426 165.978 92.3712C165.949 92.3164 165.944 92.2524 165.962 92.1932C165.98 92.134 166.021 92.0845 166.076 92.0556C166.055 91.9136 165.989 91.782 165.888 91.6799C165.942 91.5799 165.97 91.4683 165.97 91.3549C165.97 91.2414 165.942 91.1298 165.888 91.0298C165.824 90.9087 165.725 90.8103 165.603 90.748C165.388 90.2814 165.109 89.8465 164.776 89.4555C164.87 89.3395 164.923 89.1954 164.926 89.0459C164.928 88.9086 164.889 88.7738 164.813 88.6592C164.737 88.5446 164.629 88.4555 164.502 88.4034C164.546 88.3267 164.574 88.242 164.585 88.1543C164.596 88.0666 164.589 87.9776 164.566 87.8924C164.543 87.806 164.503 87.725 164.448 87.6541C164.394 87.5831 164.326 87.5236 164.248 87.4789C164.171 87.4343 164.085 87.4053 163.997 87.3937C163.908 87.3822 163.818 87.3882 163.731 87.4115C163.651 87.4331 163.576 87.4701 163.51 87.5204L163.468 87.4941C163.35 87.4425 163.22 87.4243 163.093 87.4415C163.017 87.359 162.923 87.2959 162.818 87.2574H162.788C162.845 87.2091 162.893 87.152 162.931 87.0883C163.023 86.9334 163.05 86.7482 163.006 86.5734C162.961 86.3987 162.849 86.2487 162.694 86.1565C162.558 86.0745 162.396 86.0435 162.239 86.0689C162.081 86.0944 161.938 86.1746 161.834 86.2955L161.77 86.2768C161.656 86.2549 161.538 86.264 161.428 86.3031C161.361 86.2245 161.278 86.162 161.183 86.1204C161.089 86.0788 160.986 86.059 160.883 86.0626C160.863 85.9219 160.8 85.791 160.701 85.6883C160.603 85.5857 160.475 85.5165 160.335 85.4903C160.195 85.4642 160.051 85.4825 159.922 85.5427C159.793 85.6029 159.687 85.7019 159.617 85.8259C159.591 85.8704 159.572 85.9185 159.561 85.9686C159.495 85.9332 159.424 85.9091 159.35 85.8973C159.202 85.8739 159.05 85.9003 158.918 85.9724C158.844 85.8442 158.729 85.7448 158.591 85.6906C158.508 85.6569 158.42 85.6399 158.33 85.6406C158.241 85.6413 158.152 85.6596 158.07 85.6945C157.988 85.7294 157.913 85.7802 157.85 85.844C157.788 85.9078 157.738 85.9834 157.705 86.0663C157.694 86.0944 157.685 86.1233 157.678 86.1528C157.595 86.0672 157.489 86.0053 157.374 85.9737C157.258 85.942 157.137 85.9415 157.021 85.9724C156.997 86.0381 156.955 86.0959 156.9 86.1391C156.845 86.1824 156.779 86.2095 156.71 86.2173C156.64 86.2251 156.57 86.2133 156.507 86.1833C156.443 86.1534 156.39 86.1063 156.352 86.0476C155.871 86.169 155.392 86.2943 154.913 86.4233C154.816 86.5394 154.761 86.6853 154.759 86.8366C154.703 86.8291 154.646 86.8291 154.59 86.8366C154.452 86.864 154.325 86.9337 154.228 87.036C154.131 87.1383 154.069 87.2682 154.049 87.4077C153.954 87.3961 153.858 87.405 153.767 87.434C153.606 87.4901 153.472 87.6039 153.391 87.7534C153.357 87.7297 153.319 87.712 153.278 87.7008C153.194 87.6705 153.105 87.6571 153.016 87.6615C152.926 87.6659 152.839 87.688 152.758 87.7264C152.678 87.7648 152.605 87.8189 152.546 87.8854C152.486 87.952 152.44 88.0297 152.41 88.1141C152.37 88.2335 152.362 88.3619 152.389 88.4852C152.417 88.6085 152.477 88.7219 152.565 88.813C152.565 88.813 152.565 88.813 152.565 88.8318C152.523 88.9368 152.509 89.0505 152.523 89.1624L152.474 89.1962C152.395 89.2679 152.334 89.3566 152.294 89.4555H152.241C152.063 89.4364 151.884 89.4884 151.743 89.6002C151.603 89.712 151.512 89.8746 151.49 90.0529C151.482 90.1065 151.482 90.1609 151.49 90.2145C151.341 90.309 151.234 90.458 151.193 90.6298C151.151 90.8017 151.178 90.9829 151.268 91.135C151.348 91.2722 151.475 91.3752 151.625 91.4244C151.592 91.5195 151.58 91.621 151.591 91.7212L151.52 91.7663C151.389 92.2659 151.264 92.7669 151.144 93.2692C151.177 93.3563 151.225 93.4365 151.287 93.5059C151.21 93.5821 151.151 93.6745 151.114 93.7765C151.07 93.9101 151.068 94.0541 151.109 94.1887C151.15 94.3233 151.232 94.4418 151.343 94.5279C151.304 94.5459 151.267 94.57 151.234 94.5993C151.135 94.7007 151.07 94.8312 151.049 94.9719C151.028 95.1127 151.053 95.2563 151.12 95.382C151.186 95.5077 151.291 95.6088 151.419 95.6708C151.548 95.7328 151.692 95.7523 151.832 95.7266C151.843 95.7511 151.855 95.7749 151.869 95.7979C151.772 95.9395 151.732 96.1126 151.757 96.2826C151.764 96.3372 151.779 96.3904 151.802 96.4405C151.741 96.507 151.693 96.5852 151.663 96.6704C151.633 96.7557 151.62 96.8461 151.625 96.9364C151.63 97.0258 151.653 97.1132 151.692 97.1938C151.732 97.2743 151.786 97.3463 151.853 97.4056C151.92 97.4649 151.998 97.5105 152.083 97.5396C152.168 97.5687 152.257 97.5808 152.347 97.5752H152.426C152.472 97.7047 152.557 97.8169 152.669 97.8968C152.781 97.9767 152.915 98.0205 153.053 98.0223C153.044 98.0632 153.038 98.1046 153.034 98.1463C153.029 98.3268 153.095 98.5021 153.218 98.6342C153.341 98.7664 153.511 98.8449 153.692 98.8527H153.771C153.733 98.9108 153.704 98.9741 153.684 99.0406C153.66 99.1264 153.652 99.2163 153.662 99.3051C153.672 99.3938 153.7 99.4797 153.743 99.5579C153.786 99.6361 153.844 99.7049 153.914 99.7606C153.984 99.8162 154.064 99.8576 154.15 99.8822C154.261 99.9127 154.378 99.9149 154.491 99.8887C154.603 99.8624 154.707 99.8085 154.793 99.7319C154.991 99.7356 155.185 99.7842 155.361 99.8741C155.538 99.9639 155.692 100.093 155.811 100.25C155.922 100.293 156.043 100.305 156.161 100.285C156.278 100.265 156.388 100.214 156.48 100.138C156.501 100.251 156.55 100.356 156.623 100.446C156.679 100.515 156.749 100.572 156.828 100.613C156.907 100.655 156.994 100.681 157.083 100.69C157.172 100.698 157.262 100.689 157.347 100.662C157.432 100.636 157.512 100.593 157.581 100.536C157.668 100.586 157.766 100.616 157.867 100.623C157.967 100.631 158.069 100.617 158.163 100.581C158.182 100.642 158.21 100.701 158.246 100.754C158.35 100.902 158.508 101.003 158.686 101.035C158.864 101.067 159.048 101.026 159.196 100.923C159.276 100.866 159.342 100.793 159.392 100.709C159.474 100.755 159.566 100.783 159.66 100.791C159.754 100.799 159.849 100.788 159.938 100.757C160.027 100.726 160.109 100.677 160.178 100.612C160.247 100.547 160.302 100.469 160.339 100.382C160.812 100.084 161.371 99.9519 161.928 100.006C162.02 99.9009 162.076 99.7695 162.089 99.6305C162.207 99.6219 162.321 99.5827 162.419 99.5169C162.517 99.451 162.597 99.3606 162.649 99.2547C162.682 99.1825 162.701 99.1047 162.706 99.0255C162.856 98.9896 162.989 98.9018 163.081 98.7775C163.158 98.9117 163.277 99.0161 163.42 99.074C163.563 99.1318 163.721 99.1396 163.869 99.0961C164.017 99.0525 164.146 98.9603 164.235 98.8342C164.324 98.7082 164.368 98.5558 164.359 98.4018C164.34 98.2413 164.265 98.0925 164.149 97.981C164.253 97.9386 164.345 97.87 164.415 97.7818C164.483 97.6954 164.528 97.5934 164.547 97.485L164.592 97.5113C164.67 97.5541 164.756 97.581 164.845 97.5904C164.934 97.5998 165.024 97.5915 165.109 97.566C165.195 97.5405 165.275 97.4983 165.344 97.4418C165.413 97.3854 165.47 97.3158 165.512 97.237C165.446 97.0307 165.429 96.8116 165.463 96.5975C165.497 96.3833 165.581 96.1802 165.708 96.0046C165.705 95.9129 165.683 95.8227 165.644 95.7394C165.605 95.6562 165.55 95.5815 165.482 95.5199C165.482 95.4974 165.482 95.4748 165.482 95.4485C165.534 95.4075 165.58 95.3595 165.618 95.3057C165.676 95.2199 165.714 95.1216 165.729 95.0186C165.743 94.9156 165.733 94.8107 165.7 94.7121C165.746 94.7088 165.792 94.6999 165.836 94.6858C166.103 94.1674 166.423 93.6777 166.79 93.2241L166.786 93.1603Z" fill="#84041C"/>
<path d="M64.8001 147.966C64.8001 147.966 64.2385 150.461 64.8492 150.968C65.46 151.474 69.4315 153.159 81.7019 153.77C93.9723 154.381 104.414 151.223 105.175 150.409C105.936 149.596 105.276 145.879 105.276 145.879C105.276 145.879 99.1162 149.492 92.0787 150.308C85.0411 151.124 74.7687 150.154 70.7972 149.034C66.8258 147.914 65.0549 147.392 65.0549 147.392L64.8001 147.966Z" fill="#84041C"/>
<path d="M84.8531 154C83.8157 154 82.763 153.974 81.6949 153.923C70.3023 153.355 65.631 151.821 64.7502 151.087C64.0872 150.535 64.5906 148.196 64.6489 147.932V147.902L64.9036 147.34C64.919 147.307 64.9457 147.28 64.9789 147.265C65.0121 147.25 65.0496 147.247 65.0847 147.257C65.0847 147.257 66.8679 147.767 70.8394 148.887C74.6604 149.964 84.8254 150.995 92.0625 150.154C98.9742 149.353 105.128 145.781 105.189 145.744C105.211 145.733 105.235 145.727 105.26 145.727C105.284 145.727 105.309 145.733 105.33 145.744C105.353 145.755 105.372 145.771 105.387 145.79C105.402 145.81 105.412 145.833 105.416 145.858C105.487 146.244 106.07 149.673 105.275 150.52C104.48 151.367 95.6411 154 84.8531 154ZM64.9435 148.006C64.7379 148.927 64.5568 150.517 64.9435 150.842C65.631 151.413 69.9769 153.024 81.7072 153.604C94.0789 154.218 104.419 150.962 105.057 150.292C105.604 149.709 105.343 147.248 105.159 146.106C104.057 146.72 98.3911 149.719 92.1024 150.449C84.8316 151.29 74.6083 150.253 70.7626 149.169C67.3866 148.221 65.6065 147.711 65.1338 147.576L64.9435 148.006Z" fill="#263238"/>
<path d="M81.7356 96.3217C81.7356 96.3217 71.9143 96.512 71.1501 97.181C70.3859 97.8501 67.1602 135.238 66.2886 138.848C65.4169 142.457 63.1427 147.048 63.999 148.288C64.8553 149.528 78.6848 152.1 86.7874 152.1C94.8899 152.1 103.189 148.859 104.809 147.048C106.43 145.238 105.574 142.853 105.285 141.708C104.997 140.563 103.474 132.746 103.569 132.461C103.665 132.175 106.43 122.735 106.43 122.735C106.43 122.735 113.296 107.288 112.341 105.667C111.387 104.047 101.759 98.8015 101.759 98.8015L84.2154 96.0393L81.7356 96.3217Z" fill="#84041C"/>
<path d="M86.7871 152.253C78.6539 152.253 64.7998 149.709 63.8729 148.374C63.2775 147.512 64.0263 145.342 64.8918 142.831C65.3553 141.487 65.8371 140.094 66.1379 138.814C66.5277 137.172 67.4054 128.59 68.3354 119.509C69.738 105.793 70.6219 97.4417 71.0516 97.0642C71.8312 96.3828 80.6795 96.1895 81.7261 96.168L84.1967 95.8826H84.2366L101.783 98.6448C101.8 98.6471 101.817 98.6522 101.832 98.6601C102.225 98.875 111.509 103.945 112.473 105.581C113.436 107.217 107.277 121.203 106.571 122.79C106.463 123.155 103.809 132.215 103.716 132.501C103.674 132.912 105.128 140.443 105.435 141.665C105.46 141.769 105.494 141.886 105.527 142.012C105.871 143.295 106.448 145.44 104.913 147.143C103.354 148.902 95.0738 152.253 86.7871 152.253ZM84.2121 96.1925L81.7568 96.4749H81.7414C77.816 96.5516 71.7851 96.834 71.2542 97.2974C70.8613 97.8652 69.6828 109.378 68.6423 119.54C67.7216 128.633 66.8346 137.221 66.4417 138.875C66.1348 140.17 65.6499 141.57 65.1834 142.923C64.3793 145.253 63.6212 147.456 64.1307 148.19C64.901 149.307 78.5986 151.937 86.7902 151.937C94.9817 151.937 103.161 148.653 104.699 146.935C106.113 145.354 105.561 143.31 105.233 142.088C105.199 141.963 105.168 141.843 105.141 141.736C104.941 140.935 103.299 132.78 103.428 132.402C103.52 132.123 106.258 122.777 106.285 122.682C109.048 116.483 112.884 106.873 112.212 105.735C111.313 104.2 102.237 99.2279 101.712 98.9394L84.2121 96.1925Z" fill="#263238"/>
<path d="M66.2881 138.848C68.0072 138.52 69.7558 138.371 71.5056 138.406C72.8808 138.469 74.2456 138.675 75.5784 139.02C75.5784 139.02 72.9052 135.859 71.4473 135.616C69.9895 135.374 66.8774 136.46 66.8774 136.46L66.2881 138.848Z" fill="#263238"/>
<path d="M75.576 139.167H75.5361C74.2142 138.825 72.8609 138.62 71.4971 138.553C69.7607 138.523 68.0257 138.671 66.3195 138.995C66.2942 139.001 66.268 139 66.2433 138.992C66.2185 138.985 66.1962 138.971 66.1783 138.952C66.1599 138.934 66.1468 138.91 66.1403 138.885C66.1338 138.86 66.1342 138.833 66.1415 138.808L66.7369 136.42C66.7423 136.395 66.7542 136.372 66.7714 136.353C66.7887 136.334 66.8107 136.32 66.8351 136.313C66.9609 136.267 69.9902 135.208 71.4695 135.453C72.9488 135.699 75.5821 138.78 75.6957 138.909C75.7152 138.936 75.7257 138.968 75.7257 139.001C75.7257 139.034 75.7152 139.067 75.6957 139.093C75.6831 139.114 75.6656 139.132 75.6448 139.145C75.624 139.158 75.6004 139.165 75.576 139.167ZM70.8127 138.246C71.0501 138.246 71.2833 138.252 71.5125 138.265C72.7325 138.327 73.945 138.492 75.1371 138.759C74.3883 137.927 72.5161 135.954 71.4173 135.773C70.1406 135.561 67.5011 136.423 67.0131 136.589L66.4944 138.667C67.9198 138.406 69.3639 138.261 70.8127 138.234V138.246Z" fill="#263238"/>
<path d="M89.7613 101.742C94.4566 101.742 98.2628 99.01 98.2628 95.6403C98.2628 92.2705 94.4566 89.5388 89.7613 89.5388C85.066 89.5388 81.2598 92.2705 81.2598 95.6403C81.2598 99.01 85.066 101.742 89.7613 101.742Z" fill="#263238"/>
<path d="M89.7616 101.895C84.989 101.895 81.1035 99.0901 81.1035 95.6404C81.1035 92.1907 84.986 89.3855 89.7616 89.3855C94.5371 89.3855 98.4165 92.1907 98.4165 95.6373C98.4165 99.084 94.5341 101.895 89.7616 101.895ZM89.7616 89.6955C85.1579 89.6955 81.4104 92.3626 81.4104 95.6404C81.4104 98.9183 85.1579 101.588 89.7616 101.588C94.3653 101.588 98.1096 98.9213 98.1096 95.6404C98.1096 92.3595 94.3653 89.6924 89.7616 89.6924V89.6955Z" fill="#263238"/>
<path d="M87.3057 117.269C87.2738 117.268 87.2428 117.257 87.2172 117.238C87.1915 117.219 87.1725 117.193 87.1627 117.162C87.1529 117.132 87.1528 117.099 87.1625 117.069C87.1722 117.038 87.1911 117.011 87.2167 116.992C87.642 116.68 88.0939 116.406 88.5671 116.173C88.6042 116.156 88.6465 116.154 88.6849 116.168C88.7233 116.182 88.7548 116.21 88.7727 116.246C88.7816 116.265 88.7866 116.285 88.7877 116.305C88.7887 116.325 88.7858 116.346 88.7789 116.365C88.7721 116.384 88.7615 116.401 88.7478 116.416C88.7341 116.431 88.7175 116.444 88.6991 116.452C88.2426 116.677 87.8062 116.941 87.3947 117.241C87.3684 117.259 87.3375 117.268 87.3057 117.269Z" fill="#263238"/>
<path d="M79.9032 124.681C79.8677 124.68 79.8332 124.668 79.805 124.647C79.7736 124.621 79.7538 124.583 79.7498 124.542C79.7458 124.502 79.7579 124.461 79.7835 124.429C79.8172 124.389 83.1595 120.286 86.1949 117.787C86.2106 117.774 86.2287 117.765 86.2481 117.759C86.2676 117.753 86.2881 117.75 86.3084 117.752C86.3287 117.754 86.3484 117.76 86.3663 117.77C86.3842 117.78 86.4 117.793 86.4128 117.809C86.4383 117.84 86.4503 117.881 86.4463 117.921C86.4422 117.961 86.4225 117.998 86.3913 118.024C83.3959 120.504 80.0536 124.582 80.0198 124.622C80.0065 124.641 79.9889 124.656 79.9686 124.666C79.9483 124.676 79.9259 124.681 79.9032 124.681Z" fill="#263238"/>
<path d="M80.3384 122.489C80.313 122.49 80.2878 122.485 80.2648 122.474C80.2295 122.454 80.2034 122.421 80.1919 122.382C80.1805 122.343 80.1846 122.301 80.2034 122.265C80.9001 120.957 83.5948 117.499 83.7114 117.354C83.7378 117.326 83.7737 117.309 83.8121 117.307C83.8504 117.304 83.8884 117.316 83.9185 117.339C83.9486 117.363 83.9686 117.398 83.9746 117.436C83.9806 117.474 83.9721 117.513 83.9508 117.545C83.9232 117.581 81.1579 121.129 80.4735 122.412C80.4601 122.436 80.4404 122.456 80.4166 122.469C80.3928 122.483 80.3658 122.49 80.3384 122.489Z" fill="#263238"/>
<path d="M85.1424 107.647C85.1211 107.647 85.1 107.643 85.0805 107.634C85.0609 107.626 85.0434 107.613 85.0289 107.598C84.8453 107.402 84.6722 107.197 84.5102 106.984C84.4858 106.951 84.4753 106.91 84.481 106.87C84.4868 106.83 84.5083 106.793 84.5409 106.769C84.5566 106.756 84.5748 106.747 84.5943 106.741C84.6137 106.736 84.6341 106.734 84.6542 106.737C84.6742 106.74 84.6936 106.746 84.711 106.756C84.7284 106.767 84.7437 106.78 84.7557 106.797C84.9096 107.005 85.0756 107.203 85.2529 107.392C85.2673 107.406 85.2787 107.423 85.2865 107.442C85.2943 107.461 85.2983 107.481 85.2983 107.501C85.2983 107.521 85.2943 107.541 85.2865 107.56C85.2787 107.579 85.2673 107.596 85.2529 107.61C85.2379 107.623 85.2204 107.633 85.2014 107.639C85.1824 107.646 85.1624 107.648 85.1424 107.647Z" fill="#263238"/>
<path d="M84.2493 106.496C84.224 106.496 84.1991 106.489 84.1767 106.478C84.1542 106.466 84.1349 106.449 84.1204 106.428C82.506 104.037 80.6553 99.9124 80.6369 99.8725C80.6231 99.836 80.6237 99.7956 80.6386 99.7595C80.6536 99.7234 80.6818 99.6944 80.7174 99.6783C80.753 99.6623 80.7934 99.6604 80.8303 99.6731C80.8673 99.6858 80.898 99.7122 80.9162 99.7467C80.9346 99.7866 82.7761 103.887 84.3751 106.256C84.3866 106.273 84.3948 106.291 84.399 106.311C84.4033 106.331 84.4036 106.351 84.3998 106.371C84.3961 106.39 84.3885 106.409 84.3774 106.426C84.3663 106.443 84.3519 106.457 84.3352 106.468C84.3099 106.486 84.28 106.495 84.2493 106.496Z" fill="#263238"/>
<path d="M82.171 105.986C82.1459 105.987 82.1212 105.981 82.0991 105.969C82.077 105.957 82.0584 105.94 82.0451 105.919C81.3423 104.866 79.7371 99.7222 79.6665 99.5043C79.655 99.4656 79.6592 99.424 79.6782 99.3884C79.6971 99.3528 79.7293 99.326 79.7678 99.314C79.7872 99.3074 79.8076 99.3048 79.828 99.3063C79.8484 99.3079 79.8682 99.3136 79.8863 99.3231C79.9044 99.3326 79.9203 99.3456 79.9332 99.3615C79.9461 99.3773 79.9556 99.3956 79.9612 99.4153C79.9765 99.4675 81.6216 104.731 82.2999 105.75C82.3221 105.784 82.33 105.825 82.322 105.865C82.3139 105.904 82.2905 105.939 82.2569 105.962C82.2317 105.979 82.2015 105.988 82.171 105.986Z" fill="#263238"/>
<path d="M77.4167 117.545C77.3825 117.545 77.3492 117.534 77.322 117.514C77.2948 117.493 77.2752 117.464 77.2663 117.431C77.1804 117.109 77.0913 116.673 77.0023 116.127C76.997 116.087 77.0074 116.046 77.0315 116.013C77.0555 115.981 77.0913 115.959 77.1312 115.952C77.151 115.949 77.1713 115.949 77.1909 115.953C77.2105 115.958 77.229 115.966 77.2453 115.978C77.2616 115.99 77.2754 116.005 77.2858 116.022C77.2963 116.039 77.3032 116.058 77.3062 116.078C77.3952 116.612 77.4811 117.042 77.564 117.352C77.5737 117.391 77.5679 117.433 77.548 117.468C77.528 117.503 77.4953 117.53 77.4566 117.542L77.4167 117.545Z" fill="#263238"/>
<path d="M77.055 115.593C77.0179 115.593 76.9821 115.579 76.954 115.555C76.9259 115.531 76.9073 115.497 76.9015 115.461C76.3705 111.72 75.9808 105.219 75.9808 105.155C75.9795 105.134 75.9823 105.114 75.9888 105.095C75.9954 105.076 76.0057 105.058 76.0191 105.043C76.0325 105.028 76.0488 105.016 76.0669 105.007C76.0851 104.998 76.1048 104.993 76.125 104.992C76.1453 104.99 76.1656 104.993 76.1849 104.999C76.2042 105.006 76.222 105.016 76.2372 105.029C76.2524 105.043 76.2647 105.059 76.2734 105.078C76.282 105.096 76.2869 105.116 76.2877 105.136C76.2877 105.201 76.6897 111.689 77.2084 115.418C77.2137 115.458 77.2032 115.498 77.1791 115.53C77.155 115.562 77.1192 115.584 77.0795 115.59L77.055 115.593Z" fill="#263238"/>
<path d="M78.0644 151.566H78.0245C74.9001 150.762 72.0397 148.878 70.6125 147.825C70.5939 147.814 70.5777 147.8 70.5651 147.782C70.5525 147.765 70.5437 147.745 70.5393 147.723C70.535 147.702 70.5351 147.681 70.5397 147.659C70.5443 147.638 70.5533 147.619 70.5661 147.601C70.5789 147.584 70.5952 147.569 70.614 147.559C70.6327 147.548 70.6535 147.542 70.675 147.54C70.6965 147.537 70.7181 147.54 70.7385 147.547C70.759 147.554 70.7777 147.565 70.7936 147.579C72.2023 148.617 75.026 150.477 78.1012 151.262C78.1419 151.267 78.179 151.288 78.2043 151.32C78.2297 151.353 78.2412 151.394 78.2363 151.434C78.2314 151.475 78.2105 151.512 78.1783 151.537C78.1461 151.563 78.1051 151.574 78.0644 151.569V151.566Z" fill="#263238"/>
<path d="M70.2539 147.515C70.2206 147.516 70.188 147.505 70.1618 147.484C69.7229 147.15 69.4805 146.938 69.4713 146.929C69.4551 146.916 69.4418 146.9 69.4321 146.881C69.4223 146.863 69.4164 146.843 69.4146 146.822C69.4129 146.802 69.4153 146.781 69.4218 146.761C69.4282 146.742 69.4386 146.723 69.4523 146.708C69.466 146.692 69.4827 146.68 69.5014 146.671C69.5201 146.662 69.5404 146.657 69.5611 146.656C69.5818 146.655 69.6024 146.658 69.6218 146.666C69.6412 146.673 69.6589 146.684 69.6738 146.699C69.6738 146.699 69.9194 146.91 70.349 147.242C70.3804 147.267 70.4009 147.304 70.406 147.344C70.4112 147.384 70.4006 147.424 70.3767 147.457C70.362 147.475 70.3434 147.49 70.3221 147.5C70.3008 147.51 70.2775 147.515 70.2539 147.515Z" fill="#263238"/>
<path d="M63.9681 132.28C63.9681 132.28 63.2192 134.388 62.9368 134.996C62.8109 135.273 62.7705 135.582 62.8208 135.883C62.8711 136.183 63.0098 136.462 63.2192 136.684C63.5936 137.009 64.3425 137.807 65.0914 137.948C65.8402 138.089 66.0766 137.899 66.1686 137.574L66.2638 137.245C66.2638 137.245 67.7615 137.899 68.7928 137.807C69.5106 137.704 70.1981 137.449 70.8092 137.058L72.3438 137.245L73.9366 132.982C73.9366 132.982 71.5949 132.23 70.7048 131.951C69.8148 131.672 66.0674 130.687 65.0361 130.92C64.0049 131.153 63.9681 132.28 63.9681 132.28Z" fill="white"/>
<path d="M65.5276 138.148C65.372 138.145 65.217 138.128 65.0642 138.099C64.389 137.97 63.7445 137.375 63.3178 136.979L63.1183 136.798C62.8853 136.554 62.7313 136.245 62.6765 135.912C62.6218 135.579 62.6688 135.237 62.8114 134.931C63.0723 134.367 63.7537 132.458 63.8304 132.246C63.8457 132.068 63.9839 131.018 65.0243 130.77C66.0647 130.521 69.8613 131.516 70.7728 131.804L74.0046 132.835C74.0245 132.842 74.0429 132.852 74.0587 132.866C74.0745 132.88 74.0874 132.896 74.0967 132.915C74.105 132.934 74.1094 132.954 74.1094 132.975C74.1094 132.996 74.105 133.016 74.0967 133.035L72.5038 137.298C72.4921 137.33 72.4696 137.358 72.4399 137.376C72.4103 137.394 72.3754 137.401 72.3411 137.396L70.8495 137.215C70.2331 137.608 69.5389 137.862 68.8147 137.961C67.9461 138.037 66.7921 137.62 66.3594 137.451L66.3103 137.614C66.2686 137.784 66.1657 137.932 66.0213 138.031C65.8768 138.129 65.701 138.171 65.5276 138.148ZM65.454 131.037C65.3283 131.035 65.2028 131.046 65.0795 131.071C64.1803 131.276 64.125 132.246 64.122 132.298C64.1249 132.313 64.1249 132.329 64.122 132.344C64.0913 132.43 63.3669 134.465 63.0877 135.073C62.9747 135.32 62.9374 135.595 62.9806 135.863C63.0237 136.131 63.1454 136.38 63.3301 136.58L63.5358 136.767C63.9347 137.138 64.5424 137.688 65.1317 137.81C65.9143 137.955 65.9849 137.706 66.031 137.543L66.1261 137.215C66.1325 137.194 66.1432 137.174 66.1574 137.157C66.1717 137.14 66.1892 137.127 66.209 137.117C66.2287 137.108 66.2502 137.103 66.2719 137.103C66.2936 137.103 66.3151 137.108 66.3348 137.117C66.3502 137.117 67.8111 137.758 68.7901 137.666C69.4816 137.565 70.1438 137.318 70.7329 136.942C70.7631 136.92 70.8006 136.911 70.8372 136.917L72.2613 137.089L73.756 133.099L70.6869 132.12C69.7538 131.807 66.7491 131.037 65.454 131.037Z" fill="#263238"/>
<path d="M66.2636 137.399H66.2268L64.4467 136.978C64.4073 136.969 64.3732 136.944 64.3519 136.91C64.3307 136.875 64.3239 136.834 64.3331 136.794C64.3426 136.755 64.3673 136.721 64.4018 136.7C64.4363 136.678 64.4778 136.672 64.5173 136.681L66.2974 137.101C66.3172 137.106 66.3359 137.114 66.3525 137.125C66.3691 137.137 66.3832 137.152 66.3941 137.169C66.4049 137.186 66.4123 137.205 66.4157 137.225C66.4191 137.245 66.4185 137.266 66.414 137.285C66.4047 137.318 66.385 137.347 66.3578 137.367C66.3307 137.388 66.2976 137.399 66.2636 137.399Z" fill="#263238"/>
<path d="M73.6301 133.078C73.6301 133.078 71.7886 135.435 71.7088 136.57C71.629 137.706 72.5835 137.798 73.3692 138.056C74.1549 138.314 77.6905 132.817 77.4327 132.749C77.1749 132.682 74.6091 132.047 73.6301 133.078Z" fill="#263238"/>
<path d="M73.4144 138.218C73.3767 138.219 73.3393 138.213 73.3039 138.2L72.9663 138.096C72.2573 137.89 71.4563 137.657 71.5391 136.561C71.6312 135.395 73.4174 133.084 73.4942 132.985C74.4702 131.973 76.7597 132.445 77.4411 132.617C77.4701 132.627 77.4964 132.643 77.5183 132.664C77.5401 132.685 77.5567 132.711 77.5669 132.74C77.6651 133.124 75.2804 136.73 74.1141 137.819C73.9324 138.027 73.6859 138.168 73.4144 138.218ZM73.7213 133.179C73.6169 133.314 71.9166 135.533 71.8368 136.582C71.7724 137.43 72.3617 137.601 73.043 137.81L73.3929 137.918C73.3929 137.918 73.442 137.918 73.5832 137.844C74.5807 137.23 76.9347 133.596 77.2355 132.875C76.5817 132.715 74.55 132.335 73.7305 133.179H73.7213Z" fill="#263238"/>
<path d="M101.905 109.675C101.905 109.675 95.1838 122.511 93.9592 125.656C92.7346 128.802 92.4768 129.76 92.4768 129.76L92.044 132.378C92.044 132.378 77.3766 132.292 76.327 132.642C75.2773 132.992 71.5238 136.57 73.3591 138.056C75.1944 139.541 81.032 140.849 87.2439 142.509C93.4558 144.169 97.9859 144.691 99.0294 142.856C100.073 141.021 109.333 123.471 111.082 117.535C112.831 111.6 116.662 107.493 114.479 104.086C112.297 100.68 104.014 100.434 102.866 100.594" fill="#84041C"/>
<path d="M95.7863 144.166C93.7975 144.166 90.9647 143.663 87.1927 142.656C86.1093 142.365 85.0443 142.085 83.9946 141.815C79.0564 140.529 74.7872 139.418 73.2526 138.172C73.0269 137.994 72.8578 137.754 72.7657 137.482C72.6736 137.21 72.6626 136.916 72.7339 136.638C73.0409 134.91 75.4593 132.755 76.2696 132.485C77.2886 132.148 90.3539 132.206 91.9069 132.215L92.3212 129.726C92.3212 129.671 92.6036 128.704 93.8159 125.589C95.0282 122.474 101.701 109.724 101.768 109.595C101.789 109.564 101.821 109.542 101.858 109.533C101.894 109.524 101.932 109.529 101.966 109.546C101.999 109.564 102.025 109.593 102.038 109.628C102.051 109.663 102.051 109.702 102.038 109.737C101.974 109.866 95.3075 122.603 94.1013 125.696C92.8951 128.79 92.6251 129.775 92.622 129.784L92.1892 132.39C92.1827 132.426 92.1637 132.458 92.1356 132.481C92.1075 132.504 92.0721 132.516 92.0358 132.516C86.9717 132.488 77.1781 132.5 76.3678 132.771C75.5576 133.041 73.3202 135.118 73.0378 136.687C72.9795 136.909 72.987 137.143 73.0595 137.361C73.132 137.579 73.2663 137.771 73.446 137.914C74.9345 139.118 79.1699 140.219 84.0744 141.496C85.1179 141.769 86.1891 142.049 87.2725 142.337C94.1934 144.179 97.993 144.326 98.8892 142.761C99.9879 140.836 109.183 123.388 110.926 117.471C111.52 115.586 112.256 113.748 113.127 111.974C114.588 108.816 115.742 106.324 114.355 104.148C112.237 100.848 104.048 100.548 102.894 100.726C102.854 100.731 102.814 100.721 102.781 100.697C102.748 100.672 102.726 100.637 102.719 100.597C102.716 100.577 102.717 100.556 102.722 100.537C102.727 100.517 102.736 100.499 102.748 100.483C102.76 100.466 102.775 100.453 102.792 100.442C102.809 100.432 102.828 100.425 102.848 100.422C104.076 100.232 112.381 100.502 114.612 103.982C116.098 106.299 114.919 108.862 113.409 112.103C112.547 113.864 111.816 115.687 111.224 117.557C109.478 123.499 100.261 140.987 99.1623 142.911C98.6897 143.755 97.5848 144.166 95.7863 144.166Z" fill="#263238"/>
<path d="M101.768 121.522C101.728 121.53 101.686 121.521 101.651 121.498C101.617 121.475 101.593 121.439 101.586 121.398C101.578 121.357 101.587 121.315 101.61 121.281C101.633 121.247 101.669 121.223 101.71 121.215C104.297 120.156 107.947 117.336 109.892 115.749C109.908 115.734 109.926 115.722 109.946 115.714C109.966 115.707 109.987 115.703 110.009 115.704C110.03 115.705 110.051 115.711 110.07 115.721C110.089 115.73 110.106 115.744 110.12 115.76C110.133 115.777 110.143 115.796 110.149 115.817C110.155 115.838 110.156 115.859 110.153 115.881C110.15 115.902 110.142 115.922 110.13 115.94C110.119 115.958 110.104 115.974 110.086 115.986C108.128 117.585 104.448 120.424 101.827 121.51C101.808 121.517 101.788 121.521 101.768 121.522Z" fill="#263238"/>
<path d="M110.727 115.396C110.704 115.396 110.682 115.392 110.662 115.382C110.642 115.372 110.624 115.358 110.61 115.341C110.584 115.31 110.571 115.269 110.575 115.228C110.578 115.188 110.597 115.15 110.628 115.123C111.294 114.577 111.699 114.23 111.703 114.23C111.734 114.209 111.771 114.2 111.808 114.205C111.846 114.21 111.88 114.229 111.904 114.257C111.929 114.285 111.942 114.322 111.942 114.359C111.941 114.397 111.927 114.433 111.902 114.46C111.902 114.46 111.494 114.813 110.825 115.36C110.798 115.383 110.763 115.396 110.727 115.396Z" fill="#263238"/>
<path d="M100.675 122.532C100.644 122.531 100.614 122.521 100.588 122.503C100.562 122.485 100.542 122.46 100.531 122.431C100.517 122.393 100.519 122.351 100.535 122.315C100.552 122.278 100.582 122.249 100.62 122.235C102.504 121.516 105.224 120.157 105.257 120.141C105.276 120.133 105.295 120.127 105.315 120.126C105.336 120.125 105.356 120.127 105.375 120.134C105.394 120.141 105.412 120.151 105.427 120.164C105.442 120.178 105.454 120.194 105.463 120.212C105.48 120.248 105.483 120.29 105.471 120.328C105.458 120.367 105.431 120.399 105.396 120.418C105.368 120.418 102.633 121.796 100.727 122.52C100.711 122.527 100.693 122.532 100.675 122.532Z" fill="#263238"/>
<path d="M92.385 140.744C92.3464 140.744 92.3092 140.73 92.2807 140.704C92.0461 140.472 91.84 140.212 91.6668 139.931C91.6449 139.897 91.6375 139.855 91.6461 139.815C91.6547 139.776 91.6787 139.741 91.7129 139.719C91.7297 139.708 91.7486 139.7 91.7685 139.696C91.7883 139.692 91.8088 139.693 91.8285 139.697C91.8483 139.701 91.867 139.71 91.8835 139.721C91.9 139.733 91.914 139.748 91.9246 139.765C92.0888 140.026 92.2835 140.266 92.5047 140.48C92.519 140.494 92.5303 140.511 92.5381 140.529C92.5458 140.548 92.5498 140.568 92.5498 140.588C92.5498 140.608 92.5458 140.627 92.5381 140.646C92.5303 140.664 92.519 140.681 92.5047 140.695C92.4897 140.712 92.4711 140.725 92.4504 140.733C92.4297 140.742 92.4074 140.745 92.385 140.744Z" fill="#263238"/>
<path d="M91.182 138.881C91.1527 138.882 91.1239 138.874 91.0993 138.858C91.0747 138.842 91.0554 138.819 91.0438 138.792C90.3518 137.145 89.8174 135.436 89.4479 133.688C89.4406 133.649 89.4489 133.608 89.4713 133.574C89.4936 133.54 89.5281 133.516 89.5676 133.507C89.5874 133.503 89.6079 133.502 89.6278 133.506C89.6477 133.51 89.6667 133.517 89.6837 133.529C89.7006 133.54 89.7151 133.554 89.7262 133.571C89.7374 133.588 89.745 133.607 89.7487 133.627C90.1142 135.353 90.6413 137.04 91.3231 138.667C91.3389 138.704 91.3398 138.746 91.3255 138.783C91.3112 138.821 91.2829 138.852 91.2464 138.869C91.226 138.878 91.2041 138.882 91.182 138.881Z" fill="#263238"/>
<path d="M87.8489 139.059C87.8185 139.06 87.7888 139.051 87.7636 139.034C87.7384 139.017 87.7189 138.992 87.7077 138.964C87.3763 138.169 87.3087 134.974 87.3057 134.827C87.3056 134.786 87.3213 134.748 87.3493 134.718C87.3774 134.689 87.4156 134.672 87.4561 134.67C87.4761 134.67 87.4959 134.674 87.5145 134.681C87.5331 134.688 87.5501 134.699 87.5644 134.713C87.5787 134.727 87.59 134.744 87.5978 134.763C87.6055 134.781 87.6095 134.801 87.6095 134.821C87.6095 134.855 87.6801 138.105 87.987 138.848C87.995 138.866 87.9992 138.886 87.9993 138.906C87.9995 138.926 87.9956 138.946 87.9878 138.965C87.9801 138.983 87.9687 139 87.9543 139.014C87.94 139.029 87.9229 139.04 87.9041 139.047C87.8869 139.055 87.868 139.059 87.8489 139.059Z" fill="#263238"/>
<path d="M93.1709 134.087L101.838 137.666L102.845 136.266L93.1709 134.087Z" fill="#263238"/>
<path d="M101.838 137.819C101.819 137.824 101.799 137.824 101.78 137.819L93.1094 134.241C93.0739 134.226 93.0453 134.199 93.0293 134.164C93.0134 134.129 93.0113 134.09 93.0235 134.054C93.0349 134.017 93.0599 133.985 93.0935 133.966C93.1271 133.946 93.1668 133.941 93.2045 133.949L102.878 136.131C102.903 136.137 102.927 136.148 102.946 136.165C102.965 136.181 102.98 136.203 102.989 136.227C102.997 136.25 103 136.276 102.997 136.301C102.994 136.326 102.985 136.35 102.971 136.371L101.964 137.767C101.948 137.785 101.929 137.799 101.907 137.808C101.885 137.817 101.862 137.821 101.838 137.819ZM94.8956 134.634L101.786 137.479L102.584 136.368L94.8956 134.634Z" fill="#263238"/>
<path d="M91.9555 128.087C91.9555 128.087 97.0717 127.449 97.7101 126.808C98.3485 126.166 100.27 124.426 100.85 124.309C101.43 124.193 104.161 124.831 104.803 124.831C105.444 124.831 106.371 123.671 107.068 123.729C107.765 123.787 108.115 124.65 107.881 125.356C107.648 126.062 106.313 126.808 106.021 126.866C105.765 126.928 105.513 127.006 105.266 127.099C106.345 127.295 107.412 127.547 108.464 127.854C109.219 128.161 109.219 128.842 108.928 129.539C108.636 130.236 108.348 130.644 108.007 130.877C107.601 131.25 107.231 131.662 106.902 132.105C106.902 132.105 107.194 133.093 106.73 133.732C106.436 134.165 106.084 134.556 105.684 134.895C105.45 135.067 105.96 135.165 105.454 135.772C105.098 136.196 105.052 136.365 103.357 136.638C102.814 136.724 100.567 136.288 98.9992 135.766C97.4308 135.245 94.7024 134.603 94.7024 134.603L90.9795 133.732L91.9555 128.087Z" fill="white"/>
<path d="M103.173 136.794C102.378 136.794 100.365 136.38 98.9407 135.904C97.4061 135.389 94.6807 134.753 94.6439 134.747L90.9333 133.888C90.895 133.878 90.8617 133.855 90.8401 133.822C90.8184 133.789 90.8101 133.749 90.8166 133.71L91.8049 128.056C91.811 128.024 91.827 127.995 91.8507 127.972C91.8744 127.95 91.9045 127.935 91.9369 127.931C93.9717 127.676 97.1544 127.139 97.6025 126.703C97.9923 126.313 100.122 124.3 100.819 124.162C101.187 124.088 102.231 124.272 103.241 124.45C103.756 124.557 104.278 124.633 104.803 124.68C105.057 124.68 105.417 124.426 105.766 124.177C106.205 123.87 106.66 123.545 107.08 123.563C107.239 123.578 107.393 123.63 107.53 123.714C107.666 123.798 107.781 123.912 107.866 124.048C107.99 124.246 108.07 124.47 108.098 124.702C108.126 124.935 108.102 125.17 108.028 125.392C107.768 126.175 106.35 126.945 106.052 127.004L105.871 127.05C106.766 127.214 107.65 127.432 108.519 127.7C108.663 127.748 108.795 127.824 108.908 127.925C109.02 128.026 109.111 128.149 109.173 128.287C109.244 128.499 109.272 128.724 109.254 128.948C109.236 129.172 109.173 129.389 109.069 129.588C108.762 130.303 108.455 130.736 108.084 130.994C107.704 131.332 107.362 131.71 107.062 132.12C107.123 132.378 107.273 133.213 106.844 133.802C106.543 134.248 106.181 134.65 105.77 134.996V135.023C105.843 135.211 105.892 135.444 105.552 135.852L105.493 135.923C105.137 136.355 104.935 136.518 103.363 136.77C103.301 136.783 103.237 136.791 103.173 136.794ZM91.145 133.609L94.7237 134.446C94.7513 134.446 97.4859 135.094 99.0389 135.613C100.592 136.131 102.838 136.558 103.336 136.478C104.87 136.233 104.99 136.088 105.278 135.742L105.337 135.665C105.588 135.358 105.545 135.247 105.506 135.146C105.47 135.083 105.459 135.009 105.476 134.939C105.492 134.868 105.535 134.806 105.595 134.766C105.985 134.439 106.326 134.058 106.607 133.633C107.022 133.065 106.761 132.151 106.758 132.142C106.752 132.118 106.751 132.093 106.756 132.069C106.76 132.045 106.771 132.023 106.785 132.003C107.123 131.547 107.505 131.127 107.927 130.748C108.256 130.53 108.541 130.134 108.799 129.481C108.966 129.152 109.003 128.773 108.903 128.419C108.856 128.319 108.789 128.23 108.707 128.158C108.624 128.085 108.526 128.031 108.421 127.998C107.375 127.695 106.313 127.445 105.242 127.249C105.208 127.243 105.178 127.227 105.155 127.202C105.133 127.177 105.119 127.145 105.116 127.111C105.114 127.078 105.122 127.044 105.141 127.016C105.159 126.988 105.186 126.966 105.217 126.955C105.472 126.859 105.732 126.78 105.997 126.715C106.264 126.663 107.531 125.933 107.74 125.307C107.798 125.128 107.817 124.94 107.795 124.754C107.773 124.567 107.71 124.388 107.611 124.229C107.552 124.132 107.471 124.051 107.376 123.99C107.28 123.929 107.171 123.891 107.059 123.879C106.752 123.858 106.34 124.143 105.948 124.426C105.555 124.708 105.159 124.984 104.806 124.984C104.262 124.939 103.722 124.861 103.188 124.751C102.298 124.591 101.193 124.395 100.883 124.444C100.395 124.542 98.6061 126.12 97.8143 126.899C97.2005 127.513 92.965 128.093 92.0811 128.207L91.145 133.609Z" fill="#263238"/>
<path d="M105.496 134.861C105.467 134.861 105.438 134.853 105.414 134.837C105.389 134.821 105.37 134.798 105.358 134.772C105.165 134.357 105.561 133.823 105.665 133.71L105.938 133.096C106.089 132.718 106.125 132.303 106.039 131.905C106.032 131.873 106.035 131.839 106.048 131.809C106.061 131.778 106.084 131.753 106.113 131.736C106.417 131.557 106.687 131.324 106.908 131.049C107.157 130.714 107.172 129.751 107.16 129.407C107.158 129.366 107.172 129.326 107.199 129.296C107.227 129.266 107.265 129.248 107.305 129.246C107.346 129.244 107.386 129.258 107.416 129.285C107.446 129.313 107.465 129.351 107.467 129.392C107.467 129.53 107.513 130.751 107.16 131.233C106.939 131.517 106.67 131.759 106.365 131.948C106.441 132.38 106.392 132.824 106.224 133.228L105.941 133.842C105.936 133.854 105.929 133.866 105.92 133.876C105.818 134.001 105.548 134.403 105.653 134.631C105.661 134.649 105.667 134.668 105.668 134.688C105.669 134.708 105.666 134.729 105.659 134.747C105.652 134.766 105.641 134.784 105.628 134.798C105.614 134.813 105.597 134.825 105.579 134.833C105.556 134.852 105.526 134.862 105.496 134.861Z" fill="#263238"/>
<path d="M88.4111 127.406L92.0327 127.98L90.9831 133.698L88.7917 133.222L88.4111 127.406Z" fill="#263238"/>
<path d="M90.9826 133.851H90.9519L88.7574 133.375C88.7246 133.369 88.695 133.351 88.6733 133.325C88.6516 133.3 88.6391 133.268 88.6377 133.234L88.2572 127.418C88.2557 127.395 88.2593 127.373 88.2678 127.351C88.2763 127.33 88.2894 127.311 88.3063 127.295C88.3228 127.28 88.3429 127.268 88.3648 127.262C88.3866 127.256 88.4097 127.254 88.4321 127.259L92.0445 127.826C92.0853 127.834 92.1217 127.857 92.1458 127.891C92.1579 127.907 92.1663 127.925 92.1706 127.945C92.1748 127.965 92.1747 127.985 92.1703 128.004L91.1237 133.725C91.1155 133.767 91.0912 133.803 91.0562 133.827C91.0344 133.841 91.0089 133.85 90.9826 133.851ZM88.9354 133.096L90.8629 133.517L91.8542 128.106L88.5764 127.587L88.9354 133.096Z" fill="#263238"/>
<path d="M75.7291 97.0859C75.7291 97.0859 70.9597 94.7964 67.909 95.9411C64.8582 97.0859 64.668 103.568 64.5728 104.424C64.4777 105.281 61.1384 126.927 60.7579 130.454C60.3773 133.98 78.4944 135.699 82.5917 135.604C86.689 135.509 88.506 134.269 88.7914 133.219C89.0768 132.169 90.5071 127.784 89.5526 127.213C88.5981 126.642 71.5336 123.017 71.5336 123.017L70.5791 121.872C70.5791 121.872 72.6784 109.289 73.059 107.285" fill="#84041C"/>
<path d="M82.2385 135.763C78 135.763 63.6517 134.394 61.0307 131.543C60.8834 131.402 60.7691 131.23 60.6959 131.04C60.6227 130.849 60.5924 130.645 60.6072 130.441C60.865 128.047 62.464 117.437 63.5259 110.415C64.0262 107.088 64.3883 104.685 64.419 104.412C64.419 104.332 64.4374 104.209 64.4497 104.044C64.5848 102.27 64.993 96.8711 67.8565 95.7969C70.9256 94.6429 75.5968 96.8527 75.7933 96.9479C75.8297 96.9652 75.8579 96.9961 75.8716 97.034C75.8854 97.0719 75.8837 97.1138 75.8669 97.1504C75.8584 97.1688 75.8462 97.1854 75.8312 97.1991C75.8162 97.2128 75.7986 97.2234 75.7795 97.2302C75.7604 97.2371 75.7401 97.2401 75.7198 97.239C75.6995 97.238 75.6796 97.2329 75.6613 97.2241C75.6153 97.2026 70.9164 94.9775 67.9639 96.0854C66.1869 96.7514 65.1065 99.4369 64.7566 104.065C64.7566 104.234 64.7321 104.372 64.7259 104.443C64.6922 104.722 64.33 107.128 63.8267 110.458C62.7678 117.477 61.1688 128.084 60.911 130.472C60.9023 130.632 60.9289 130.792 60.9888 130.94C61.0487 131.089 61.1406 131.222 61.2578 131.331C63.8482 134.152 79.0312 135.53 82.5884 135.45C86.6273 135.355 88.3737 134.167 88.6438 133.179C88.6775 133.053 88.7266 132.872 88.785 132.679C89.141 131.467 90.2152 127.787 89.4755 127.345C88.7358 126.903 77.3954 124.42 71.4995 123.168C71.4658 123.161 71.4354 123.142 71.4136 123.115L70.4622 121.971C70.4473 121.954 70.4365 121.935 70.4307 121.913C70.4248 121.892 70.424 121.869 70.4284 121.848C70.4499 121.722 72.5308 109.237 72.9083 107.257C72.9116 107.237 72.9189 107.218 72.9297 107.201C72.9405 107.184 72.9546 107.169 72.9712 107.158C72.9879 107.147 73.0066 107.139 73.0264 107.134C73.0461 107.13 73.0665 107.13 73.0863 107.134C73.1261 107.142 73.1614 107.165 73.1844 107.198C73.2073 107.231 73.2162 107.272 73.2091 107.312C72.8469 109.215 70.9103 120.817 70.7537 121.829L71.6284 122.879C72.8561 123.137 88.6959 126.513 89.6443 127.081C90.473 127.578 89.8684 130.107 89.0919 132.765C89.0336 132.967 88.9844 133.136 88.9507 133.259C88.6438 134.352 86.8023 135.659 82.6098 135.757L82.2385 135.763Z" fill="#263238"/>
<path d="M65.1437 124.033C65.117 124.032 65.0909 124.025 65.0678 124.012C65.0447 123.998 65.0254 123.979 65.0118 123.956C65.0014 123.939 64.9946 123.92 64.9917 123.9C64.9889 123.88 64.9901 123.86 64.9952 123.84C65.0004 123.821 65.0094 123.802 65.0217 123.786C65.0341 123.771 65.0495 123.757 65.067 123.747C65.2828 123.626 65.5087 123.523 65.7422 123.44C65.7608 123.433 65.7806 123.429 65.8005 123.43C65.8205 123.43 65.8402 123.434 65.8584 123.442C65.8767 123.45 65.8932 123.462 65.907 123.476C65.9208 123.491 65.9315 123.508 65.9387 123.526C65.9529 123.564 65.952 123.606 65.9359 123.643C65.9199 123.681 65.8901 123.71 65.8527 123.726C65.6397 123.81 65.4343 123.913 65.2389 124.033C65.2077 124.041 65.1749 124.041 65.1437 124.033Z" fill="#263238"/>
<path d="M66.8776 123.407C66.8422 123.407 66.8079 123.394 66.7805 123.372C66.7531 123.35 66.7343 123.319 66.7272 123.284C66.7199 123.244 66.7282 123.203 66.7506 123.169C66.7729 123.135 66.8074 123.112 66.8469 123.103C68.3968 122.825 69.9758 122.745 71.5458 122.867C71.5862 122.87 71.6235 122.89 71.6499 122.921C71.6762 122.952 71.6895 122.992 71.6869 123.032C71.6823 123.073 71.6622 123.11 71.6308 123.137C71.5993 123.163 71.559 123.176 71.5181 123.173C69.9801 123.054 68.4332 123.13 66.9144 123.401L66.8776 123.407Z" fill="#263238"/>
<path d="M69.64 121.838C69.6197 121.842 69.5988 121.842 69.5786 121.838C67.7371 121.007 64.6373 121.369 64.6066 121.372C64.5864 121.374 64.566 121.373 64.5464 121.367C64.5269 121.362 64.5086 121.353 64.4927 121.34C64.4767 121.327 64.4634 121.312 64.4534 121.294C64.4435 121.277 64.4371 121.257 64.4347 121.237C64.4323 121.217 64.4339 121.196 64.4393 121.177C64.4448 121.157 64.4541 121.139 64.4666 121.123C64.4792 121.107 64.4947 121.094 64.5124 121.084C64.5301 121.074 64.5496 121.067 64.5697 121.065C64.6986 121.05 67.7801 120.691 69.7044 121.556C69.7414 121.573 69.7702 121.604 69.7846 121.641C69.799 121.679 69.7978 121.722 69.7811 121.759C69.7671 121.784 69.7466 121.804 69.7217 121.818C69.6968 121.832 69.6685 121.839 69.64 121.838Z" fill="#263238"/>
<path d="M83.6992 98.249C83.6992 98.249 87.6185 100.446 90.5802 99.7835C93.542 99.1206 93.2719 92.1475 93.2719 92.1475L90.8841 90.5239L83.6992 98.249Z" fill="white"/>
<path d="M89.3562 100.06C86.6492 100.06 83.7642 98.4607 83.6261 98.384C83.6056 98.3728 83.588 98.357 83.5747 98.3378C83.5614 98.3186 83.5527 98.2966 83.5494 98.2735C83.5452 98.2506 83.5463 98.2271 83.5527 98.2047C83.5591 98.1823 83.5705 98.1618 83.5862 98.1446L90.7557 90.4042C90.7809 90.3773 90.8149 90.3603 90.8515 90.3564C90.8881 90.3524 90.925 90.3618 90.9552 90.3827L93.343 92.0063C93.3627 92.0198 93.3789 92.0376 93.3906 92.0583C93.4023 92.0791 93.4092 92.1022 93.4106 92.126C93.4106 92.4176 93.6684 99.2372 90.6146 99.9278C90.2013 100.018 89.7793 100.063 89.3562 100.06ZM83.9484 98.2182C84.7341 98.6264 88.0242 100.21 90.547 99.6423C93.1896 99.0439 93.1251 92.9823 93.1067 92.2273L90.8908 90.7203L83.9484 98.2182Z" fill="#263238"/>
<path d="M90.8166 92.8413L87.7106 93.9278L83.7207 98.2491C84.5079 98.6696 85.3293 99.0228 86.176 99.3049L90.8166 92.8413Z" fill="#263238"/>
<path d="M86.152 99.4581C86.1358 99.4614 86.1191 99.4614 86.1029 99.4581C85.2499 99.1707 84.4216 98.8146 83.6261 98.3931C83.6056 98.382 83.588 98.3661 83.5747 98.347C83.5614 98.3278 83.5527 98.3058 83.5494 98.2827C83.5452 98.2598 83.5463 98.2362 83.5527 98.2139C83.5591 98.1915 83.5705 98.1709 83.5862 98.1538L87.5761 93.8324C87.5933 93.8146 87.6143 93.801 87.6375 93.7925L90.7435 92.706C90.7747 92.6952 90.8086 92.6947 90.8401 92.7046C90.8716 92.7146 90.8991 92.7344 90.9184 92.7613C90.9381 92.7874 90.9487 92.8191 90.9487 92.8518C90.9487 92.8845 90.9381 92.9163 90.9184 92.9424L86.2748 99.3937C86.2612 99.4137 86.2429 99.43 86.2215 99.4413C86.2001 99.4525 86.1762 99.4583 86.152 99.4581ZM83.9484 98.2059C84.6414 98.5641 85.3594 98.8718 86.0968 99.1267L90.3936 93.151L87.7848 94.0718L83.9484 98.2059Z" fill="#263238"/>
<path d="M78.1761 68.319C78.1761 68.319 70.5922 75.0711 70.5032 80.574C70.4142 86.077 73.9499 91.9851 73.9499 91.9851C73.9499 91.9851 70.1196 98.4303 70.0428 99.4155C69.9661 100.401 72.3416 102.632 72.5718 102.632C72.802 102.632 75.0977 100.717 75.0977 100.717L73.7964 103.55L77.7034 105.618C77.7034 105.618 79.5449 98.6513 80.5362 96.4292C80.5362 96.4292 76.3254 88.6152 76.0185 85.5522C75.7115 82.4892 75.865 79.6564 76.7059 78.2016C77.5469 76.7468 81.6166 74.6782 81.8376 74.5186C82.0585 74.359 87.2761 78.6528 88.1201 82.2529C88.9641 85.853 91.8031 92.2214 91.8031 92.2214C91.8031 92.2214 90.5109 99.1853 89.8971 101.024C89.2833 102.862 87.2147 104.931 87.2147 104.931C87.2147 104.931 90.2838 106.079 91.5115 106.309C92.0171 106.421 92.5298 106.498 93.0461 106.539C93.0461 106.539 94.8875 103.47 95.0349 103.246C95.1822 103.022 95.1883 106.315 95.1883 106.315C97.4968 106.058 99.7336 105.355 101.775 104.246C103.774 103.166 105.584 101.769 107.136 100.109C107.136 100.109 109.205 99.1884 110.206 96.1193C111.206 93.0501 109.058 89.9165 106.523 86.9272C103.988 83.9378 103.076 83.0232 102.226 78.5791C101.376 74.135 99.8534 69.4668 95.7162 66.634C91.579 63.8012 85.9072 63.7245 83.145 65.256C80.3828 66.7875 78.1761 68.319 78.1761 68.319Z" fill="#263238"/>
<path d="M93.0333 106.692C92.5077 106.651 91.9857 106.573 91.4711 106.459C90.2435 106.229 87.2848 105.121 87.1743 105.072C87.1501 105.063 87.1285 105.048 87.1113 105.029C87.0942 105.009 87.0821 104.986 87.0761 104.961C87.0716 104.936 87.0732 104.91 87.0806 104.885C87.0881 104.861 87.1013 104.838 87.1191 104.82C87.1375 104.802 89.1692 102.758 89.7616 100.974C90.3386 99.2465 91.5632 92.8626 91.6798 92.2457C91.4251 91.6718 88.7948 85.7085 87.9968 82.2956C87.2081 78.9195 82.5338 74.9296 81.8985 74.681L81.6314 74.8314C80.6278 75.3839 77.5679 77.0658 76.8681 78.2781C76.11 79.5825 75.8676 82.2281 76.1991 85.5366C76.506 88.5352 80.6554 96.2786 80.6984 96.3553C80.7089 96.3763 80.7144 96.3994 80.7144 96.4228C80.7144 96.4463 80.7089 96.4694 80.6984 96.4904C79.7132 98.6756 77.8902 105.587 77.8717 105.658C77.8661 105.68 77.8555 105.701 77.8406 105.719C77.8257 105.736 77.8069 105.75 77.7858 105.759C77.7647 105.769 77.7416 105.774 77.7183 105.774C77.6949 105.774 77.6719 105.769 77.6508 105.759L73.7468 103.694C73.7122 103.675 73.686 103.644 73.6734 103.607C73.6609 103.57 73.663 103.53 73.6793 103.494L74.7013 101.269C73.4737 102.279 72.7585 102.804 72.5928 102.804C72.2859 102.804 71.2178 101.643 71.2056 101.634C70.7022 101.088 69.8613 100.075 69.9135 99.4214C69.9871 98.4516 73.3355 92.7736 73.7928 92.0033C73.3754 91.2759 70.3002 85.7392 70.3708 80.5891C70.4475 75.0647 77.7705 68.4998 78.0804 68.2236H78.0958C78.1173 68.2236 80.3547 66.6706 83.0862 65.1544C85.9282 63.5738 91.6 63.6567 95.8078 66.5386C100.178 69.5341 101.618 74.5491 102.382 78.585C103.18 82.7866 104.03 83.7872 106.304 86.4665L106.639 86.8625C109.168 89.8518 111.365 93.0499 110.343 96.1988C109.392 99.1237 107.504 100.127 107.228 100.259C105.664 101.917 103.847 103.317 101.845 104.406C99.7828 105.52 97.5261 106.229 95.197 106.493C95.1757 106.494 95.1542 106.491 95.1341 106.484C95.114 106.476 95.0957 106.465 95.0804 106.45C95.0649 106.436 95.0525 106.419 95.044 106.4C95.0355 106.381 95.0312 106.36 95.0313 106.339C95.0313 105.317 95.0098 104.212 94.9699 103.669C94.4635 104.495 93.1898 106.622 93.1745 106.646C93.1564 106.665 93.1342 106.679 93.1096 106.687C93.085 106.695 93.0588 106.697 93.0333 106.692ZM87.4843 104.866C88.2086 105.133 90.5197 105.968 91.5294 106.158C92.3888 106.318 92.7908 106.364 92.9474 106.379C93.2543 105.885 94.7551 103.371 94.8963 103.16C94.9177 103.131 94.947 103.108 94.9807 103.095C95.0144 103.082 95.0511 103.079 95.0866 103.086C95.2093 103.123 95.326 103.16 95.329 106.14C97.5563 105.863 99.7133 105.178 101.691 104.117C103.671 103.042 105.466 101.657 107.01 100.017C107.023 99.9987 107.041 99.9848 107.062 99.9769C107.081 99.9769 109.082 99.0408 110.042 96.0852C111.018 93.0805 108.867 89.947 106.393 87.0435L106.059 86.6231C103.748 83.8977 102.885 82.8787 102.069 78.6003C101.314 74.6104 99.899 69.6814 95.6237 66.7504C91.6338 64.0219 85.9958 63.8378 83.2243 65.3785C80.5849 66.8424 78.415 68.3279 78.2677 68.4292C78.0006 68.6686 70.739 75.2519 70.6654 80.5646C70.5917 85.9724 74.0568 91.8375 74.0906 91.8959C74.104 91.9198 74.1111 91.9467 74.1111 91.9741C74.1111 92.0015 74.104 92.0285 74.0906 92.0524C73.0317 93.8325 70.2664 98.6265 70.205 99.4183C70.1406 100.275 72.2092 102.273 72.5836 102.463C73.4279 101.887 74.2375 101.262 75.0082 100.591C75.0348 100.568 75.0685 100.555 75.1036 100.553C75.1387 100.552 75.1732 100.563 75.2012 100.584C75.2292 100.606 75.2491 100.636 75.2576 100.67C75.266 100.704 75.2625 100.74 75.2476 100.772L74.0046 103.473L77.6201 105.394C77.927 104.258 79.4616 98.5252 80.3823 96.4351C79.9465 95.6187 76.1776 88.5106 75.8829 85.5673C75.6865 83.5877 75.5146 79.9876 76.5919 78.1246C77.3377 76.8356 80.4529 75.123 81.4749 74.5613L81.7818 74.3956C81.8146 74.3789 81.8509 74.3702 81.8877 74.3702C81.9245 74.3702 81.9608 74.3789 81.9936 74.3956C82.7854 74.7025 87.518 78.8551 88.2945 82.2311C89.1263 85.7729 91.9499 92.1076 91.9775 92.1721C91.9867 92.2021 91.9867 92.2342 91.9775 92.2642C91.9223 92.5465 90.6486 99.2495 90.0409 101.079C89.5161 102.638 87.9938 104.329 87.4843 104.866Z" fill="#263238"/>
<path d="M81.886 71.6826C81.886 71.6826 76.0546 76.1728 75.1952 77.2255C74.3359 78.2782 75.0049 80.5678 74.8116 83.5326C74.6182 86.4974 76.1497 89.6494 77.0091 91.2729C77.8685 92.8965 80.1642 97.9637 81.886 98.332C83.6077 98.7003 83.6998 98.2368 83.6998 98.2368C83.6998 98.2368 90.0069 95.2751 91.8238 92.2152C91.8238 92.2152 90.676 85.5275 90.1021 82.9464C89.5281 80.3652 89.2427 79.6961 89.2427 79.6961C89.2427 79.6961 86.0907 75.4914 84.6574 74.1533C83.2241 72.8151 81.886 71.6826 81.886 71.6826Z" fill="white"/>
<path d="M82.9961 98.648C82.6101 98.6373 82.2264 98.5859 81.8513 98.4946C80.3167 98.1508 78.4384 94.4433 77.3243 92.2274C77.1494 91.8775 76.9959 91.5767 76.8731 91.3435C75.2434 88.2743 74.5191 85.7024 74.6572 83.5202C74.7093 82.512 74.7021 81.5015 74.6357 80.4941C74.5621 79.0025 74.5038 77.827 75.0746 77.118C75.9371 76.0653 81.5505 71.7347 81.7899 71.5506C81.817 71.5278 81.8512 71.5154 81.8866 71.5154C81.9219 71.5154 81.9562 71.5278 81.9833 71.5506C81.9833 71.5506 83.3398 72.7138 84.7608 74.0396C86.1818 75.3655 89.2356 79.4291 89.3645 79.6009C89.3728 79.6097 89.3791 79.6202 89.383 79.6316C89.383 79.6623 89.6899 80.3437 90.2515 82.9095C90.8132 85.4753 91.961 92.1169 91.9733 92.1875C91.9795 92.2234 91.973 92.2603 91.9549 92.2918C90.1994 95.2444 84.4539 98.0434 83.8155 98.3503C83.7797 98.4039 83.7325 98.4489 83.6774 98.4823C83.4713 98.6026 83.2345 98.6602 82.9961 98.648ZM81.8789 71.8912C81.1086 72.4867 76.0905 76.3814 75.314 77.3328C74.8168 77.9467 74.8721 79.0669 74.9426 80.491C75.0093 81.5128 75.0165 82.5375 74.9641 83.5601C74.8291 85.684 75.5411 88.1884 77.1463 91.233C77.2691 91.4662 77.4225 91.7701 77.5975 92.12C78.6164 94.1456 80.5131 97.9145 81.9157 98.2245C83.3183 98.5345 83.5516 98.2245 83.5547 98.2245C83.5588 98.2035 83.5683 98.184 83.5823 98.1679C83.5963 98.1517 83.6143 98.1395 83.6345 98.1324C83.6958 98.1017 89.8525 95.186 91.6633 92.2182C91.5498 91.5675 90.4909 85.4354 89.9538 83.0108C89.7421 81.9243 89.4591 80.8529 89.1067 79.8035C88.8919 79.5181 85.9148 75.5681 84.5491 74.2975C83.3521 73.1588 82.2227 72.1644 81.8789 71.8912Z" fill="#263238"/>
<path d="M77.4449 85.865C77.4088 85.8649 77.3739 85.8518 77.3467 85.8282C77.3155 85.8024 77.2958 85.7654 77.2918 85.7252C77.2878 85.6849 77.2998 85.6447 77.3252 85.6133C77.5738 85.3064 78.2091 84.8399 78.8598 85.1898C78.8778 85.1991 78.8938 85.212 78.9068 85.2277C78.9197 85.2434 78.9294 85.2615 78.9351 85.281C78.9409 85.3005 78.9426 85.321 78.9402 85.3412C78.9378 85.3614 78.9313 85.3809 78.9212 85.3985C78.9115 85.4163 78.8985 85.4319 78.8828 85.4447C78.867 85.4574 78.849 85.4668 78.8296 85.4725C78.8102 85.4782 78.7898 85.4801 78.7697 85.4779C78.7497 85.4757 78.7302 85.4696 78.7125 85.4599C78.1416 85.153 77.6014 85.7668 77.5769 85.8098C77.5609 85.8288 77.5405 85.8437 77.5176 85.8533C77.4946 85.8629 77.4697 85.8669 77.4449 85.865Z" fill="#263238"/>
<path d="M79.5195 86.0801C79.6269 86.5619 79.4673 87.0008 79.1634 87.0806C78.8596 87.1604 78.5251 86.8105 78.4176 86.3256C78.3102 85.8407 78.4667 85.4049 78.7706 85.3251C79.0744 85.2453 79.412 85.5952 79.5195 86.0801Z" fill="#263238"/>
<path d="M85.8075 86.0094C85.915 86.4943 85.7584 86.9301 85.4515 87.0099C85.1446 87.0897 84.8131 86.7398 84.7057 86.258C84.5983 85.7761 84.7548 85.3372 85.0587 85.2544C85.3625 85.1715 85.7001 85.5306 85.8075 86.0094Z" fill="#263238"/>
<path d="M85.3254 85.543C85.3007 85.5432 85.2763 85.5368 85.2548 85.5246C85.0157 85.3977 84.7491 85.3314 84.4783 85.3314C84.2076 85.3314 83.941 85.3977 83.7019 85.5246C83.6673 85.5462 83.6255 85.5531 83.5858 85.5439C83.5461 85.5347 83.5116 85.5101 83.4901 85.4755C83.4685 85.4409 83.4616 85.3991 83.4708 85.3594C83.48 85.3197 83.5046 85.2853 83.5392 85.2637C83.8221 85.1111 84.1385 85.0312 84.4599 85.0313C84.7814 85.0312 85.0978 85.1111 85.3807 85.2637C85.412 85.2789 85.4372 85.3042 85.4522 85.3356C85.4672 85.367 85.4711 85.4026 85.4633 85.4364C85.4554 85.4703 85.4363 85.5006 85.409 85.5221C85.3817 85.5437 85.3479 85.5554 85.3132 85.5553L85.3254 85.543Z" fill="#263238"/>
<path d="M81.8857 71.6828C81.8857 71.6828 84.1753 77.9438 89.2517 79.7086C89.2517 79.7086 84.1385 76.5198 83.3282 71.2009" fill="#263238"/>
<path d="M89.2418 79.871C89.2256 79.8739 89.209 79.8739 89.1927 79.871C84.1133 78.1032 81.7623 71.8145 81.7409 71.7531C81.7335 71.7344 81.73 71.7144 81.7305 71.6943C81.731 71.6742 81.7356 71.6544 81.7439 71.6361C81.7522 71.6178 81.7641 71.6013 81.7788 71.5877C81.7936 71.574 81.811 71.5635 81.8299 71.5567C81.8488 71.5493 81.869 71.5457 81.8893 71.5462C81.9096 71.5467 81.9297 71.5512 81.9482 71.5595C81.9668 71.5678 81.9835 71.5796 81.9974 71.5944C82.0114 71.6092 82.0222 71.6267 82.0294 71.6457C82.0478 71.704 83.966 76.8233 88.048 79.03C86.4796 77.7441 83.7512 75.0125 83.165 71.2436C83.1588 71.2029 83.1692 71.1615 83.1936 71.1284C83.2181 71.0953 83.2547 71.0733 83.2954 71.0671C83.3361 71.061 83.3775 71.0714 83.4106 71.0958C83.4437 71.1203 83.4658 71.1569 83.4719 71.1976C84.2637 76.3844 89.2756 79.5641 89.3278 79.5978C89.3595 79.6181 89.3826 79.6493 89.3928 79.6855C89.403 79.7217 89.3995 79.7604 89.383 79.7943C89.3694 79.8193 89.3489 79.8399 89.3238 79.8536C89.2988 79.8672 89.2703 79.8732 89.2418 79.871Z" fill="#263238"/>
<path d="M81.9497 82.3601C81.9497 82.3601 81.5384 82.7652 82.3364 83.0997C83.1344 83.4343 85.7861 84.0205 86.3447 83.6215C86.9033 83.2225 83.4168 82.1176 81.9497 82.3601Z" fill="#263238"/>
<path d="M85.6265 83.91C84.4835 83.8574 83.3549 83.6339 82.2781 83.247C81.9343 83.1059 81.741 82.9217 81.698 82.7038C81.685 82.623 81.6913 82.5403 81.7164 82.4625C81.7414 82.3846 81.7846 82.3137 81.8422 82.2557C81.8647 82.2331 81.8937 82.2181 81.9251 82.2127C83.1835 82.0071 86.2894 82.8266 86.5288 83.4251C86.553 83.4833 86.5558 83.5482 86.5367 83.6083C86.5176 83.6684 86.4779 83.7199 86.4245 83.7535C86.1784 83.8793 85.9019 83.9335 85.6265 83.91ZM82.0325 82.5012C82.0045 82.5426 81.9925 82.5928 81.9988 82.6424C82.0233 82.7498 82.1614 82.8603 82.3947 82.9493C83.2725 83.3176 85.7278 83.8056 86.2373 83.5018C85.9825 83.158 83.34 82.3263 82.0325 82.5012Z" fill="#263238"/>
<path d="M78.418 82.3262C78.418 82.3262 76.1776 83.296 75.6558 83.8362C75.1341 84.3764 78.1111 83.7226 78.636 83.1855C79.1608 82.6484 78.418 82.3262 78.418 82.3262Z" fill="#263238"/>
<path d="M75.892 84.1924C75.7554 84.2082 75.6175 84.1756 75.5023 84.1003C75.4746 84.0727 75.3488 83.9315 75.5422 83.7351C76.0823 83.1796 78.2645 82.2312 78.3566 82.2005C78.396 82.1851 78.4399 82.1851 78.4793 82.2005C78.594 82.2472 78.697 82.3184 78.7813 82.409C78.8656 82.4997 78.9291 82.6076 78.9673 82.7253C78.9816 82.8335 78.9686 82.9436 78.9295 83.0454C78.8903 83.1473 78.8263 83.2377 78.7433 83.3085C78.3811 83.6706 76.6992 84.1924 75.892 84.1924ZM75.8184 83.8855C76.3463 83.907 78.1417 83.465 78.5254 83.0752C78.5711 83.0386 78.6077 82.9917 78.6322 82.9384C78.6567 82.8852 78.6685 82.8269 78.6666 82.7683C78.6218 82.647 78.5315 82.5479 78.4149 82.4921C78.0589 82.6609 76.3524 83.4251 75.8184 83.8947V83.8855Z" fill="#263238"/>
<path d="M80.275 87.4674C80.2361 87.4667 80.1988 87.4516 80.1704 87.4249C80.142 87.3982 80.1246 87.3619 80.1216 87.3231C80.0909 86.8252 80.0335 86.3294 79.9497 85.8376C79.8423 85.2913 79.0842 84.0422 79.075 84.0299C79.0538 83.9949 79.0474 83.9529 79.0572 83.9132C79.067 83.8735 79.0922 83.8393 79.1272 83.8181C79.1622 83.797 79.2041 83.7906 79.2438 83.8004C79.2836 83.8102 79.3178 83.8353 79.3389 83.8703C79.3696 83.9225 80.1308 85.1778 80.2597 85.7793C80.3461 86.2873 80.4056 86.7996 80.4377 87.3139C80.4386 87.3542 80.4243 87.3934 80.3975 87.4236C80.3708 87.4538 80.3336 87.4727 80.2934 87.4766L80.275 87.4674Z" fill="#263238"/>
<path d="M81.7021 92.5373C81.4819 92.5413 81.2631 92.5006 81.059 92.4178C80.8548 92.335 80.6696 92.2118 80.5143 92.0555C80.1798 91.7209 80.2842 90.9168 80.2964 90.8278C80.3021 90.7871 80.3238 90.7503 80.3566 90.7256C80.3894 90.7008 80.4307 90.6901 80.4714 90.6958C80.5121 90.7015 80.5488 90.7232 80.5736 90.756C80.5983 90.7888 80.609 90.8301 80.6034 90.8708C80.5635 91.1562 80.5635 91.6718 80.7323 91.8406C81.076 92.1844 81.7174 92.479 82.8162 91.9296C82.8341 91.9202 82.8536 91.9145 82.8738 91.9128C82.8939 91.9111 82.9142 91.9134 82.9334 91.9197C82.9526 91.926 82.9703 91.9361 82.9855 91.9494C83.0007 91.9627 83.013 91.979 83.0218 91.9972C83.0307 92.0153 83.036 92.035 83.0372 92.0552C83.0385 92.0753 83.0358 92.0955 83.0292 92.1146C83.0227 92.1337 83.0124 92.1514 82.999 92.1665C82.9856 92.1816 82.9694 92.1939 82.9512 92.2028C82.5669 92.4107 82.139 92.5253 81.7021 92.5373Z" fill="#263238"/>
<path d="M82.091 94.4618C81.8794 94.4719 81.6686 94.4297 81.4772 94.339C81.4441 94.3179 81.4204 94.2849 81.4108 94.2468C81.4013 94.2088 81.4067 94.1685 81.426 94.1343C81.4453 94.1001 81.4769 94.0746 81.5144 94.063C81.5519 94.0514 81.5924 94.0546 81.6276 94.072C81.9829 94.2044 82.3741 94.2044 82.7294 94.072C82.7485 94.0659 82.7687 94.0639 82.7887 94.0659C82.8086 94.0679 82.828 94.074 82.8455 94.0838C82.863 94.0935 82.8784 94.1068 82.8906 94.1227C82.9028 94.1386 82.9117 94.1569 82.9166 94.1763C82.9227 94.1957 82.9248 94.216 82.9228 94.2362C82.9208 94.2564 82.9148 94.2759 82.905 94.2937C82.8953 94.3115 82.882 94.3271 82.8661 94.3396C82.8501 94.3522 82.8318 94.3613 82.8123 94.3666C82.5774 94.4315 82.3347 94.4635 82.091 94.4618Z" fill="#263238"/>
<path d="M81.707 82.8848C81.6802 82.8847 81.6539 82.8775 81.6308 82.864C81.6076 82.8506 81.5884 82.8313 81.575 82.8081C81.5443 82.759 80.8967 81.6142 81.575 80.6167C81.586 80.599 81.6004 80.5838 81.6175 80.5718C81.6346 80.5599 81.6539 80.5516 81.6743 80.5474C81.6947 80.5432 81.7157 80.5431 81.7361 80.5473C81.7565 80.5515 81.7759 80.5598 81.793 80.5716C81.8101 80.5835 81.8246 80.5988 81.8356 80.6164C81.8466 80.6341 81.8539 80.6538 81.8571 80.6744C81.8602 80.695 81.8592 80.716 81.8539 80.7362C81.8487 80.7563 81.8394 80.7752 81.8267 80.7917C81.2527 81.6265 81.8267 82.6332 81.8267 82.6546C81.8371 82.6719 81.8439 82.691 81.8467 82.711C81.8495 82.7309 81.8484 82.7512 81.8432 82.7707C81.838 82.7901 81.829 82.8084 81.8167 82.8243C81.8044 82.8402 81.789 82.8535 81.7714 82.8633C81.752 82.8755 81.7299 82.8829 81.707 82.8848Z" fill="#263238"/>
</svg>
