<svg width="146" height="148" viewBox="0 0 146 148" fill="none" xmlns="http://www.w3.org/2000/svg">
<path d="M139.315 62.0672C135.728 54.6961 131.771 47.5106 127.46 40.538C120.92 29.9414 112.364 20.0108 101.162 13.7396C75.1765 -0.794465 45.2439 4.88108 25.5109 21.6389C5.77785 38.3967 21.8911 59.877 18.2744 75.9934C14.6577 92.1097 3.16002 91.4896 0.184785 114.861C-2.79044 138.232 30.7741 152.149 56.7569 146.143C82.7398 140.138 83.0697 129.395 105.109 128.756C127.148 128.118 140.314 121.495 144.896 96.8475C146.512 88.1875 146.683 78.7731 143.152 70.5011C141.966 67.6969 140.677 64.8775 139.315 62.0672Z" fill="#84041C"/>
<path opacity="0.7" d="M139.315 62.0672C135.728 54.6961 131.771 47.5106 127.46 40.538C120.92 29.9414 112.364 20.0108 101.162 13.7396C75.1765 -0.794465 45.2439 4.88108 25.5109 21.6389C5.77785 38.3967 21.8911 59.877 18.2744 75.9934C14.6577 92.1097 3.16002 91.4896 0.184785 114.861C-2.79044 138.232 30.7741 152.149 56.7569 146.143C82.7398 140.138 83.0697 129.395 105.109 128.756C127.148 128.118 140.314 121.495 144.896 96.8475C146.512 88.1875 146.683 78.7731 143.152 70.5011C141.966 67.6969 140.677 64.8775 139.315 62.0672Z" fill="white"/>
<path d="M89.9796 1H20.9854V125.609H89.9796V1Z" stroke="#263238" stroke-width="0.590272" stroke-miterlimit="10"/>
<path d="M35.9834 1.31201V125.602" stroke="#263238" stroke-width="0.590272" stroke-miterlimit="10"/>
<path d="M54.5264 12.0332V125.602" stroke="#263238" stroke-width="0.590272" stroke-miterlimit="10"/>
<path d="M54.5264 1.31201V9.13396" stroke="#263238" stroke-width="0.590272" stroke-miterlimit="10"/>
<path d="M73.0664 1.31201V125.602" stroke="#263238" stroke-width="0.590272" stroke-miterlimit="10"/>
<path d="M21.498 18.864H89.8723" stroke="#263238" stroke-width="0.590272" stroke-miterlimit="10"/>
<path d="M29.3203 36.5386H89.8727" stroke="#263238" stroke-width="0.590272" stroke-miterlimit="10"/>
<path d="M21.498 36.5386H26.1348" stroke="#263238" stroke-width="0.590272" stroke-miterlimit="10"/>
<path d="M60.6113 54.2092H89.8722" stroke="#263238" stroke-width="0.590272" stroke-miterlimit="10"/>
<path d="M21.498 54.2092H55.9748" stroke="#263238" stroke-width="0.590272" stroke-miterlimit="10"/>
<path d="M21.498 71.8804H89.8723" stroke="#263238" stroke-width="0.590272" stroke-miterlimit="10"/>
<path d="M21.498 89.5549H89.8723" stroke="#263238" stroke-width="0.590272" stroke-miterlimit="10"/>
<path d="M21.498 107.226H89.8723" stroke="#263238" stroke-width="0.590272" stroke-miterlimit="10"/>
<path d="M46.9973 94.4192H9.16406V125.916H46.9973V94.4192Z" fill="#263238" stroke="#808080" stroke-miterlimit="10"/>
<path d="M36.2564 94.4192H9.16406V125.916H36.2564V94.4192Z" fill="#D1D1D1" stroke="#808080" stroke-miterlimit="10"/>
<path d="M33.0785 101.133L30.7843 96.0601L28.4824 101.121L29.6737 101.125V106.309L31.8834 106.313L31.8872 101.129L33.0785 101.133Z" fill="#263238"/>
<path d="M29.866 107.374V109.964C29.866 110.202 29.939 110.286 30.0581 110.29C30.1773 110.294 30.2503 110.202 30.2503 109.964V107.397H30.6038V109.948C30.6038 110.486 30.4155 110.794 30.0504 110.79C29.6854 110.786 29.4971 110.482 29.4971 109.948V107.393L29.866 107.374Z" fill="#263238"/>
<path d="M31.9562 108.211V108.646C31.9562 109.184 31.7756 109.476 31.4029 109.476H31.2261V110.736H30.8418V107.397H31.3875C31.7756 107.397 31.9562 107.673 31.9562 108.211ZM31.2261 107.858V109.011H31.4029C31.522 109.011 31.5835 108.934 31.5835 108.696V108.165C31.5835 107.927 31.5182 107.846 31.399 107.846L31.2261 107.858Z" fill="#263238"/>
<path d="M25.0158 94.4192H20.4043V100.353H25.0158V94.4192Z" fill="#F5F5F5" stroke="#808080" stroke-miterlimit="10"/>
<path d="M78.1252 94.4192H40.292V125.916H78.1252V94.4192Z" fill="#263238" stroke="#808080" stroke-miterlimit="10"/>
<path d="M67.3844 94.4192H40.292V125.916H67.3844V94.4192Z" fill="#D1D1D1" stroke="#808080" stroke-miterlimit="10"/>
<path d="M56.1437 94.4192H51.5322V100.353H56.1437V94.4192Z" fill="#F5F5F5" stroke="#808080" stroke-miterlimit="10"/>
<path d="M76.2073 63.0842H38.374V94.5805H76.2073V63.0842Z" fill="#263238" stroke="#808080" stroke-miterlimit="10"/>
<path d="M65.4664 63.0842H38.374V94.5805H65.4664V63.0842Z" fill="#D1D1D1" stroke="#808080" stroke-miterlimit="10"/>
<path d="M63.4369 70.1976L61.1427 65.125L58.8408 70.1861L60.0321 70.1899V75.374L62.2418 75.3778L62.2456 70.1938L63.4369 70.1976Z" fill="#263238"/>
<path d="M60.2244 76.4382V79.0283C60.2244 79.2666 60.2974 79.3511 60.4165 79.355C60.5357 79.3588 60.6087 79.2666 60.6087 79.0283V76.4421H60.9622V78.9938C60.9622 79.5318 60.7739 79.8392 60.4088 79.8353C60.0438 79.8315 59.8555 79.5279 59.8555 78.9938V76.4382H60.2244Z" fill="#263238"/>
<path d="M62.3156 77.2764V77.7106C62.3156 78.2486 62.135 78.5407 61.7622 78.5407H61.5855V79.8011H61.2012V76.4463H61.7469C62.135 76.4463 62.3156 76.7384 62.3156 77.2764ZM61.5855 76.9228V78.0757H61.7622C61.8814 78.0757 61.9428 77.9988 61.9428 77.7606V77.2571C61.9428 77.0189 61.8775 76.9382 61.7584 76.9382L61.5855 76.9228Z" fill="#263238"/>
<path d="M54.2257 63.0842H49.6104V69.0177H54.2257V63.0842Z" fill="#F5F5F5" stroke="#808080" stroke-miterlimit="10"/>
<path d="M76.2073 31.1885H38.374V62.6848H76.2073V31.1885Z" fill="#263238" stroke="#808080" stroke-miterlimit="10"/>
<path d="M65.4664 31.1885H38.374V62.6848H65.4664V31.1885Z" fill="#D1D1D1" stroke="#808080" stroke-miterlimit="10"/>
<path d="M51.8652 47.7314L42.3301 53.6619L45.6018 58.9222L55.1369 52.9917L51.8652 47.7314Z" fill="#F5F5F5" stroke="#808080" stroke-miterlimit="10"/>
<path d="M21.666 109.108L12.1309 115.039L15.4026 120.299L24.9377 114.369L21.666 109.108Z" fill="#F5F5F5" stroke="#808080" stroke-miterlimit="10"/>
<path d="M54.2257 31.1885H49.6104V37.1219H54.2257V31.1885Z" fill="#F5F5F5" stroke="#808080" stroke-miterlimit="10"/>
<path d="M109.846 145.819L108.888 125.717H70.5917L69.7119 145.819H109.846Z" fill="#263238" stroke="#263238" stroke-width="0.590272" stroke-linecap="round" stroke-linejoin="round"/>
<path d="M78.7476 64.7414C78.7476 64.7414 64.5144 70.4324 63.8982 71.3011C63.2819 72.1698 60.9283 94.1915 60.8021 95.8027C60.6759 97.4139 59.4434 104.712 59.4434 104.712L70.703 103.599C70.703 103.599 70.2092 123.645 70.083 124.017C69.9568 124.388 68.8468 126.367 69.7118 126.738C70.5767 127.109 88.6448 130.573 91.8634 130.573C95.082 130.573 107.578 127.974 108.075 127.729C108.47 127.501 108.802 127.178 109.039 126.789C109.276 126.4 109.412 125.957 109.434 125.502C109.449 124.592 109.408 123.682 109.312 122.777C109.189 121.418 109.434 102.979 109.434 102.979L120.697 102.607C120.697 102.607 116.859 78.8483 116.859 77.4859C116.859 76.1235 116.985 72.4148 116.242 71.4236C115.5 70.4324 99.9081 64.4926 99.9081 64.4926C99.9081 64.4926 84.8099 62.7627 78.7476 64.7414Z" fill="#84041C" stroke="#263238" stroke-width="0.590272" stroke-linecap="round" stroke-linejoin="round"/>
<path d="M69.7815 77.5599L69.6924 75.0615" stroke="#263238" stroke-width="0.590272" stroke-linecap="round" stroke-linejoin="round"/>
<path d="M70.5917 99.5485L69.8232 78.5996" stroke="#263238" stroke-width="0.590272" stroke-linecap="round" stroke-linejoin="round"/>
<path d="M66.0772 81.5172C65.1149 80.1799 64.3995 78.6812 63.9648 77.092" stroke="#263238" stroke-width="0.590272" stroke-linecap="round" stroke-linejoin="round"/>
<path d="M70.0269 85.6195C68.9519 84.8024 67.9708 83.8686 67.1016 82.8352" stroke="#263238" stroke-width="0.590272" stroke-linecap="round" stroke-linejoin="round"/>
<path d="M63.7383 85.0591C63.7383 85.0591 65.1972 89.6624 70.1421 90.6759" stroke="#263238" stroke-width="0.590272" stroke-linecap="round" stroke-linejoin="round"/>
<path d="M70.0264 86.8559C70.0264 86.8559 71.374 85.8461 72.161 82.1375" stroke="#263238" stroke-width="0.590272" stroke-linecap="round" stroke-linejoin="round"/>
<path d="M67.2724 92.2831C65.1495 91.1159 63.561 89.1722 62.8398 86.8594" stroke="#263238" stroke-width="0.590272" stroke-linecap="round" stroke-linejoin="round"/>
<path d="M70.3648 93.3711C69.7207 93.2689 69.0904 93.0933 68.4863 92.8477" stroke="#263238" stroke-width="0.590272" stroke-linecap="round" stroke-linejoin="round"/>
<path d="M108.888 99.5483L109.786 75.0615" stroke="#263238" stroke-width="0.590272" stroke-linecap="round" stroke-linejoin="round"/>
<path d="M114.864 78.937C115.131 78.3371 115.349 77.7163 115.514 77.0808" stroke="#263238" stroke-width="0.590272" stroke-linecap="round" stroke-linejoin="round"/>
<path d="M109.449 85.6193C111.212 84.268 112.721 82.6138 113.904 80.7339" stroke="#263238" stroke-width="0.590272" stroke-linecap="round" stroke-linejoin="round"/>
<path d="M115.741 85.0591C115.741 85.0591 114.278 89.6624 109.337 90.6759" stroke="#263238" stroke-width="0.590272" stroke-linecap="round" stroke-linejoin="round"/>
<path d="M109.448 86.8559C109.448 86.8559 108.101 85.8461 107.317 82.1375" stroke="#263238" stroke-width="0.590272" stroke-linecap="round" stroke-linejoin="round"/>
<path d="M114.237 90.7723C115.346 89.6828 116.171 88.338 116.639 86.8557" stroke="#263238" stroke-width="0.590272" stroke-linecap="round" stroke-linejoin="round"/>
<path d="M109.114 93.371C110.296 93.1729 111.43 92.7521 112.455 92.1311" stroke="#263238" stroke-width="0.590272" stroke-linecap="round" stroke-linejoin="round"/>
<path d="M91.7998 125.015L91.8184 128.861" stroke="#263238" stroke-width="0.590272" stroke-linecap="round" stroke-linejoin="round"/>
<path d="M91.7217 107.029L91.7922 122.791" stroke="#263238" stroke-width="0.590272" stroke-linecap="round" stroke-linejoin="round"/>
<path d="M91.7031 102.693L91.718 105.659" stroke="#263238" stroke-width="0.590272" stroke-linecap="round" stroke-linejoin="round"/>
<path d="M90.3564 74.2783L91.0321 80.4557" stroke="#263238" stroke-width="0.590272" stroke-linecap="round" stroke-linejoin="round"/>
<path d="M100.524 69.6897C100.65 67.8335 101.144 64.7412 101.144 64.7412L100.279 62.885C100.279 62.885 98.7942 60.535 98.5454 59.9151C98.2967 59.2951 96.1955 59.1726 96.1955 59.1726L89.3907 59.5438H88.9712H88.4033V59.5624L82.4635 59.6664C82.4635 59.6664 80.3586 59.7926 80.1098 60.4088C79.8611 61.0251 79.1223 62.885 79.1223 62.885L77.3887 65.4836C77.3887 65.4836 78.2537 69.3185 78.3799 71.1747C78.5061 73.0309 77.7599 75.2583 78.9961 75.1358C80.2323 75.0133 84.9359 70.6809 84.9359 70.6809L90.0961 73.5172L95.2377 70.6809C95.2377 70.6809 99.9376 75.0133 101.177 75.1358C102.417 75.2583 100.402 71.5459 100.524 69.6897Z" fill="#84041C" stroke="#263238" stroke-width="0.590272" stroke-linecap="round" stroke-linejoin="round"/>
<path d="M81.3535 56.3251L81.6357 61.3033C81.6357 61.3033 83.1206 66.1888 85.0176 68.7281C86.9146 71.2673 90.0924 73.5207 90.0924 73.5207C90.0924 73.5207 94.5992 68.071 95.2563 66.9424C95.9134 65.8139 97.042 61.5892 97.042 61.5892L96.8563 56.0466L81.3535 56.3251Z" fill="white" stroke="#263238" stroke-width="0.590272" stroke-linecap="round" stroke-linejoin="round"/>
<path d="M81.6353 61.3036C81.6353 61.3036 82.1773 63.067 83.02 65.016L88.6776 62.7886L81.8728 56.3142H81.3643L81.6353 61.3036Z" fill="#263238" stroke="#263238" stroke-width="0.590272" stroke-linecap="round" stroke-linejoin="round"/>
<path d="M79.1929 48.3436C79.1929 48.3436 80.5925 56.0133 81.0268 56.9711C81.4612 57.9289 85.4817 62.9703 87.0706 63.594C88.6595 64.2176 90.059 64.084 91.5885 63.4826C93.118 62.8812 95.9914 58.9498 96.9937 57.2978C97.996 55.6458 98.5789 47.861 98.5789 47.861L98.4007 40.1467C98.4007 40.1467 97.5097 38.8919 94.551 37.6483C91.5922 36.4046 84.3086 37.4478 82.3002 38.2163C80.2918 38.9847 78.3948 42.014 78.714 43.5324C78.9626 45.126 79.1225 46.7322 79.1929 48.3436Z" fill="white" stroke="#263238" stroke-width="0.590272" stroke-linecap="round" stroke-linejoin="round"/>
<path d="M78.5653 44.1451C78.5653 44.1451 77.5036 43.2987 77.1472 45.2589C76.7908 47.219 78.0196 49.5206 78.3685 50.1926C78.7175 50.8645 79.8201 51.5662 79.8201 51.5662L78.5653 44.1451Z" fill="white" stroke="#263238" stroke-width="0.590272" stroke-linecap="round" stroke-linejoin="round"/>
<path d="M98.7608 45.5075C98.7608 45.5075 99.5627 44.223 100.171 45.4667C100.78 46.7103 99.919 49.6876 99.3214 50.5118C98.7237 51.3359 98.126 52.2529 98.126 52.2529L98.7942 45.9159" fill="white"/>
<path d="M98.7608 45.5075C98.7608 45.5075 99.5627 44.223 100.171 45.4667C100.78 46.7103 99.919 49.6876 99.3214 50.5118C98.7237 51.3359 98.126 52.2529 98.126 52.2529L98.7942 45.9159" stroke="#263238" stroke-width="0.590272" stroke-linecap="round" stroke-linejoin="round"/>
<path d="M81.6905 30.1605C81.6905 30.1605 76.638 34.2849 77.0835 37.756C77.3727 39.9283 77.87 42.0677 78.5684 44.1449L79.2552 48.778C79.2552 48.778 79.6264 50.0884 79.8269 48.945C79.9541 48.0401 80.0359 47.1295 80.0719 46.2164C80.0719 46.2164 80.7773 46.6768 81.271 44.9691C81.7648 43.2614 81.4084 41.3755 81.7128 40.956C82.0172 40.5365 85.9597 39.0998 85.9597 39.0998C85.9597 39.0998 81.6645 42.2442 83.5207 42.6043C85.3769 42.9644 88.8405 42.8085 90.177 41.7059C91.5134 40.6033 93.0095 39.085 93.0095 39.085C93.0095 39.085 90.4294 42.582 91.855 42.9273C93.2805 43.2725 96.681 41.0934 96.681 41.0934C96.681 41.0934 96.5325 44.9765 96.8035 45.4183C97.1235 45.8191 97.4985 46.1728 97.9173 46.4689L97.7613 50.3334C97.7613 50.3334 98.3182 50.7863 98.5038 49.4982C98.6894 48.21 98.7859 45.912 98.7859 45.912C98.7859 45.912 100.482 42.9421 100.984 41.0859C101.485 39.2298 101.726 36.9392 100.638 35.0274C100.004 33.8927 99.1644 32.8857 98.1623 32.0575C98.1623 32.0575 92.538 28.5307 89.2526 28.1187C85.9672 27.7066 81.6905 30.1605 81.6905 30.1605Z" fill="#263238" stroke="#263238" stroke-width="0.590272" stroke-linecap="round" stroke-linejoin="round"/>
<path d="M84.8618 50.0181C84.8432 50.5119 84.5759 50.9017 84.2678 50.8868C83.9597 50.872 83.7295 50.4673 83.7295 49.9624C83.7295 49.4576 84.0153 49.0826 84.3272 49.0937C84.639 49.1049 84.8803 49.5244 84.8618 50.0181Z" fill="#263238"/>
<path d="M93.6854 50.3556C93.6854 50.8494 93.3996 51.2392 93.0914 51.2243C92.7833 51.2095 92.542 50.8048 92.5606 50.3111C92.5791 49.8173 92.8464 49.4312 93.1583 49.4424C93.4701 49.4535 93.7077 49.8619 93.6854 50.3556Z" fill="#263238"/>
<path d="M83.0088 51.7814L85.0766 51.7666" stroke="#263238" stroke-width="0.590272" stroke-linecap="round" stroke-linejoin="round"/>
<path d="M92.4902 52.1413L94.558 52.1265" stroke="#263238" stroke-width="0.590272" stroke-linecap="round" stroke-linejoin="round"/>
<path d="M86.9365 54.844C86.9365 54.844 87.8275 56.1025 88.8558 56.2361C89.8841 56.3698 91.0832 54.9071 91.0832 54.9071" stroke="#263238" stroke-width="0.590272" stroke-linecap="round" stroke-linejoin="round"/>
<path d="M86.499 58.872C87.2994 58.4423 88.1999 58.234 89.1077 58.2686C90.0155 58.3032 90.8975 58.5794 91.6629 59.0687" stroke="#263238" stroke-width="0.590272" stroke-linecap="round" stroke-linejoin="round"/>
<path d="M81.9473 47.6051L86.0346 46.4431" stroke="#263238" stroke-width="1.18054" stroke-linecap="round" stroke-linejoin="round"/>
<path d="M95.7459 48.132L91.7588 46.6619" stroke="#263238" stroke-width="1.18054" stroke-linecap="round" stroke-linejoin="round"/>
<path d="M69.0945 98.275C69.0945 98.275 65.9984 96.545 63.771 97.2875C61.5436 98.0299 58.4512 102.236 58.2025 102.856C57.9537 103.476 58.4512 109.29 58.4512 109.29C58.4512 109.29 62.7835 111.146 64.5135 111.146C66.2434 111.146 70.082 107.433 70.082 107.433L69.0945 98.275Z" fill="#84041C" stroke="#263238" stroke-width="0.590272" stroke-linecap="round" stroke-linejoin="round"/>
<path d="M86.5401 95.3905L84.9995 83.511C84.9813 83.3678 84.9932 83.2225 85.0345 83.0842C85.0758 82.946 85.1455 82.8179 85.2391 82.7081C85.3328 82.5984 85.4484 82.5094 85.5784 82.4469C85.7085 82.3844 85.8502 82.3498 85.9944 82.3453L94.763 82.0743C94.904 82.0697 95.0445 82.0939 95.1758 82.1456C95.3071 82.1972 95.4264 82.2751 95.5265 82.3746C95.6267 82.474 95.7054 82.5928 95.758 82.7237C95.8105 82.8547 95.8357 82.995 95.8321 83.136L95.524 94.7334L86.5401 95.3905Z" fill="#263238" stroke="#263238" stroke-width="0.590272" stroke-linecap="round" stroke-linejoin="round"/>
<path d="M84.809 93.3264C84.809 93.3264 77.8781 96.0476 74.9082 96.6675C71.9383 97.2875 66.9897 97.5325 65.256 98.895C63.5224 100.257 59.8137 105.328 60.6787 107.185C61.5437 109.041 65.7535 110.155 67.4834 109.783C69.2134 109.412 81.4679 102.236 83.0754 101.371C84.6828 100.506 87.2852 99.1437 87.2852 99.1437L84.809 93.3264Z" fill="white" stroke="#263238" stroke-width="0.590272" stroke-linecap="round" stroke-linejoin="round"/>
<path d="M109.226 96.066C109.226 96.066 114.278 95.3904 115.065 95.3904C115.852 95.3904 120.567 97.8628 121.692 98.9839C122.817 100.105 123.715 103.365 123.715 104.827C123.715 106.29 122.928 109.319 121.914 109.88C120.901 110.44 118.202 111.565 116.973 110.778C115.744 109.991 113.057 107.745 113.057 107.745L109.226 96.066Z" fill="#84041C" stroke="#263238" stroke-width="0.590272" stroke-linecap="round" stroke-linejoin="round"/>
<path d="M121.465 103.703C121.465 103.703 119.669 99.6598 116.413 97.9744C113.157 96.289 107.091 95.3757 104.619 94.043C102.146 92.7103 99.3435 90.0002 99.3435 90.0002L97.8809 99.9976C97.8809 99.9976 103.271 102.804 105.517 104.49C107.763 106.175 113.269 109.769 115.741 109.991C118.213 110.214 121.681 109.431 122.141 106.958C122.601 104.486 121.465 103.703 121.465 103.703Z" fill="white" stroke="#263238" stroke-width="0.590272" stroke-linecap="round" stroke-linejoin="round"/>
<path d="M94.0647 90.4492C94.0647 90.4492 87.7537 90.4492 85.7527 90.8984C83.7517 91.3476 82.9462 92.8103 83.3954 93.5936C83.6789 94.1185 83.8686 94.6888 83.9559 95.279C83.9559 95.279 83.7295 96.6266 84.0673 96.853C84.4333 97.1589 84.7712 97.4968 85.0771 97.8628C85.0771 97.8628 84.5165 98.9765 85.4149 99.771C85.9495 100.237 86.5564 100.613 87.2117 100.885C87.2117 100.885 87.2117 101.783 88.5593 101.894C89.9068 102.006 93.0512 99.8749 93.0512 99.8749L94.0647 90.4492Z" fill="white" stroke="#263238" stroke-width="0.590272" stroke-linecap="round" stroke-linejoin="round"/>
<path d="M95.8611 86.6331L95.6347 89.4396C95.6347 89.4396 92.2676 90.8986 91.9223 90.8986C91.5771 90.8986 87.5417 89.3282 86.8661 89.8888C86.1904 90.4494 90.1255 92.4875 90.7975 92.584C91.4694 92.6805 92.0337 92.8104 92.0337 92.8104C92.0337 92.8104 89.2272 92.9218 88.778 92.9218C88.3288 92.9218 85.6336 92.0234 85.4071 92.4726C85.1807 92.9218 84.9579 93.5863 85.745 93.9316C86.565 94.3603 87.3528 94.8479 88.1023 95.3905H86.532C86.532 95.3905 84.9579 95.2791 85.1844 96.1775C85.4108 97.0759 87.6531 97.4138 87.6531 97.4138C88.3741 98.1937 89.163 98.9081 90.0105 99.5484C91.1242 100.335 92.7094 101.345 94.0569 101.234C95.4045 101.122 97.4241 100.12 97.8733 99.9976C98.3224 99.8751 98.987 98.9841 98.987 97.5251C98.987 96.0662 99.5475 94.3808 99.6589 92.8104C99.7703 91.2401 99.8853 90.5607 99.4362 89.3282C98.987 88.0957 95.8611 86.6331 95.8611 86.6331Z" fill="white" stroke="#263238" stroke-width="0.590272" stroke-linecap="round" stroke-linejoin="round"/>
<path d="M88.1094 95.3904C88.1094 95.3904 91.9294 96.1774 92.3786 96.1774C92.8278 96.1774 95.2965 95.6168 95.2965 95.6168" stroke="#263238" stroke-width="0.590272" stroke-linecap="round" stroke-linejoin="round"/>
<path d="M92.041 92.8102C92.041 92.8102 93.9492 93.0329 94.3984 92.9216C94.8476 92.8102 96.0838 92.5837 96.0838 92.5837" stroke="#263238" stroke-width="0.590272" stroke-linecap="round" stroke-linejoin="round"/>
<path d="M87.6602 97.4136C87.6602 97.4136 90.4667 98.5273 91.3725 98.7612C92.2783 98.995 95.1888 98.312 95.1888 98.312" stroke="#263238" stroke-width="0.590272" stroke-linecap="round" stroke-linejoin="round"/>
</svg>
