<svg width="165" height="146" viewBox="0 0 165 146" fill="none" xmlns="http://www.w3.org/2000/svg">
<path d="M71.6473 32.6013C64.133 34.1127 55.5939 38.2941 52.1032 45.541C46.8282 56.4958 37.3402 56.3788 34.9004 77.1057C34.5308 80.1313 34.491 83.1881 34.7816 86.2223C34.9294 87.7088 35.1726 89.1842 35.5094 90.6395C38.4561 103.451 48.1762 111.446 59.3166 113.765C73.9682 116.818 82.6522 107.638 87.8437 101.611C93.0351 95.584 110.284 90.0658 112.843 69.701C113.246 66.5933 113.289 63.4494 112.971 60.3319C112.219 53.2205 109.248 45.6394 103.929 40.6596C103.529 40.2883 103.115 39.9169 102.694 39.5716C94.4147 32.7202 81.891 30.5404 71.6473 32.6013Z" fill="#84041C"/>
<path opacity="0.7" d="M71.6473 32.6013C64.133 34.1127 55.5939 38.2941 52.1032 45.541C46.8282 56.4958 37.3402 56.3788 34.9004 77.1057C34.5308 80.1313 34.491 83.1881 34.7816 86.2223C34.9294 87.7088 35.1726 89.1842 35.5094 90.6395C38.4561 103.451 48.1762 111.446 59.3166 113.765C73.9682 116.818 82.6522 107.638 87.8437 101.611C93.0351 95.584 110.284 90.0658 112.843 69.701C113.246 66.5933 113.289 63.4494 112.971 60.3319C112.219 53.2205 109.248 45.6394 103.929 40.6596C103.529 40.2883 103.115 39.9169 102.694 39.5716C94.4147 32.7202 81.891 30.5404 71.6473 32.6013Z" fill="white"/>
<path d="M106.327 101.842H87.5996L87.7413 101.613C87.7745 101.559 88.5613 100.296 89.5863 100.193C89.98 100.169 90.3746 100.223 90.747 100.353C91.1781 100.477 91.4132 100.531 91.6122 100.332C91.7362 100.187 91.8378 100.025 91.9136 99.8498C92.0172 99.5784 92.194 99.3411 92.4245 99.1644C92.655 98.9876 92.9301 98.8784 93.219 98.8489C93.7055 98.796 94.1968 98.8894 94.6299 99.1172C95.1575 99.3373 95.6579 99.5453 96.3603 99.2438C96.7792 99.0303 97.1184 98.6879 97.3281 98.2671C97.726 97.64 98.133 96.9888 99.5318 97.3084C101.485 97.7515 102.317 100.088 102.495 100.661C102.676 100.608 102.847 100.525 102.999 100.414C103.436 100.142 103.978 99.8106 104.856 100.206C106.167 100.808 106.285 101.637 106.291 101.674L106.327 101.842ZM88.1573 101.541H105.944C105.839 101.3 105.54 100.851 104.738 100.48C104.009 100.142 103.581 100.411 103.168 100.67C102.944 100.842 102.676 100.946 102.396 100.971H102.281L102.251 100.86C102.251 100.833 101.476 98.056 99.4745 97.6008C98.2837 97.3295 97.9672 97.8149 97.5903 98.4268C97.3498 98.8993 96.9627 99.2811 96.487 99.5151C95.667 99.8679 95.061 99.6146 94.5214 99.3915C94.1401 99.1871 93.7069 99.1 93.2763 99.1413C93.0338 99.164 92.8028 99.2555 92.6105 99.405C92.4182 99.5546 92.2727 99.7559 92.191 99.9854C92.0971 100.189 91.972 100.378 91.8202 100.543C91.4856 100.878 91.0816 100.76 90.6565 100.64C90.3208 100.523 89.9654 100.473 89.6104 100.492C88.9803 100.558 88.4226 101.191 88.1573 101.541Z" fill="#263238"/>
<path d="M67.9383 32.185H49.2109L49.3526 31.9559C49.3858 31.9016 50.1726 30.6384 51.1976 30.5359C51.5913 30.5111 51.986 30.5654 52.3583 30.6957C52.7894 30.8193 53.0245 30.8766 53.2235 30.6776C53.3479 30.532 53.4495 30.3683 53.525 30.1923C53.6301 29.9188 53.8093 29.68 54.0425 29.5026C54.2758 29.3253 54.5538 29.2165 54.8454 29.1884C55.3319 29.1351 55.8233 29.2285 56.2563 29.4567C56.7839 29.6768 57.2843 29.8848 57.9867 29.5833C58.4056 29.3698 58.7448 29.0274 58.9545 28.6065C59.3524 27.9795 59.7624 27.3313 61.1612 27.6479C63.1117 28.094 63.9468 30.4274 64.1247 31.0032C64.3052 30.9484 64.4754 30.8638 64.6281 30.753C65.0623 30.4817 65.6049 30.1501 66.4822 30.548C67.7966 31.1509 67.9142 31.977 67.9172 32.0131L67.9383 32.185ZM49.7687 31.8835H67.5554C67.4499 31.6423 67.1514 31.1931 66.3495 30.8223C65.62 30.4877 65.1949 30.753 64.7819 31.0123C64.557 31.1834 64.2885 31.2879 64.0071 31.3137H63.8925L63.8624 31.1992C63.8624 31.172 63.0906 28.3955 61.0859 27.9403C59.8981 27.669 59.5785 28.1543 59.2047 28.7663C58.9623 29.2392 58.5744 29.6217 58.0983 29.8576C57.2783 30.2073 56.6723 29.9541 56.1357 29.731C55.7529 29.528 55.3191 29.441 54.8876 29.4808C54.6452 29.5038 54.4144 29.5954 54.2222 29.7449C54.03 29.8944 53.8843 30.0956 53.8023 30.3249C53.7084 30.5289 53.5833 30.7171 53.4315 30.8826C53.0969 31.2173 52.6959 31.1027 52.2678 30.9791C51.9322 30.8618 51.5768 30.8116 51.2217 30.8314C50.5917 30.9007 50.034 31.5338 49.7687 31.8835Z" fill="#263238"/>
<path d="M163.369 74.6772H144.642L144.783 74.4481C144.816 74.3938 145.603 73.1307 146.628 73.0282C147.022 73.0033 147.417 73.0577 147.789 73.188C148.22 73.3116 148.455 73.3658 148.654 73.1699C148.783 73.0244 148.89 72.8609 148.971 72.6845C149.078 72.4136 149.258 72.1778 149.491 72.0032C149.724 71.8286 150.001 71.7222 150.291 71.6957C150.778 71.6424 151.269 71.7359 151.702 71.964C152.23 72.1841 152.73 72.3921 153.432 72.0906C153.851 71.8773 154.19 71.5362 154.4 71.1168C154.798 70.4868 155.208 69.8386 156.604 70.1552C158.557 70.6013 159.39 72.9347 159.567 73.5105C159.748 73.4569 159.919 73.3723 160.071 73.2603C160.508 72.989 161.051 72.6574 161.928 73.0553C163.239 73.6582 163.357 74.4843 163.363 74.5204L163.369 74.6772ZM145.199 74.3757H162.986C162.881 74.1346 162.582 73.6854 161.78 73.3146C161.051 72.9769 160.626 73.2452 160.21 73.5045C159.986 73.6761 159.718 73.7807 159.438 73.806H159.335L159.305 73.6914C159.305 73.6643 158.533 70.8877 156.529 70.4325C155.338 70.1612 155.021 70.6466 154.644 71.2585C154.403 71.7312 154.016 72.1138 153.541 72.3499C152.721 72.6996 152.115 72.4463 151.575 72.2232C151.194 72.0201 150.761 71.9332 150.33 71.973C150.088 71.9957 149.857 72.0872 149.665 72.2367C149.472 72.3863 149.327 72.5877 149.245 72.8171C149.151 73.0212 149.026 73.2093 148.874 73.3749C148.54 73.7095 148.136 73.5949 147.711 73.4713C147.375 73.3545 147.019 73.3043 146.664 73.3236C146.025 73.3929 145.468 74.026 145.199 74.3757Z" fill="#263238"/>
<path d="M86.3158 85.4005H38.9307L39.0724 85.1713C39.1538 85.0357 41.1163 81.8913 43.6336 81.6411C44.6134 81.5813 45.5953 81.7176 46.5217 82.0421C47.5798 82.3435 48.3305 82.5636 48.9757 81.9305C49.3287 81.546 49.6177 81.1073 49.8318 80.6312C50.3654 79.5972 50.9201 78.5209 53.0123 78.1833C54.3418 77.9602 55.4422 78.4184 56.5034 78.8586C57.9082 79.4434 59.2347 79.9951 61.1309 79.1811C62.4333 78.6234 63.0875 77.5894 63.7206 76.5885C64.7426 74.9756 65.7073 73.4532 69.129 74.231C74.2148 75.3856 76.3371 81.9155 76.6205 82.8711C77.1541 82.8319 77.6455 82.5244 78.2092 82.1717C79.2795 81.5024 80.621 80.6644 82.7494 81.6532C85.9992 83.1605 86.2856 85.1472 86.2947 85.2316L86.3158 85.4005ZM39.4793 85.099H85.957C85.8093 84.5985 85.1702 83.1002 82.6228 81.9275C80.6331 81.008 79.4302 81.7617 78.369 82.428C77.7661 82.8138 77.1631 83.1756 76.5089 83.1756H76.3944L76.3642 83.0641C76.3431 82.9917 74.3474 75.7263 69.0626 74.5234C65.8459 73.7938 64.9807 75.1625 63.9768 76.7483C63.3196 77.7883 62.6383 78.8586 61.2485 79.4615C59.2347 80.3237 57.7876 79.7238 56.3888 79.1389C55.3186 78.6958 54.3087 78.2767 53.0726 78.4817C51.1282 78.8073 50.6337 79.763 50.1122 80.7729C49.8829 81.2747 49.5778 81.7383 49.2078 82.1476C48.4481 82.9043 47.5256 82.642 46.4584 82.3345C45.5673 82.0241 44.6241 81.8909 43.6818 81.9426C41.6771 82.1385 39.9858 84.3574 39.4793 85.099Z" fill="#263238"/>
<path d="M134.955 71.177C134.882 71.8353 134.677 72.4721 134.352 73.0491C133.806 74.0048 133.447 74.5052 133.447 74.5052C133.447 74.5052 132.543 73.9023 131.536 69.9108C130.529 65.9193 129.218 58.7715 129.218 58.7715C129.218 58.7715 132.447 62.4554 133.493 64.6381C134.539 66.8207 134.882 69.9862 134.955 71.177Z" fill="#263238"/>
<path d="M133.471 74.7104L133.353 74.632C133.314 74.6048 132.383 73.9627 131.379 69.9501C130.387 65.9888 129.07 58.8711 129.057 58.7957L128.958 58.2561L129.32 58.6691C129.452 58.8199 132.573 62.3923 133.616 64.5689C134.822 67.1012 135.081 70.7551 135.105 71.1651V71.1862C135.029 71.8674 134.814 72.5259 134.475 73.1216C134.193 73.6261 133.886 74.1161 133.555 74.5898L133.471 74.7104ZM129.458 59.2962C129.787 61.0507 130.845 66.5707 131.671 69.8748C132.434 72.9347 133.148 73.9748 133.411 74.2732C133.555 74.0622 133.842 73.622 134.213 72.9739C134.533 72.4174 134.738 71.8023 134.816 71.1651C134.725 69.7029 134.318 66.7033 133.356 64.6925C132.527 62.9982 130.33 60.3272 129.458 59.2962Z" fill="#263238"/>
<path d="M146.434 89.7085C146.434 89.7085 140.845 81.0865 139.054 79.0184C137.264 76.9503 134.433 74.1075 134.433 74.1075L133.363 72.1931L118.844 74.9365L118.636 79.2927L127.809 97.9236C127.809 97.9236 123.89 100.751 123.809 101.164C123.728 101.577 124.774 103.371 125.12 103.923C125.467 104.475 125.946 104.683 126.025 105.026C126.103 105.37 127.475 109.096 127.475 109.096L127.68 121.583C127.68 121.583 127.819 124.899 127.957 125.101C128.096 125.303 128.648 125.719 130.441 125.101C132.235 124.483 132.648 124.197 132.648 124.197L132.853 123.506C133.411 123.425 133.964 123.31 134.508 123.163C134.855 123.024 138.729 120.335 139.063 119.506C139.398 118.677 139.199 118.402 138.855 118.402C138.512 118.402 133.751 118.541 133.474 118.402C133.197 118.264 132.992 116.955 132.992 116.955C132.992 116.955 132.166 116.334 132.166 115.988C132.166 115.641 135.407 99.3646 135.407 99.3646C135.407 99.3646 145.614 93.8477 145.892 93.7091C146.169 93.5704 146.926 92.88 146.926 92.054C146.926 91.228 146.434 89.7085 146.434 89.7085ZM134.776 94.7431L133.191 86.6727L137.812 90.9506L134.776 94.7431Z" fill="#263238"/>
<path d="M128.841 125.571C128.187 125.571 127.921 125.327 127.822 125.176C127.683 124.965 127.575 122.834 127.521 121.583L127.316 109.12C127.138 108.638 125.938 105.391 125.868 105.05C125.841 104.914 125.709 104.791 125.54 104.628C125.33 104.443 125.146 104.231 124.991 103.998C124.991 103.974 123.568 101.698 123.662 101.134C123.731 100.718 126.375 98.7675 127.62 97.8691L118.482 79.3257V79.2865L118.696 74.8217L133.438 72.0361L134.551 74.0288C134.774 74.2519 137.454 76.9441 139.163 78.9187C140.945 80.9717 146.501 89.5395 146.558 89.6269L146.573 89.6631C146.595 89.7264 147.065 91.2127 147.065 92.0538C147.065 92.9823 146.233 93.6998 145.946 93.8445C145.66 93.9892 136.387 98.9996 135.528 99.4639C134.415 105.062 132.326 115.623 132.302 115.991C132.302 116.153 132.703 116.557 133.071 116.835L133.119 116.871V116.931C133.218 117.576 133.42 118.2 133.52 118.27C133.797 118.36 137.137 118.288 138.232 118.27H138.835C138.92 118.264 139.006 118.28 139.084 118.317C139.162 118.354 139.228 118.41 139.278 118.481C139.429 118.707 139.395 119.066 139.181 119.584C138.811 120.47 134.879 123.187 134.545 123.319C134.021 123.468 133.489 123.582 132.95 123.66L132.754 124.311L132.709 124.341C132.694 124.341 132.26 124.643 130.469 125.246C129.947 125.441 129.398 125.551 128.841 125.571ZM118.79 79.2594L128.003 97.9656L127.897 98.038C126.04 99.3735 124.06 100.92 123.957 101.191C123.909 101.472 124.678 102.925 125.247 103.838C125.388 104.05 125.557 104.243 125.748 104.411C125.944 104.557 126.089 104.76 126.164 104.993C126.218 105.264 127.225 108.008 127.608 109.039V109.09L127.813 121.574C127.876 123.102 127.988 124.833 128.069 125.02C128.132 125.11 128.558 125.58 130.372 124.95C131.103 124.721 131.814 124.436 132.501 124.097L132.718 123.374L132.811 123.358C133.359 123.28 133.902 123.167 134.436 123.021C134.783 122.885 138.587 120.214 138.904 119.448C139.136 118.891 139.07 118.692 139.031 118.631C138.991 118.571 138.979 118.553 138.838 118.553H138.235C134.882 118.625 133.568 118.619 133.381 118.526C133.08 118.375 132.899 117.471 132.826 117.019C132.609 116.85 131.985 116.337 131.985 115.969C131.985 115.602 134.9 100.986 135.232 99.3162V99.2469L135.295 99.2137C135.711 98.9876 145.509 93.6938 145.784 93.5551C146.058 93.4164 146.736 92.7683 146.736 92.0477C146.736 91.3272 146.32 89.9374 146.266 89.7656C145.986 89.3315 140.637 81.1044 138.91 79.1086C137.14 77.0677 134.325 74.2489 134.295 74.2188L134.27 74.1856L133.254 72.3768L118.959 75.075L118.79 79.2594ZM134.692 95.0926L132.953 86.2474L138.018 90.9353L134.692 95.0926ZM133.426 87.0976L134.861 94.3962L137.608 90.9655L133.426 87.0976Z" fill="#263238"/>
<path d="M123.591 52.3503C123.591 52.3503 126.5 54.0145 127.851 55.9378C129.202 57.8612 129.931 60.0439 130.564 61.3944C131.197 62.745 132.331 70.0225 132.696 70.6466C133.06 71.2706 133.422 71.7379 133.371 72.2052C133.32 72.6725 130.823 73.6613 128.174 74.2341C126.689 74.5699 125.173 74.7437 123.651 74.7526C123.651 74.7526 123.754 69.8145 123.651 69.2447C123.549 68.675 118.557 54.5873 118.557 54.3792C118.557 54.1712 119.38 52.9231 123.591 52.3503Z" fill="white"/>
<path d="M123.762 74.9033H123.493V74.7525C123.53 73.0492 123.575 69.715 123.493 69.2748C123.439 68.9733 121.959 64.7317 120.654 60.9844C118.775 55.5941 118.396 54.4817 118.396 54.3822C118.396 54.0807 119.276 52.7874 123.569 52.2056H123.62L123.665 52.2297C123.783 52.299 126.62 53.93 127.973 55.8473C128.872 57.2088 129.619 58.6645 130.201 60.1885C130.373 60.6015 130.536 60.9964 130.689 61.3281C131.039 62.0878 131.543 64.6261 131.983 66.8661C132.317 68.5573 132.664 70.3089 132.815 70.5681C132.881 70.6827 132.95 70.7942 133.014 70.8997C133.315 71.3761 133.559 71.7891 133.511 72.2202C133.436 72.8955 130.376 73.9054 128.193 74.3757C126.738 74.7007 125.253 74.8775 123.762 74.9033ZM123.566 52.507C119.752 53.0346 118.742 54.138 118.703 54.3852C118.742 54.557 119.861 57.7737 120.946 60.8849C122.58 65.5758 123.741 68.9221 123.795 69.2175C123.891 69.7451 123.819 73.7396 123.795 74.6018C125.254 74.5763 126.706 74.4036 128.13 74.0863C131.145 73.4351 133.162 72.4734 133.21 72.19C133.258 71.9067 133.032 71.5057 132.758 71.0595C132.691 70.951 132.622 70.8394 132.556 70.7219C132.387 70.4355 132.115 69.0939 131.687 66.9264C131.25 64.7045 130.753 62.1842 130.418 61.4577C130.261 61.12 130.096 60.7251 129.921 60.3061C129.349 58.8032 128.614 57.3676 127.729 56.0252C126.502 54.2767 123.927 52.7241 123.563 52.507H123.566Z" fill="#263238"/>
<path d="M126.262 73.7818L126.027 73.5949C126.21 73.3609 126.38 73.1162 126.534 72.8623L126.79 73.0221C126.63 73.2856 126.453 73.5393 126.262 73.7818Z" fill="#263238"/>
<path d="M127.228 72.2626L126.966 72.1209C128.449 69.3805 129.938 64.9791 129.953 64.9338L130.24 65.0303C130.225 65.0635 128.726 69.5011 127.228 72.2626Z" fill="#263238"/>
<path d="M128.117 72.1298L127.834 72.0273C128.268 70.7973 129.721 66.8722 129.736 66.833L130.02 66.9355C130.005 66.9777 128.551 70.8998 128.117 72.1298Z" fill="#263238"/>
<path d="M123.05 53.1192C124.803 53.6641 126.286 54.8477 127.207 56.4354C128.687 59.0552 132.733 64.753 133.701 66.9868C134.287 68.3382 134.708 69.7553 134.955 71.2074C134.955 71.2074 135.525 68.7595 134.328 65.1117C133.131 61.4639 129.203 55.7661 129.203 55.7661C129.203 55.7661 139.453 53.0891 139.754 52.7514C140.056 52.4138 140.152 51.7264 140.041 51.5455C139.929 51.3647 136.001 41.3257 136.001 41.3257L133.532 41.5156L134.229 49.0524L125.628 48.7117C125.628 48.7117 123.689 47.5058 123.234 47.6867C122.779 47.8676 118.507 51.1054 118.507 51.1054C118.507 51.1054 121.567 53.1192 123.05 53.1192Z" fill="#84041C"/>
<path d="M134.916 71.9972L134.801 71.2013C134.558 69.7644 134.141 68.3623 133.559 67.0259C132.992 65.7206 131.362 63.2214 129.785 60.8036C128.703 59.1425 127.675 57.5718 127.072 56.5016C126.169 54.9616 124.728 53.8111 123.026 53.2728C121.519 53.2548 118.531 51.2801 118.404 51.1957L118.229 51.0781L118.398 50.9515C118.835 50.6169 122.7 47.6866 123.165 47.5117C123.629 47.3369 125.148 48.2172 125.655 48.5307L134.045 48.8623L133.348 41.3587L136.083 41.1477L136.122 41.2532C137.198 44.0026 140.017 51.2017 140.152 51.4489C140.288 51.6962 140.152 52.4559 139.851 52.8206C139.549 53.1854 132.07 55.145 129.441 55.8353C130.113 56.8302 133.393 61.7743 134.464 65.0392C135.67 68.681 135.118 71.1139 135.097 71.2133L134.916 71.9972ZM118.751 51.0601C119.423 51.4912 121.826 52.9714 123.047 52.9714H123.083C124.877 53.5162 126.398 54.7219 127.337 56.3448C127.94 57.409 128.956 58.9736 130.05 60.6317C131.633 63.0616 133.27 65.5698 133.849 66.8993C134.308 67.9696 134.67 69.0796 134.928 70.2155C135.002 68.4904 134.754 66.7666 134.195 65.1327C133.017 61.5482 129.125 55.8836 129.085 55.8293L128.965 55.6514L129.173 55.5972C133.188 54.5481 139.29 52.8839 139.643 52.6156C139.854 52.3251 139.949 51.9657 139.908 51.6087C139.794 51.4369 136.634 43.3605 135.893 41.4673L133.689 41.6361L134.388 49.1728L125.57 48.8231L125.537 48.8051C124.633 48.2473 123.514 47.7017 123.276 47.7921C122.963 47.9067 120.463 49.7607 118.754 51.057L118.751 51.0601Z" fill="#263238"/>
<path d="M133.516 41.4944L133.196 40.168H135.925L136.136 41.3226L133.516 41.4944Z" fill="white"/>
<path d="M133.409 41.6541L133.017 40.0171H136.061L136.324 41.4641L133.409 41.6541ZM133.409 40.3186L133.653 41.3345L135.977 41.1838L135.817 40.3186H133.409Z" fill="#263238"/>
<path d="M126.869 53.734C126.097 52.908 124.475 52.0639 124.457 52.0548L124.596 51.7896C124.665 51.8227 126.281 52.6638 127.086 53.529L126.869 53.734Z" fill="#263238"/>
<path d="M125.635 50.2068L125.362 50.3352L126.729 53.2403L127.002 53.1119L125.635 50.2068Z" fill="#263238"/>
<path d="M158.656 63.9901L152.762 48.5428L149.639 52.3865L85.2058 0L68.417 54.2134L32.0235 50.7736L31.3994 57.3789L73.1591 61.3251L88.6396 11.3383L145.455 57.5326L142.331 61.3733L158.656 63.9901Z" fill="#263238"/>
<path d="M115.44 51.2167C115.44 51.2167 111.536 55.7809 111.37 56.4954C111.204 57.2099 114.891 67.276 114.891 67.276L107.521 75.8016C107.521 75.8016 109.007 78.8163 113.957 81.4119C118.907 84.0076 122.645 84.3814 122.865 84.3271C123.085 84.2729 124.406 77.0105 124.674 73.9867C124.942 70.963 124.674 69.3109 124.674 69.3109L122.151 60.8426L120.83 55.5608L116.926 51.3403L116.375 50.46L115.44 51.2167Z" fill="#84041C"/>
<path d="M122.781 84.481C122.024 84.481 118.407 83.9052 113.885 81.5447C108.95 78.9671 107.448 75.9946 107.385 75.868L107.343 75.7776L114.717 67.246C114.219 65.8833 111.054 57.1829 111.22 56.4624C111.385 55.7418 114.925 51.5876 115.32 51.1173L115.338 51.0992L116.408 50.2219L117.047 51.2469L120.966 55.4886L122.296 60.8065L124.825 69.2839C124.84 69.3713 125.105 71.0053 124.825 74.014C124.677 75.6359 124.249 78.331 123.893 80.3117C123.164 84.4207 123.01 84.4599 122.896 84.487C122.857 84.489 122.819 84.487 122.781 84.481ZM107.708 75.8228C108.009 76.3323 109.652 78.9912 114.038 81.2794C118.714 83.7213 122.26 84.1796 122.781 84.1826C123.064 83.4832 124.261 76.9473 124.53 73.9718C124.798 70.9962 124.53 69.3532 124.53 69.3351L122.003 60.894L120.692 55.6454L116.812 51.4248L116.336 50.6681L115.543 51.3223C113.984 53.1311 111.624 56.0313 111.515 56.5287C111.407 57.0261 113.625 63.357 115.03 67.2218L115.06 67.3062L107.708 75.8228Z" fill="#263238"/>
<path d="M124.71 72.6936L118.104 82.7115L122.856 84.3273C122.856 84.3273 124.752 76.5193 124.71 72.6936Z" fill="#84041C"/>
<path d="M122.974 84.5233L117.873 82.7899L124.855 72.1992V72.6906C124.897 76.4982 123.025 84.2852 123.007 84.3635L122.974 84.5233ZM118.334 82.6301L122.754 84.1374C123.01 83.0552 124.451 76.7936 124.563 73.2091L118.334 82.6301Z" fill="#263238"/>
<path d="M123.906 47.1559C123.906 47.1559 124.31 50.2671 124.259 50.9695C124.16 52.0159 123.924 53.0447 123.556 54.0295C123.155 55.0334 122.652 55.9378 122.152 56.1398C121.52 56.3421 120.835 56.288 120.243 55.989C119.791 55.6875 118.085 54.7831 117.53 54.1802C116.975 53.5773 116.125 51.672 116.125 51.672C115.51 51.6868 114.909 51.4922 114.419 51.1203C113.716 50.5173 113.114 49.3627 114.018 48.5608C114.281 48.3288 114.599 48.1695 114.942 48.0986C115.286 48.0278 115.641 48.0478 115.974 48.1568C115.974 48.1568 119.592 45.4436 120.943 44.6959C122.293 43.9483 123.201 44.8467 123.201 44.8467L123.906 47.1559Z" fill="white"/>
<path d="M121.382 56.4112C120.954 56.4254 120.53 56.3211 120.158 56.1098C120.04 56.0314 119.838 55.9138 119.591 55.7661C118.895 55.3591 117.843 54.7411 117.421 54.2798C116.923 53.7372 116.215 52.2118 116.031 51.8199C115.41 51.8155 114.808 51.6032 114.321 51.2169C114.065 51.0091 113.852 50.7518 113.697 50.4602C113.541 50.1686 113.446 49.8487 113.417 49.5196C113.416 49.3117 113.461 49.106 113.548 48.9174C113.636 48.7288 113.764 48.5618 113.923 48.4283C114.196 48.1867 114.525 48.0183 114.881 47.9386C115.236 47.859 115.606 47.8709 115.955 47.9731C116.456 47.5993 119.612 45.2599 120.878 44.5454C121.25 44.3082 121.687 44.1971 122.127 44.2286C122.566 44.2601 122.984 44.4325 123.317 44.7202L123.344 44.7474L124.062 47.1169C124.08 47.2435 124.466 50.2522 124.415 50.9607C124.315 52.0238 124.075 53.069 123.7 54.0688C123.197 55.329 122.696 56.0676 122.211 56.2605C121.946 56.362 121.665 56.4131 121.382 56.4112ZM116.224 51.5154L116.266 51.6118C116.266 51.6299 117.116 53.5021 117.647 54.0809C118.039 54.506 119.067 55.1119 119.757 55.5098C120.01 55.6606 120.221 55.7812 120.342 55.8626C120.891 56.1358 121.524 56.1844 122.108 55.9982C122.5 55.8415 122.971 55.124 123.429 53.9754C123.794 53.006 124.027 51.992 124.122 50.9607C124.17 50.3035 123.803 47.4063 123.773 47.1893L123.085 44.9313C122.934 44.7986 122.16 44.2047 121.032 44.8288C119.703 45.5704 116.118 48.2565 116.082 48.2806L116.016 48.3318L115.937 48.3017C115.63 48.1995 115.3 48.1803 114.983 48.246C114.665 48.3116 114.371 48.4597 114.128 48.6755C114.001 48.7799 113.898 48.9115 113.828 49.0607C113.757 49.2098 113.721 49.3728 113.721 49.5377C113.752 49.8238 113.839 50.101 113.977 50.3535C114.116 50.6059 114.302 50.8286 114.526 51.0089C114.987 51.3551 115.551 51.5366 116.127 51.5244L116.224 51.5154Z" fill="#263238"/>
<path d="M116.881 47.8583C116.881 47.8583 116.528 49.3114 116.981 49.1607C117.433 49.01 119.941 46.9027 119.941 46.9027C119.941 46.9027 119.691 47.6051 120.191 47.5056C120.692 47.4061 122.35 45.1481 122.35 45.1481C122.826 45.5924 123.279 46.0613 123.706 46.553C123.807 46.741 123.874 46.945 123.905 47.1559C123.905 47.1559 124.207 46.0495 124.358 45.3471C124.437 44.9979 124.407 44.6329 124.273 44.3009C124.139 43.969 123.907 43.686 123.607 43.49C123.052 43.1185 122.53 42.6988 122.048 42.2359C121.949 42.0852 119.441 40.5296 118.786 40.6291C118.459 40.6676 118.138 40.7518 117.834 40.8793C117.834 40.8793 116.076 40.8311 115.374 41.7325C114.671 42.6339 113.417 44.4939 113.366 45.2476C113.315 46.0013 114.02 48.5638 114.02 48.5638C114.287 48.5372 114.555 48.5372 114.822 48.5638C115.024 48.612 115.775 49.3657 115.775 49.3657C115.775 49.3657 116.779 48.41 116.881 47.8583Z" fill="#263238"/>
<path d="M115.772 49.5737L115.67 49.4682C115.403 49.183 115.107 48.9272 114.786 48.7055C114.536 48.6813 114.283 48.6813 114.033 48.7055H113.906L113.873 48.5849C113.846 48.4794 113.164 45.9923 113.216 45.2235C113.273 44.3523 114.744 42.2812 115.257 41.627C115.947 40.7226 117.533 40.7226 117.801 40.7226C118.112 40.6019 118.435 40.5189 118.766 40.4754C119.48 40.3608 122.049 41.9586 122.175 42.1455C122.644 42.5874 123.149 42.9907 123.683 43.3514C124.007 43.5645 124.259 43.8714 124.404 44.2312C124.55 44.591 124.582 44.9866 124.497 45.3652C124.349 46.0616 124.047 47.174 124.044 47.174L123.855 47.8704L123.749 47.1559C123.719 46.9643 123.658 46.7789 123.568 46.6073C123.189 46.1677 122.787 45.7491 122.362 45.3531C121.931 45.932 120.698 47.5358 120.213 47.6323C120.143 47.6537 120.069 47.6551 119.999 47.6365C119.928 47.6178 119.865 47.5798 119.815 47.5267C119.753 47.4498 119.72 47.3539 119.721 47.2554C119.013 47.8403 117.403 49.1577 117.008 49.2843C116.958 49.3055 116.903 49.3116 116.849 49.302C116.796 49.2924 116.746 49.2674 116.707 49.2301C116.589 49.0628 116.541 48.8561 116.574 48.6542C116.353 48.936 116.112 49.2019 115.854 49.4501L115.772 49.5737ZM114.518 48.3859C114.632 48.3838 114.746 48.3929 114.859 48.4131C115.196 48.6114 115.501 48.8605 115.763 49.1517C116.065 48.8502 116.598 48.2473 116.707 47.8855C116.707 47.8644 116.707 47.8403 116.722 47.8222L117.023 47.8855C117.023 47.9066 117.023 47.9307 117.005 47.9548C116.894 48.4462 116.86 48.9497 116.933 49.0311C117.234 48.9165 118.838 47.6292 119.839 46.7881L120.261 46.4324L120.077 46.9539C120.026 47.0987 120.002 47.3006 120.047 47.3519C120.092 47.4031 120.101 47.37 120.159 47.3519C120.46 47.2916 121.551 45.9712 122.224 45.0517L122.326 44.913L122.45 45.0306C122.936 45.4845 123.397 45.9646 123.83 46.4686C123.854 46.5075 123.875 46.5478 123.894 46.5892C123.993 46.2123 124.123 45.6848 124.195 45.3109C124.268 44.9905 124.24 44.6556 124.117 44.3511C123.994 44.0466 123.78 43.7872 123.505 43.6076C122.933 43.2281 122.399 42.795 121.91 42.3143C121.711 42.1033 119.335 40.6924 118.796 40.7738C118.485 40.8125 118.181 40.8915 117.891 41.009L117.858 41.027H117.822C117.804 41.027 116.131 40.9909 115.486 41.8229C114.69 42.8449 113.553 44.5814 113.508 45.2537C113.463 45.9259 113.987 47.8855 114.111 48.398C114.235 48.395 114.379 48.3859 114.518 48.3859Z" fill="#263238"/>
<path d="M121.651 50.1375L121.35 50.0953L121.512 48.8894L121.615 48.8653C121.778 48.8261 123.225 48.5095 123.674 49.0673L123.439 49.2572C123.204 48.9557 122.341 49.022 121.784 49.1366L121.651 50.1375Z" fill="#263238"/>
<path d="M121.718 53.8125C121.568 53.812 121.419 53.8009 121.271 53.7794L121.323 53.4779C121.588 53.5201 122.182 53.5442 122.33 53.3392C122.477 53.1342 122.158 52.3233 121.814 51.6359L122.085 51.5002C122.272 51.8741 122.857 53.1191 122.574 53.5141C122.462 53.6241 122.327 53.708 122.179 53.7596C122.031 53.8113 121.874 53.8293 121.718 53.8125Z" fill="#263238"/>
<path d="M121.967 54.5301C121.452 54.4095 120.635 54.31 120.43 54.4547L120.255 54.2105C120.644 53.9332 121.804 54.1834 122.034 54.2347L121.967 54.5301Z" fill="#263238"/>
<path d="M118.498 50.4181L118.274 50.2161C118.69 49.7458 119.975 49.1519 120.029 49.1248L120.156 49.3991C120.156 49.3991 118.874 49.99 118.498 50.4181Z" fill="#263238"/>
<path d="M120.191 51.0449C120.191 51.3072 120.047 51.5213 119.866 51.5213C119.685 51.5213 119.54 51.3072 119.54 51.0449C119.54 50.7826 119.685 50.5686 119.866 50.5686C120.047 50.5686 120.191 50.7796 120.191 51.0449Z" fill="#263238"/>
<path d="M123.158 50.668C123.158 50.9303 123.01 51.1443 122.829 51.1443C122.649 51.1443 122.504 50.9303 122.504 50.668C122.504 50.4057 122.652 50.1917 122.829 50.1917C123.007 50.1917 123.158 50.4057 123.158 50.668Z" fill="#263238"/>
<path d="M114.565 52.4294L114.34 52.6294L116.924 55.5434L117.15 55.3434L114.565 52.4294Z" fill="#263238"/>
<path d="M127.023 41.63L126.742 40.0835L130.043 40.9457L130.387 41.7657L127.023 41.63Z" fill="white"/>
<path d="M130.619 41.9254L126.895 41.7747L126.552 39.8784L130.154 40.819L130.619 41.9254ZM127.149 41.4822L130.163 41.6058L129.94 41.0722L126.926 40.2884L127.149 41.4822Z" fill="#263238"/>
<path d="M126.746 40.0835C126.746 40.0835 126.837 37.0688 126.87 36.9301C126.903 36.7914 128.275 34.4671 128.395 34.3555C128.696 34.2334 129.032 34.2334 129.333 34.3555C129.47 34.5079 129.586 34.6783 129.676 34.862C129.676 34.862 131.642 35.8177 131.763 35.893C131.977 36.104 132.106 36.386 132.127 36.6859C132.111 36.8997 132.044 37.1066 131.931 37.2888C131.806 37.4262 131.666 37.5486 131.512 37.6536C131.342 38.2863 131.126 38.9059 130.867 39.5077C130.614 39.9599 130.044 40.9427 130.044 40.9427L126.746 40.0835Z" fill="white"/>
<path d="M130.116 41.1207L126.589 40.1982V40.0807C126.616 39.1762 126.682 37.0268 126.715 36.8941C127.193 35.9845 127.718 35.1 128.286 34.2442C128.464 34.1591 128.658 34.115 128.854 34.115C129.051 34.115 129.245 34.1591 129.423 34.2442C129.567 34.3933 129.687 34.5642 129.778 34.7507C130.119 34.9165 131.717 35.6943 131.837 35.7696C132.1 36.0106 132.256 36.3455 132.272 36.7012C132.255 36.9409 132.179 37.1729 132.052 37.3765C131.932 37.5205 131.793 37.6473 131.638 37.7533C131.469 38.3803 131.253 38.9939 130.993 39.5893C130.74 40.0445 130.167 41.0273 130.167 41.0273L130.116 41.1207ZM126.899 39.9691L129.971 40.771C130.122 40.5118 130.532 39.8033 130.734 39.4385C130.988 38.8462 131.199 38.2367 131.367 37.6146V37.5634L131.409 37.5332C131.548 37.4408 131.676 37.3325 131.789 37.2107C131.889 37.0468 131.949 36.862 131.964 36.671C131.937 36.426 131.832 36.1963 131.663 36.0168C131.575 35.9626 130.345 35.3626 129.592 34.9948L129.546 34.9737L129.522 34.9285C129.444 34.7613 129.343 34.606 129.221 34.4673C128.979 34.3949 128.721 34.3949 128.479 34.4673C128.365 34.5969 127.071 36.7796 126.999 36.9725C126.993 37.0961 126.936 38.7873 126.899 39.9691Z" fill="#263238"/>
<path d="M113.405 55.0124C113.405 55.0124 114.834 54.7381 115.332 54.8466C115.829 54.9551 117.695 55.7269 117.695 55.7269L126.99 54.7923L126.827 41.2051L130.785 41.3166C130.785 41.3166 131.991 50.3366 132.326 53.0318C132.66 55.7269 133.106 59.637 132.986 59.851C132.865 60.0651 126.109 61.9975 123.526 62.6004C120.942 63.2034 114.892 63.1521 114.892 63.1521" fill="#84041C"/>
<path d="M115.338 63.3029H114.888V63.0015C114.949 63.0015 120.951 63.0497 123.489 62.4558C126.172 61.8257 132.307 60.044 132.85 59.7637C132.892 59.414 132.624 56.749 132.175 53.0499C131.873 50.5598 130.8 42.5708 130.649 41.4644L126.974 41.3619L127.14 54.9281L117.671 55.8807H117.635C117.617 55.8807 115.772 55.115 115.295 55.0095C114.913 54.9251 113.821 55.0999 113.432 55.1753L113.375 54.8738C113.432 54.8738 114.84 54.5935 115.359 54.708C115.829 54.8135 117.448 55.4737 117.716 55.5823L126.836 54.6779L126.67 41.0725L130.915 41.1901L130.933 41.3167C130.933 41.4071 132.139 50.3608 132.473 53.0349C132.841 56.0496 133.251 59.6672 133.118 59.9415C132.94 60.2943 125.256 62.3714 123.556 62.7693C121.367 63.2547 116.794 63.3029 115.338 63.3029Z" fill="#263238"/>
<path d="M116.779 65.0995L116.631 64.8342C118.105 64.0172 120.74 62.8053 120.767 62.7932L120.894 63.0676C120.867 63.0796 118.241 64.2855 116.779 65.0995Z" fill="#263238"/>
<path d="M117.704 67.0953L117.466 66.9084C117.641 66.6853 117.822 66.4592 118.008 66.2361L118.241 66.429C118.057 66.6491 117.876 66.8722 117.704 67.0953Z" fill="#263238"/>
<path d="M118.636 65.9497L118.407 65.7537C119.538 64.4273 120.65 63.2787 120.662 63.2666L120.879 63.4776C120.879 63.4776 119.767 64.6292 118.636 65.9497Z" fill="#263238"/>
<path d="M117.672 55.8746C116.526 55.6877 114.557 55.5008 114.153 55.7932L113.979 55.549C114.615 55.0847 117.406 55.5249 117.72 55.5791L117.672 55.8746Z" fill="#263238"/>
<path d="M133.953 38.911C133.953 38.911 133.516 37.9191 133.2 37.8016C132.883 37.684 131.973 39.2275 131.973 39.2275C131.973 39.2275 132.211 39.5018 132.368 39.5018C132.524 39.5018 133.082 39.0285 133.082 39.0285L134.032 39.7792L133.953 38.911Z" fill="white"/>
<path d="M134.214 40.1168L133.086 39.2124C132.886 39.4124 132.64 39.5604 132.369 39.6435C132.158 39.6435 131.926 39.3933 131.859 39.3149L131.79 39.2335L131.844 39.1401C132.287 38.3864 132.896 37.5151 133.255 37.6508C133.614 37.7865 134.015 38.6637 134.09 38.8386V38.8868L134.214 40.1168ZM133.077 38.8356L133.849 39.4385L133.804 38.9411C133.608 38.4979 133.303 37.9945 133.147 37.9372C133.02 37.9583 132.565 38.5401 132.161 39.2003C132.218 39.265 132.291 39.3146 132.372 39.3451C132.59 39.2245 132.792 39.0777 132.975 38.9079L133.077 38.8356Z" fill="#263238"/>
<path d="M134.916 38.8686C134.916 38.8686 134.123 38.1963 133.885 38.2355C133.646 38.2747 132.778 39.5017 132.857 39.6223C132.935 39.7429 132.974 39.9238 133.251 39.8997C133.524 39.8123 133.779 39.6776 134.005 39.5017L134.756 40.2554L134.916 38.8686Z" fill="white"/>
<path d="M134.858 40.5839L133.974 39.7005C133.761 39.8611 133.518 39.9788 133.26 40.0472C133.156 40.0682 133.047 40.0511 132.954 39.9991C132.862 39.9472 132.79 39.8637 132.754 39.7639L132.717 39.7066C132.695 39.6653 132.684 39.6192 132.684 39.5724C132.684 39.5256 132.695 39.4795 132.717 39.4383C132.847 39.1368 133.525 38.1389 133.836 38.0877C134.095 38.0425 134.671 38.4856 134.987 38.7539L135.048 38.8082L134.858 40.5839ZM134.011 39.3026L134.635 39.9266L134.749 38.9318C134.503 38.6979 134.214 38.5127 133.899 38.3861C133.528 38.7312 133.222 39.1396 132.995 39.592L133.019 39.6312C133.076 39.7367 133.094 39.7759 133.218 39.7578C133.466 39.6779 133.698 39.5532 133.902 39.39L134.011 39.3026Z" fill="#263238"/>
<path d="M135.772 39.2666C135.526 39.0544 135.225 38.9164 134.904 38.8687C134.428 38.8295 133.635 39.9781 133.635 39.9781C133.635 39.9781 133.716 40.6112 134.033 40.5328C134.278 40.4622 134.516 40.3694 134.744 40.2554C134.744 40.2554 135.576 41.0061 135.694 40.8885C135.811 40.7709 135.772 39.2666 135.772 39.2666Z" fill="white"/>
<path d="M135.672 41.0542C135.54 41.0542 135.283 40.9367 134.72 40.4332C134.51 40.5344 134.292 40.6162 134.068 40.6774C134.02 40.691 133.969 40.6937 133.92 40.6853C133.87 40.677 133.823 40.6578 133.782 40.6292C133.608 40.4616 133.501 40.2366 133.48 39.9961V39.9388L133.511 39.8936C133.652 39.6886 134.373 38.6696 134.915 38.7209C135.271 38.7674 135.605 38.9185 135.874 39.155L135.922 39.1972V39.2605C135.965 40.8312 135.847 40.9487 135.802 40.994C135.786 41.013 135.766 41.0284 135.744 41.0388C135.721 41.0492 135.697 41.0545 135.672 41.0542ZM134.768 40.0745L134.846 40.1438C135.078 40.3614 135.331 40.5562 135.6 40.7256C135.631 40.2641 135.639 39.8012 135.624 39.3389C135.412 39.1679 135.158 39.0575 134.888 39.0193C134.641 39.0193 134.108 39.574 133.794 40.0142C133.809 40.1486 133.864 40.2755 133.951 40.3789C133.958 40.3829 133.965 40.385 133.973 40.385C133.981 40.385 133.989 40.3829 133.996 40.3789C134.231 40.3114 134.459 40.2226 134.677 40.1137L134.768 40.0745Z" fill="#263238"/>
<path d="M136.365 41.0061C136.365 41.0061 136.048 38.5521 135.337 38.4737C134.625 38.3954 135.259 39.8605 135.259 39.8605V40.7287L136.407 41.6814L136.365 41.0061Z" fill="white"/>
<path d="M136.576 42.0159L135.108 40.81V39.9056C135.012 39.6765 134.689 38.8414 134.948 38.4917C134.995 38.431 135.058 38.3845 135.13 38.3574C135.202 38.3303 135.28 38.3235 135.355 38.338C136.145 38.4284 136.462 40.5749 136.516 41.003L136.576 42.0159ZM135.41 40.6593L136.236 41.3436L136.217 41.0211C136.091 40.0503 135.729 38.6696 135.313 38.6244C135.214 38.6244 135.189 38.6455 135.18 38.6575C135.057 38.8233 135.232 39.4383 135.388 39.8001V39.8604L135.41 40.6593Z" fill="#263238"/>
<path d="M52.7305 143.272H111.938V145.138C111.938 145.614 111.32 146 110.554 146H54.1143C53.3486 146 52.7305 145.614 52.7305 145.138V143.272Z" fill="#263238"/>
<path d="M102.121 129.593V105.241H62.536V129.593C62.536 132.956 56.0255 139.535 52.9857 142.427C52.8667 142.541 52.7843 142.687 52.7493 142.848C52.7143 143.008 52.7282 143.176 52.7893 143.328C52.8503 143.481 52.9557 143.612 53.0918 143.704C53.2279 143.796 53.3885 143.845 53.5528 143.845H111.116C111.28 143.845 111.441 143.796 111.577 143.704C111.713 143.612 111.818 143.481 111.879 143.328C111.94 143.176 111.954 143.008 111.919 142.848C111.884 142.687 111.802 142.541 111.683 142.427C108.643 139.535 102.121 132.956 102.121 129.593Z" fill="#BFBFBF" stroke="#263238" stroke-width="0.948674" stroke-linecap="round" stroke-linejoin="round"/>
<path d="M94.6865 130.132H99.8077" stroke="#263238" stroke-width="0.948674" stroke-linecap="round" stroke-linejoin="round"/>
<path d="M64.9023 130.132H90.9163" stroke="#263238" stroke-width="0.948674" stroke-linecap="round" stroke-linejoin="round"/>
<g opacity="0.5">
<path d="M58.5742 138.083L69.9167 131.345L71.2607 131.476C71.2607 131.476 56.9749 141.315 59.9183 141.588C62.8616 141.86 69.4856 142.126 69.4856 142.126L56.4702 142.592C56.3072 142.598 56.146 142.556 56.0065 142.472C55.8669 142.387 55.7553 142.264 55.6852 142.116C55.6152 141.969 55.5899 141.805 55.6125 141.643C55.6351 141.482 55.7046 141.33 55.8123 141.208L58.5742 138.083Z" fill="white"/>
<path d="M63.1511 131.209C63.1511 130.807 101.29 131.209 101.29 131.209C101.29 131.209 101.562 133.228 102.64 134.176C103.717 135.123 101.29 132.151 99.5378 132.151C97.7854 132.151 65.1758 131.346 64.2343 132.02C63.2929 132.695 56.5498 140.374 56.5498 140.374L63.1511 131.209Z" fill="white"/>
<path d="M64.0975 113.288L63.9727 126.956C63.9712 127.142 64.0066 127.327 64.0769 127.5C64.1472 127.673 64.251 127.83 64.3823 127.962C64.5136 128.094 64.6697 128.199 64.8418 128.271C65.0139 128.343 65.1984 128.379 65.3848 128.379H100.751V121.778C100.751 121.778 100.212 126.088 98.8678 126.491C97.5237 126.894 67.228 127.994 66.5418 126.627C64.6362 122.986 64.0975 113.288 64.0975 113.288Z" fill="white"/>
</g>
<path d="M102.235 112.341L102.104 112.313C89.0954 109.058 75.4839 109.068 62.4795 112.341V105.337H102.235V112.341Z" fill="#263238"/>
<path d="M163.076 14.121C162.667 13.782 162.183 13.5449 161.664 13.4291C161.413 13.3722 161.156 13.3436 160.899 13.344H3.45379C2.53877 13.344 1.66114 13.7071 1.01359 14.3536C0.366047 15.0001 0.00150249 15.8771 0 16.7921V104.572C0.00500273 105.411 0.3201 106.219 0.884716 106.84C1.20917 107.199 1.60566 107.486 2.04833 107.681C2.49099 107.876 2.9699 107.976 3.45379 107.974H160.899C161.809 107.979 162.684 107.624 163.334 106.987C163.984 106.35 164.356 105.482 164.369 104.572V16.7921C164.366 16.2787 164.249 15.7724 164.025 15.3103C163.801 14.8482 163.477 14.4418 163.076 14.121ZM161.534 104.572C161.534 104.734 161.469 104.89 161.354 105.005C161.24 105.119 161.084 105.184 160.921 105.184H3.45379C3.37288 105.185 3.29262 105.169 3.21765 105.139C3.14268 105.109 3.07449 105.064 3.01702 105.007C2.95954 104.95 2.91392 104.882 2.88278 104.807C2.85165 104.733 2.83562 104.652 2.83562 104.572V16.7921C2.83711 16.6291 2.9029 16.4734 3.01867 16.3587C3.13444 16.244 3.29082 16.1796 3.45379 16.1796H160.899C161.061 16.1796 161.217 16.2441 161.332 16.359C161.447 16.4739 161.511 16.6297 161.511 16.7921L161.534 104.572Z" fill="#263238"/>
<path opacity="0.4" d="M131.579 71.0208C136.299 67.3169 139.554 62.0607 140.767 56.1849L141.215 54.1035L143.455 71.2647C139.495 71.3909 135.531 71.3095 131.579 71.0208Z" fill="white"/>
<g opacity="0.3">
<path opacity="0.4" d="M163.075 14.121L161.799 18.0908L161.51 18.9869L153.831 42.8061L153.026 45.2277L147.031 63.8124L144.678 71.1056V71.1396L143.158 75.8581L138.888 89.0891L138.627 89.9001L136.12 97.7094L136.08 97.8341L135.071 100.948L134.594 102.433L134.26 103.471L133.693 105.173L133.602 105.456L132.78 108.008H114.331L115.148 105.456L115.238 105.173L116.078 102.553L116.418 101.486L117.388 98.458L117.569 97.8908L117.62 97.732L121.023 87.1041L124.29 76.8959L126.235 70.839L126.309 70.6008L127.812 65.9107L128.231 64.595V64.5666L130.318 58.0447L137.124 36.8286V36.7719L143.725 16.1683L143.816 15.8847L144.604 13.4177H161.618C162.154 13.53 162.654 13.7714 163.075 14.121Z" fill="white"/>
</g>
<path opacity="0.2" d="M49.4759 13.4292L48.682 15.8962L48.5912 16.1798L38.1505 48.5512L29.3941 75.7221L25.5263 87.7281L21.0403 101.634L20.9836 101.804L20.0082 104.827L19.8948 105.184L19.804 105.468L18.9817 108.02H3.45384C2.96995 108.022 2.49104 107.922 2.04837 107.727C1.60571 107.531 1.20922 107.245 0.884766 106.886L2.55211 101.674L2.83567 100.789L3.10222 99.9553L3.17027 99.7398L3.23833 99.5299L4.59942 95.2879L11.5864 73.4649L22.8495 38.3033L29.9612 16.1798L30.0519 15.8962L30.8402 13.4292H49.4759Z" fill="white"/>
<path opacity="0.3" d="M0.0849609 96.5129L19.9003 35.0593L20.8871 31.9912L22.6168 26.6375L24.2047 21.7092L26.8759 13.4292H22.0723L17.8416 26.6375L16.1289 31.9912L15.1478 35.0593L0.0849609 82.0852V96.5129Z" fill="white"/>
</svg>
