<svg width="188" height="173" viewBox="0 0 188 173" fill="none" xmlns="http://www.w3.org/2000/svg">
<path d="M2.58263 89.6536C3.80649 90.1888 6.8091 90.1337 6.8091 90.1337C6.8091 90.1337 6.16372 88.1661 6.10862 88.0559C5.44356 86.6707 3.36574 84.404 1.69325 84.6243C1.41387 84.67 1.14721 84.7739 0.910583 84.9293C0.673959 85.0847 0.472664 85.2881 0.319768 85.5264C0.166872 85.7646 0.0657937 86.0324 0.0230953 86.3122C-0.019603 86.5921 -0.00296631 86.8778 0.0719251 87.1508C0.339523 88.3314 1.53978 89.201 2.58263 89.6536Z" fill="#263238"/>
<path d="M3.61435 98.323C4.88544 98.5079 7.54962 97.7327 7.76606 97.6737C8.20721 99.2018 8.74883 100.699 9.38739 102.156C9.75337 103.006 10.1508 103.852 10.568 104.694C10.324 104.336 10.1036 104.017 10.0682 103.978C9.07257 102.825 6.47135 101.188 4.90118 101.853C4.64308 101.97 4.4127 102.141 4.22513 102.354C4.03756 102.567 3.89702 102.817 3.81269 103.087C3.72837 103.358 3.70217 103.644 3.7358 103.925C3.76944 104.207 3.86215 104.478 4.00788 104.722C4.58636 105.776 5.97551 106.296 7.101 106.461C8.22649 106.626 10.5326 106.012 11.1346 105.843C11.296 106.162 11.4534 106.485 11.6147 106.807C12.4018 108.346 13.1652 109.881 13.8815 111.408C14.1373 111.947 14.3655 112.486 14.5977 113.025C14.3812 112.706 14.2042 112.443 14.1609 112.403C13.1652 111.254 10.564 109.613 8.99386 110.282C8.73673 110.4 8.50731 110.571 8.32047 110.784C8.13363 110.996 7.99355 111.246 7.90932 111.516C7.82509 111.786 7.79858 112.071 7.83153 112.352C7.86447 112.633 7.95613 112.904 8.10056 113.147C8.67904 114.202 10.0682 114.721 11.1937 114.887C12.3192 115.052 14.4009 114.493 15.1289 114.3C15.3493 114.859 15.5736 115.418 15.7586 115.969C15.8806 116.362 16.0222 116.705 16.1206 117.094C16.219 117.484 16.3331 117.854 16.4394 118.228C16.6125 118.956 16.7975 119.707 16.951 120.42C17.0612 120.919 17.1556 121.392 17.254 121.872C17.01 121.332 16.5063 120.298 16.4669 120.207C15.6602 118.916 13.3187 116.901 11.6816 117.322C11.406 117.399 11.1496 117.533 10.9295 117.716C10.7094 117.899 10.5307 118.126 10.4049 118.383C10.2792 118.64 10.2095 118.921 10.2003 119.207C10.1911 119.493 10.2426 119.777 10.3515 120.042C10.7451 121.171 12.0594 121.899 13.1456 122.23C14.3458 122.596 16.9943 122.261 17.3248 122.23C17.4862 123.017 17.6318 123.804 17.7577 124.524C18.045 126.137 18.2575 127.582 18.4188 128.806H19.5364C19.3436 127.538 19.0878 126.031 18.7494 124.339C18.588 123.552 18.4031 122.678 18.2063 121.797C19.005 121.478 19.7843 121.113 20.5399 120.703C21.4096 121.647 23.6488 122.753 23.9361 122.895C23.6331 123.642 23.33 124.367 23.031 125.047C22.4131 126.468 21.8268 127.731 21.3073 128.806H22.5154C22.9601 127.814 23.452 126.688 23.9636 125.441C24.2745 124.681 24.5933 123.867 24.912 123.021C25.2347 123.088 27.8556 123.623 29.0795 123.347C30.1892 123.095 31.5351 122.47 32.0309 121.38C32.1559 121.126 32.2262 120.848 32.2371 120.565C32.2481 120.282 32.1995 120 32.0945 119.737C31.9895 119.474 31.8305 119.236 31.6277 119.038C31.4249 118.841 31.1829 118.688 30.9172 118.59C29.2998 118.047 26.8324 119.884 25.9273 121.108C25.8762 121.179 25.3842 122.029 25.0852 122.568C25.2111 122.226 25.341 121.891 25.4787 121.537C25.7345 120.833 25.9706 120.124 26.2303 119.361C26.3405 118.987 26.4546 118.613 26.5648 118.231C26.675 117.85 26.7655 117.444 26.8718 117.051C27.0922 116.13 27.2653 115.182 27.4267 114.225C28.0406 114.45 30.2404 115.217 31.3619 115.134C32.4835 115.052 33.9198 114.639 34.577 113.631C34.7392 113.399 34.8507 113.135 34.9043 112.857C34.9579 112.578 34.9525 112.292 34.8883 112.016C34.8241 111.74 34.7026 111.48 34.5317 111.254C34.3608 111.028 34.1443 110.84 33.8962 110.703C32.3812 109.916 29.6658 111.364 28.5876 112.439C28.5207 112.506 27.832 113.364 27.4621 113.84C27.5526 113.265 27.647 112.691 27.7179 112.104C27.9304 110.416 28.0878 108.696 28.257 106.988C28.3082 106.461 28.3632 105.942 28.4183 105.414C28.6387 105.497 31.2321 106.461 32.5071 106.375C33.6444 106.292 35.065 105.875 35.7222 104.867C35.8851 104.636 35.9972 104.372 36.0515 104.094C36.1057 103.816 36.1007 103.53 36.0368 103.254C35.9729 102.978 35.8516 102.719 35.6808 102.493C35.51 102.267 35.2934 102.08 35.0453 101.943C33.5303 101.156 30.811 102.601 29.7327 103.675C29.654 103.758 28.6663 104.993 28.4301 105.32C28.5521 104.167 28.682 103.022 28.8591 101.896C29.0884 100.374 29.417 98.8692 29.8429 97.3903C29.9413 97.4297 32.6448 98.4528 33.9553 98.3584C35.0886 98.2797 36.5132 97.8625 37.1664 96.8551C37.3294 96.6231 37.4416 96.3594 37.4958 96.0812C37.5501 95.8029 37.5451 95.5164 37.4813 95.2402C37.4174 94.964 37.2961 94.7043 37.1252 94.4781C36.9544 94.2519 36.7378 94.0642 36.4896 93.9273C34.9745 93.1402 32.2592 94.5884 31.177 95.6627C31.0943 95.7454 30.0318 97.0755 29.8547 97.3313C29.8823 97.2447 29.898 97.1542 29.9255 97.0676C30.3925 95.5983 30.9891 94.1734 31.7082 92.8097C32.1017 92.0502 32.4953 91.3457 32.9282 90.6689C33.4122 90.9129 35.6356 91.9911 36.8201 92.0384C38.0047 92.0856 39.4174 91.8259 40.1809 90.8971C40.3681 90.6845 40.5084 90.4349 40.5928 90.1645C40.6772 89.8941 40.7038 89.6089 40.6707 89.3276C40.6377 89.0462 40.5458 88.775 40.4011 88.5315C40.2563 88.288 40.062 88.0777 39.8306 87.9142C38.4061 86.9697 35.549 88.107 34.3606 89.0554C34.2937 89.1066 33.6955 89.7047 33.2627 90.1455C33.4555 89.8425 33.6562 89.5277 33.8411 89.2404C34.5534 88.1661 35.2736 87.2295 35.915 86.3991C36.2849 85.9348 36.6312 85.5176 36.9579 85.132C37.556 85.132 39.9683 85.0493 41.023 84.5535C42.0777 84.0576 43.2307 83.1683 43.4786 81.9916C43.5463 81.7167 43.5554 81.4305 43.5054 81.1518C43.4553 80.8731 43.3471 80.608 43.1879 80.3738C43.0287 80.1396 42.822 79.9416 42.5812 79.7925C42.3404 79.6434 42.071 79.5466 41.7904 79.5085C40.0943 79.3235 38.0794 81.6493 37.4616 83.0502C37.4065 83.1722 36.7887 85.1477 36.8162 85.1477H36.8556C36.5329 85.5098 36.1944 85.9033 35.8324 86.3283C35.1673 87.1429 34.4275 88.0677 33.6877 89.1302C32.878 90.2664 32.1356 91.449 31.4642 92.6719C30.7059 94.039 30.0698 95.4705 29.5635 96.9496C29.5648 96.9679 29.5648 96.9863 29.5635 97.0047C29.5635 96.5049 29.5635 95.1079 29.536 94.9977C29.3431 93.4905 28.076 90.6886 26.3877 90.3777C26.108 90.3337 25.8221 90.3491 25.5488 90.4231C25.2754 90.497 25.0207 90.6277 24.8012 90.8067C24.5818 90.9856 24.4025 91.2089 24.2752 91.4618C24.1478 91.7147 24.0752 91.9916 24.062 92.2745C23.9636 93.4551 24.8491 94.675 25.6794 95.4227C26.6357 96.2806 29.292 97.107 29.5045 97.1699C29.0269 98.6869 28.6522 100.234 28.3829 101.802C28.2176 102.715 28.0838 103.64 27.9579 104.556C27.9579 104.124 27.9579 103.738 27.9579 103.683C27.7612 102.172 26.494 99.354 24.8097 99.0628C24.53 99.0188 24.2441 99.0343 23.9707 99.1082C23.6974 99.1821 23.4427 99.3128 23.2232 99.4918C23.0038 99.6708 22.8245 99.894 22.6971 100.147C22.5697 100.4 22.4971 100.677 22.484 100.96C22.3856 102.14 23.271 103.36 24.1014 104.108C24.9317 104.856 27.2142 105.627 27.8123 105.82C27.7651 106.174 27.7179 106.532 27.6746 106.886C27.4699 108.598 27.281 110.306 27.0292 111.978C26.9466 112.565 26.8403 113.159 26.734 113.718C26.734 113.324 26.734 113.013 26.734 112.962C26.5373 111.455 25.2741 108.633 23.5858 108.342C23.3059 108.298 23.0198 108.314 22.7462 108.388C22.4727 108.461 22.2177 108.592 21.998 108.771C21.7782 108.95 21.5986 109.173 21.4708 109.426C21.343 109.679 21.2698 109.956 21.2562 110.239C21.1578 111.439 22.0432 112.639 22.8775 113.387C23.7118 114.135 25.7699 114.835 26.4783 115.064C26.3523 115.65 26.2303 116.244 26.0847 116.803C25.9785 117.197 25.8998 117.563 25.766 117.944C25.6322 118.326 25.5259 118.692 25.4079 119.062C25.1481 119.766 24.8884 120.494 24.6208 121.175C24.4359 121.651 24.2548 122.1 24.0738 122.552C24.1643 121.966 24.3217 120.817 24.3217 120.723C24.298 119.375 23.9266 118.056 23.2435 116.894C23.2482 116.745 23.2389 116.596 23.2159 116.449C23.181 116.168 23.0872 115.897 22.9406 115.654C22.7939 115.412 22.5978 115.203 22.3649 115.041C22.132 114.88 21.8677 114.769 21.5892 114.717C21.3106 114.664 21.0242 114.671 20.7485 114.737C19.1036 115.174 18.0568 118.066 17.9938 119.589C17.9938 119.676 18.0489 120.656 18.0961 121.273C18.0135 120.915 17.9348 120.565 17.8482 120.199C17.6751 119.467 17.4783 118.747 17.2737 117.968C17.1635 117.598 17.0494 117.22 16.9313 116.842C16.8132 116.465 16.6676 116.055 16.5378 115.689C16.2111 114.8 15.8412 113.911 15.4438 113.025C16.0813 112.872 18.3362 112.297 19.2452 111.601C20.1543 110.904 21.1027 109.779 21.0948 108.574C21.103 108.291 21.0512 108.009 20.943 107.747C20.8348 107.485 20.6725 107.249 20.4667 107.054C20.2609 106.859 20.0163 106.709 19.7489 106.615C19.4815 106.521 19.1972 106.485 18.9147 106.508C17.2186 106.693 15.7665 109.393 15.4398 110.884C15.4398 110.975 15.3218 112.065 15.2785 112.675C15.0345 112.144 14.7984 111.612 14.5347 111.101C13.7752 109.574 12.9606 108.055 12.1736 106.532C11.9256 106.068 11.6856 105.599 11.4416 105.135C11.6698 105.08 14.3655 104.454 15.3769 103.675C16.282 102.986 17.2382 101.853 17.2304 100.649C17.2379 100.366 17.1858 100.084 17.0773 99.8222C16.9689 99.5605 16.8066 99.3245 16.6009 99.1296C16.3953 98.9348 16.151 98.7854 15.8838 98.6911C15.6166 98.5969 15.3326 98.56 15.0502 98.5827C13.3541 98.7677 11.902 101.467 11.5754 102.959C11.5518 103.069 11.4101 104.647 11.3944 105.048C10.8592 104.021 10.3358 102.99 9.86355 101.955C9.2162 100.56 8.66016 99.1249 8.19894 97.6579C8.30519 97.6343 11.1228 96.9929 12.1618 96.194C13.0669 95.5014 14.0231 94.372 14.0153 93.1678C14.0228 92.8846 13.9707 92.603 13.8622 92.3412C13.7538 92.0795 13.5914 91.8436 13.3858 91.6487C13.1802 91.4538 12.9358 91.3044 12.6687 91.2102C12.4015 91.116 12.1175 91.079 11.8351 91.1018C10.139 91.2867 8.68691 93.9863 8.36028 95.4778C8.33667 95.5958 8.1832 97.288 8.17926 97.5989C8.15171 97.5123 8.1163 97.4257 8.09268 97.3431C7.66193 95.8601 7.36429 94.3416 7.20331 92.8057C7.10887 91.9557 7.06558 91.1411 7.04197 90.3501C7.57717 90.2832 10.0288 89.9566 11.0441 89.3427C12.0594 88.7288 13.0944 87.7332 13.2164 86.5368C13.2571 86.2546 13.2375 85.9669 13.1589 85.6927C13.0803 85.4185 12.9445 85.1641 12.7605 84.9462C12.5764 84.7283 12.3483 84.5519 12.0911 84.4286C11.8339 84.3053 11.5536 84.2379 11.2684 84.2308C9.56448 84.2308 7.80541 86.7494 7.33318 88.1975C7.30563 88.2762 7.13642 89.1066 7.01836 89.7126C7.01836 89.3545 7.01836 88.9846 7.01836 88.6422C7.01836 87.3515 7.10493 86.1709 7.18364 85.128C7.2348 84.5338 7.29383 83.9947 7.35286 83.4949C7.84476 83.1565 9.81633 81.7634 10.4224 80.7678C11.0284 79.7721 11.5006 78.4066 11.0559 77.2772C10.9605 77.0134 10.8111 76.7723 10.6173 76.5695C10.4234 76.3666 10.1895 76.2064 9.93029 76.099C9.67109 75.9916 9.39237 75.9395 9.11188 75.9458C8.8314 75.9522 8.55532 76.0169 8.30126 76.1359C6.78618 76.923 6.38478 79.9689 6.63664 81.4722C6.66025 81.5981 7.23086 83.5893 7.25841 83.5736L7.28596 83.5539C7.21906 84.034 7.15609 84.5495 7.09313 85.128C6.99081 86.1748 6.88062 87.3554 6.85308 88.6698C6.80341 90.0636 6.83626 91.4591 6.95146 92.849C7.07671 94.408 7.3401 95.9527 7.73851 97.4651V97.5163C7.47091 97.0952 6.67992 95.9421 6.60909 95.8595C5.61347 94.7104 3.01226 93.0694 1.44208 93.7384C1.18467 93.8535 0.954206 94.0212 0.765547 94.2307C0.576889 94.4402 0.434218 94.687 0.346724 94.955C0.259231 95.2231 0.228856 95.5065 0.257556 95.787C0.286257 96.0675 0.373397 96.3388 0.513361 96.5836C1.10365 97.6383 2.48099 98.1616 3.61435 98.323Z" fill="#263238"/>
<path d="M32.8532 90.3146C32.8808 90.3146 33.3963 88.3234 33.416 88.1935C33.6246 86.6863 33.1444 83.6483 31.6097 82.9085C31.3508 82.791 31.0701 82.7295 30.7859 82.7281C30.5016 82.7266 30.2203 82.7852 29.9602 82.9C29.7002 83.0148 29.4673 83.1832 29.2768 83.3942C29.0864 83.6052 28.9426 83.854 28.855 84.1245C28.4615 85.2539 28.9652 86.643 29.583 87.5954C30.3189 88.7169 32.8532 90.3107 32.8532 90.3146Z" fill="#263238"/>
<path d="M28.9765 144.952H12.6176L10.5752 126.787H31.0228L28.9765 144.952Z" fill="white" stroke="#263238" stroke-linecap="round" stroke-linejoin="round"/>
<path d="M10.9492 130.116L11.146 131.875H30.4485L30.6492 130.116H10.9492Z" fill="#263238"/>
<path d="M30.0153 135.747L30.2121 133.988H11.3857L11.5825 135.747H30.0153Z" fill="#263238"/>
<path opacity="0.3" d="M24.8328 36.6141L39.0509 22.4078C40.2799 22.9637 41.6395 23.1662 42.9772 22.9926C44.3149 22.819 45.5778 22.2762 46.6243 21.4251C47.6707 20.5739 48.4594 19.4481 48.9018 18.1738C49.3443 16.8995 49.423 15.5271 49.1291 14.2106L43.4702 19.8656C43.4299 19.9061 43.3821 19.9382 43.3294 19.9601C43.2768 19.982 43.2203 19.9933 43.1632 19.9933C43.1062 19.9933 43.0497 19.982 42.997 19.9601C42.9443 19.9382 42.8965 19.9061 42.8563 19.8656L37.9529 14.9701C37.9125 14.9299 37.8804 14.8821 37.8585 14.8294C37.8366 14.7767 37.8253 14.7202 37.8253 14.6632C37.8253 14.6061 37.8366 14.5496 37.8585 14.497C37.8804 14.4443 37.9125 14.3965 37.9529 14.3562L43.6118 8.70125C42.2953 8.40738 40.923 8.48607 39.6487 8.9285C38.3744 9.37093 37.2486 10.1596 36.3974 11.2061C35.5463 12.2525 35.0035 13.5154 34.8299 14.8531C34.6563 16.1908 34.8588 17.5504 35.4147 18.7795L21.1966 32.9858C19.9683 32.4352 18.6112 32.2368 17.2768 32.4128C15.9423 32.5889 14.6831 33.1324 13.6396 33.9827C12.5962 34.8331 11.8097 35.9567 11.368 37.2282C10.9262 38.4996 10.8466 39.8689 11.138 41.1829L16.7969 35.528C16.8368 35.4876 16.8843 35.4556 16.9367 35.4338C16.989 35.4119 17.0452 35.4006 17.1019 35.4006C17.1586 35.4006 17.2148 35.4119 17.2672 35.4338C17.3195 35.4556 17.367 35.4876 17.4069 35.528L22.2945 40.4313C22.335 40.4715 22.3671 40.5194 22.389 40.572C22.4109 40.6247 22.4222 40.6812 22.4222 40.7383C22.4222 40.7953 22.4109 40.8518 22.389 40.9045C22.3671 40.9572 22.335 41.005 22.2945 41.0452L16.6474 46.7002C17.9643 46.9939 19.337 46.9146 20.6114 46.4712C21.8857 46.0278 23.0112 45.238 23.8614 44.1903C24.7117 43.1426 25.253 41.8786 25.4246 40.5403C25.5961 39.202 25.3912 37.8424 24.8328 36.6141Z" stroke="black" stroke-linecap="round" stroke-linejoin="round"/>
<path opacity="0.3" d="M53.0745 4.84861L48.7457 3.42798L45.3496 6.46601L46.2862 10.9286L50.615 12.3453L54.0308 9.30727L53.0745 4.84861ZM50.0523 9.65357L48.3365 9.09083L47.9666 7.32389L49.3124 6.14331L51.0243 6.70212L51.3942 8.46906L50.0523 9.65357Z" stroke="black" stroke-linecap="round" stroke-linejoin="round"/>
<path opacity="0.3" d="M150.359 100.909L136.141 115.127C134.912 114.567 133.55 114.361 132.21 114.532C130.869 114.704 129.604 115.246 128.555 116.098C127.506 116.95 126.715 118.077 126.272 119.354C125.829 120.631 125.751 122.005 126.047 123.324L131.722 117.681C131.762 117.64 131.81 117.608 131.863 117.586C131.915 117.564 131.972 117.553 132.029 117.553C132.086 117.553 132.142 117.564 132.195 117.586C132.248 117.608 132.296 117.64 132.336 117.681L137.239 122.588C137.28 122.628 137.312 122.675 137.333 122.728C137.355 122.78 137.366 122.836 137.366 122.893C137.366 122.95 137.355 123.006 137.333 123.058C137.312 123.111 137.28 123.158 137.239 123.198L131.58 128.857C132.897 129.151 134.269 129.072 135.543 128.63C136.818 128.187 137.944 127.399 138.795 126.352C139.646 125.306 140.189 124.043 140.362 122.705C140.536 121.367 140.333 120.008 139.777 118.779L153.988 104.545C155.217 105.101 156.576 105.303 157.914 105.13C159.252 104.956 160.515 104.413 161.561 103.562C162.608 102.711 163.396 101.585 163.839 100.311C164.281 99.0365 164.36 97.6642 164.066 96.3477L158.407 102.007C158.367 102.047 158.319 102.079 158.266 102.101C158.214 102.123 158.157 102.134 158.1 102.134C158.043 102.134 157.986 102.123 157.934 102.101C157.881 102.079 157.833 102.047 157.793 102.007L152.89 97.1032C152.849 97.063 152.817 97.0152 152.795 96.9625C152.773 96.9098 152.762 96.8533 152.762 96.7963C152.762 96.7392 152.773 96.6827 152.795 96.6301C152.817 96.5774 152.849 96.5295 152.89 96.4893L158.549 90.8304C157.232 90.5365 155.86 90.6152 154.585 91.0577C153.311 91.5001 152.185 92.2887 151.334 93.3352C150.483 94.3817 149.94 95.6446 149.767 96.9823C149.593 98.32 149.796 99.6796 150.351 100.909H150.359Z" stroke="black" stroke-linecap="round" stroke-linejoin="round"/>
<path opacity="0.3" d="M122.111 132.686L126.44 134.107L129.832 131.065L128.9 126.606L124.571 125.185L121.175 128.227L122.111 132.686ZM125.134 127.881L126.849 128.444L127.219 130.207L125.874 131.411L124.162 130.848L123.792 129.085L125.134 127.881Z" stroke="black" stroke-linecap="round" stroke-linejoin="round"/>
<path opacity="0.3" d="M142.674 36.6142L156.892 22.4078C158.121 22.9648 159.481 23.1681 160.82 22.995C162.158 22.8219 163.422 22.2793 164.469 21.428C165.516 20.5767 166.305 19.4504 166.748 18.1755C167.19 16.9006 167.269 15.5277 166.974 14.2107L161.311 19.8657C161.272 19.906 161.224 19.938 161.172 19.9599C161.119 19.9817 161.063 19.993 161.006 19.993C160.95 19.993 160.894 19.9817 160.841 19.9599C160.789 19.938 160.741 19.906 160.701 19.8657L155.794 14.9702C155.754 14.93 155.722 14.8821 155.7 14.8295C155.678 14.7768 155.667 14.7203 155.667 14.6632C155.667 14.6062 155.678 14.5497 155.7 14.497C155.722 14.4443 155.754 14.3965 155.794 14.3563L161.465 8.69344C160.148 8.39957 158.776 8.47826 157.502 8.92069C156.227 9.36312 155.102 10.1518 154.25 11.1983C153.399 12.2447 152.856 13.5076 152.683 14.8453C152.509 16.183 152.712 17.5426 153.268 18.7717L139.034 32.9858C137.805 32.43 136.445 32.2275 135.108 32.401C133.77 32.5746 132.507 33.1174 131.46 33.9686C130.414 34.8197 129.625 35.9456 129.183 37.2199C128.74 38.4941 128.662 39.8665 128.956 41.183L134.615 35.528C134.655 35.4876 134.703 35.4555 134.755 35.4336C134.808 35.4117 134.864 35.4004 134.921 35.4004C134.979 35.4004 135.035 35.4117 135.088 35.4336C135.14 35.4555 135.188 35.4876 135.228 35.528L140.136 40.4314C140.176 40.4716 140.208 40.5194 140.23 40.5721C140.252 40.6248 140.263 40.6813 140.263 40.7383C140.263 40.7954 140.252 40.8519 140.23 40.9045C140.208 40.9572 140.176 41.005 140.136 41.0453L134.477 46.7003C135.795 46.9967 137.169 46.9194 138.445 46.4772C139.721 46.035 140.849 45.2454 141.701 44.1973C142.553 43.1491 143.095 41.884 143.267 40.5443C143.439 39.2046 143.234 37.8435 142.674 36.6142Z" stroke="black" stroke-linecap="round" stroke-linejoin="round"/>
<path opacity="0.3" d="M170.908 4.84861L166.58 3.42798L163.188 6.46601L164.12 10.9286L168.449 12.3453L171.841 9.30727L170.908 4.84861ZM167.886 9.65357L166.186 9.09083L165.793 7.32389L167.139 6.14331L168.85 6.70212L169.22 8.46906L167.886 9.65357Z" stroke="black" stroke-linecap="round" stroke-linejoin="round"/>
<path opacity="0.3" d="M178.732 37.6689L174.403 36.2522L171.007 39.2902L171.943 43.7489L176.272 45.1695L179.668 42.1275L178.732 37.6689ZM175.709 42.4739L173.994 41.915L173.624 40.156L174.97 38.9518L176.681 39.5145L177.051 41.2815L175.709 42.4739Z" stroke="black" stroke-linecap="round" stroke-linejoin="round"/>
<path opacity="0.3" d="M80.2679 17.5676L75.9391 16.147L72.5469 19.1889L73.4795 23.6476L77.8083 25.0682L81.2005 22.0263L80.2679 17.5676ZM77.2495 22.3726L75.5337 21.8098L75.1638 20.0468L76.5097 18.8426L78.2215 19.4054L78.5914 21.1684L77.2495 22.3726Z" stroke="black" stroke-linecap="round" stroke-linejoin="round"/>
<path opacity="0.3" d="M72.4563 119.943L68.1276 118.523L64.7354 121.561L65.6719 126.019L70.0007 127.44L73.3929 124.402L72.4563 119.943ZM69.4301 124.764L67.7183 124.201L67.3484 122.434L68.6903 121.23L70.4021 121.793L70.7957 123.56L69.4301 124.764Z" stroke="black" stroke-linecap="round" stroke-linejoin="round"/>
<path opacity="0.3" d="M17.4925 64.7158L13.1637 63.2991L9.77148 66.3371L10.7041 70.7958L15.0329 72.2164L18.4251 69.1744L17.4925 64.7158ZM14.4663 69.5207L12.7544 68.9619L12.3609 67.195L13.7068 65.9908L15.4186 66.5535L15.8121 68.3205L14.4663 69.5207Z" stroke="black" stroke-linecap="round" stroke-linejoin="round"/>
<path opacity="0.3" d="M48.377 123.855L62.5912 109.637C63.8202 110.194 65.1803 110.398 66.5187 110.225C67.8571 110.052 69.1207 109.509 70.1677 108.658C71.2146 107.806 72.0033 106.68 72.4453 105.405C72.8872 104.13 72.9648 102.756 72.6694 101.44L67.0184 107.099C66.9781 107.139 66.9303 107.171 66.8776 107.193C66.8249 107.215 66.7685 107.226 66.7114 107.226C66.6543 107.226 66.5979 107.215 66.5452 107.193C66.4925 107.171 66.4447 107.139 66.4045 107.099L61.509 102.195C61.4685 102.155 61.4364 102.107 61.4145 102.055C61.3926 102.002 61.3813 101.945 61.3813 101.888C61.3813 101.831 61.3926 101.775 61.4145 101.722C61.4364 101.669 61.4685 101.622 61.509 101.581L67.164 95.9224C65.8474 95.6286 64.4751 95.7073 63.2008 96.1497C61.9265 96.5921 60.8007 97.3808 59.9495 98.4273C59.0984 99.4737 58.5556 100.737 58.382 102.074C58.2084 103.412 58.4109 104.772 58.9668 106.001L44.7526 120.219C43.5236 119.663 42.164 119.46 40.8263 119.634C39.4886 119.808 38.2257 120.35 37.1792 121.202C36.1327 122.053 35.3441 123.179 34.9016 124.453C34.4592 125.727 34.3805 127.099 34.6744 128.416L40.3294 122.757C40.3696 122.717 40.4174 122.684 40.4701 122.663C40.5228 122.641 40.5793 122.629 40.6363 122.629C40.6934 122.629 40.7499 122.641 40.8025 122.663C40.8552 122.684 40.903 122.717 40.9433 122.757L45.8466 127.66C45.8871 127.701 45.9192 127.748 45.9411 127.801C45.963 127.854 45.9743 127.91 45.9743 127.967C45.9743 128.024 45.963 128.081 45.9411 128.134C45.9192 128.186 45.8871 128.234 45.8466 128.274L40.1798 133.933C41.4963 134.227 42.8687 134.148 44.143 133.706C45.4173 133.264 46.5431 132.475 47.3943 131.428C48.2454 130.382 48.7882 129.119 48.9618 127.781C49.1354 126.444 48.9329 125.084 48.377 123.855Z" stroke="black" stroke-linecap="round" stroke-linejoin="round"/>
<path opacity="0.3" d="M76.6204 92.0779L72.2916 90.6572L68.8955 93.6992L69.8321 98.1579L74.1609 99.5785L77.557 96.5365L76.6204 92.0779ZM73.5982 96.8828L71.8824 96.3201L71.5125 94.5571L72.8544 93.3529L74.5702 93.9156L74.9401 95.6786L73.5982 96.8828Z" stroke="black" stroke-linecap="round" stroke-linejoin="round"/>
<path d="M95.9942 101.503H85.1211V145.365H95.9942V101.503Z" fill="#263238" stroke="#263238" stroke-linecap="round" stroke-linejoin="round"/>
<path d="M161.926 29.1489H24.7188V112.372H161.926V29.1489Z" fill="#263238" stroke="#263238" stroke-linecap="round" stroke-linejoin="round"/>
<path d="M159.163 29.1489H21.9561V112.372H159.163V29.1489Z" fill="#84041C" stroke="#263238" stroke-linecap="round" stroke-linejoin="round"/>
<path d="M154.216 32.1475H26.8984V109.373H154.216V32.1475Z" fill="white" stroke="#263238" stroke-linecap="round" stroke-linejoin="round"/>
<path d="M154.216 104.722H26.8984V109.373H154.216V104.722Z" fill="white" stroke="#263238" stroke-linecap="round" stroke-linejoin="round"/>
<path d="M91.1537 140.442L50.8447 143.047V145.672H130.274V143.047L91.1537 140.442Z" fill="#263238" stroke="#263238" stroke-linecap="round" stroke-linejoin="round"/>
<path d="M154.216 32.1475H26.8984V109.373H154.216V32.1475Z" fill="white" stroke="#263238" stroke-linecap="round" stroke-linejoin="round"/>
<path d="M175.974 144.952H2.45605" stroke="#263238" stroke-linecap="round" stroke-linejoin="round"/>
<path d="M184.985 144.952H180.313" stroke="#263238" stroke-linecap="round" stroke-linejoin="round"/>
<path d="M150.576 96.3633C150.576 96.3633 151.229 119.581 151.56 123.623C151.89 127.664 152.874 138.301 153.094 140.273C153.315 142.245 152.874 147.833 152.874 147.833L152.327 148.376L152.764 151.13C152.764 151.13 149.257 153.322 147.506 153.98C145.755 154.637 147.943 155.51 149.474 155.731C150.977 155.983 152.518 155.904 153.988 155.499C155.743 155.062 157.923 154.294 158.71 154.184C159.497 154.074 159.891 153.098 159.891 151.886C159.891 150.674 159.78 150.572 159.891 150.021C160.001 149.47 159.34 147.175 159.229 146.628C159.119 146.081 160.764 133.701 160.438 129.758C160.111 125.815 159.997 120.447 159.997 119.9C159.997 119.353 159.78 113.655 159.78 113.655C159.78 113.655 161.642 126.248 161.862 126.692C162.083 127.137 165.695 145.42 165.797 146.298C165.9 147.175 165.467 148.159 165.577 148.816C165.687 149.474 166.234 151.445 166.234 151.445C166.234 151.445 165.904 154.405 164.92 155.719C163.936 157.033 163.716 158.127 164.263 158.568C164.81 159.009 166.014 159.005 167.438 158.678C168.863 158.352 168.863 158.568 170.193 157.47C171.523 156.372 171.944 153.2 171.944 152.87C171.944 152.539 172.495 151.445 172.495 150.241C172.495 149.037 172.495 149.584 172.054 147.833C171.614 146.081 171.728 139.289 171.618 135.346C171.507 131.403 170.193 123.513 170.193 121.966C170.193 120.42 169.536 97.536 169.536 97.536C169.536 97.536 159.013 100.759 150.576 96.3633Z" fill="#263238" stroke="#263238" stroke-linecap="round" stroke-linejoin="round"/>
<path d="M155.456 152.055C154.48 152.044 153.535 151.715 152.764 151.119C152.764 151.119 149.257 153.31 147.506 153.968C145.755 154.625 147.943 155.498 149.474 155.719C150.977 155.975 152.517 155.9 153.988 155.498C155.743 155.062 157.923 154.294 158.71 154.184C159.497 154.074 159.891 153.098 159.891 151.886C159.891 151.378 159.871 151.067 159.855 150.835C158.639 151.347 156.62 152.106 155.456 152.055Z" fill="white" stroke="#263238" stroke-linecap="round" stroke-linejoin="round"/>
<path d="M158.238 152.929C156.25 153.086 153.968 155.499 150.922 155.156C149.592 155.043 148.289 154.717 147.062 154.192C146.239 154.81 148.116 155.526 149.478 155.719C150.979 155.974 152.518 155.899 153.988 155.499C155.743 155.062 157.923 154.294 158.71 154.184C159.265 154.105 159.647 153.562 159.816 152.815C159.426 152.838 158.93 152.874 158.238 152.929Z" fill="white" stroke="#263238" stroke-linecap="round" stroke-linejoin="round"/>
<path d="M169.685 152.85C169.046 152.857 168.412 152.736 167.82 152.495C167.228 152.254 166.69 151.897 166.238 151.445C166.238 151.445 165.907 154.404 164.923 155.719C163.94 157.033 163.719 158.127 164.266 158.568C164.813 159.009 166.017 159.005 167.442 158.678C168.867 158.351 168.867 158.568 170.197 157.47C171.527 156.372 171.948 153.2 171.948 152.87C171.968 152.703 172.009 152.539 172.07 152.382C171.316 152.703 170.504 152.862 169.685 152.85Z" fill="white" stroke="#263238" stroke-linecap="round" stroke-linejoin="round"/>
<path d="M170.181 157.47C170.763 156.986 171.177 156.089 171.452 155.211V155.235C171.002 155.957 170.407 156.578 169.703 157.057C169 157.536 168.204 157.863 167.367 158.017C166.24 158.326 165.042 158.25 163.963 157.801C163.946 157.943 163.964 158.087 164.015 158.22C164.065 158.354 164.148 158.473 164.255 158.568C164.802 159.005 166.006 159.005 167.43 158.678C168.855 158.352 168.867 158.568 170.181 157.47Z" fill="white" stroke="#263238" stroke-linecap="round" stroke-linejoin="round"/>
<path d="M150.324 95.6669C150.324 95.6669 150.009 97.1938 150.643 97.9573C151.277 98.7207 153.823 100.374 159.867 100.44C165.912 100.507 168.458 99.1851 169.336 98.5948C170.213 98.0045 169.843 95.478 169.843 95.478C166.976 96.6909 163.92 97.4005 160.812 97.5755C155.987 97.7684 150.324 95.6669 150.324 95.6669Z" fill="#84041C" stroke="#263238" stroke-linecap="round" stroke-linejoin="round"/>
<path d="M155.562 67.7576L150.009 64.8692C150.009 64.8692 143.213 58.919 139.872 56.7113C136.531 54.5037 133.697 55.2396 133.469 57.9588C133.241 60.6781 144.74 69.682 146.849 71.382C148.958 73.0821 149.399 73.9321 149.399 73.9321C149.399 73.9321 149.682 89.1104 149.793 91.5463C149.903 93.9823 149.793 95.6233 150.58 96.3631C151.367 97.1029 155.054 99.3618 160.209 99.0784C165.365 98.7951 167.686 98.2914 168.65 97.5043C169.615 96.7173 170.177 96.0325 170.177 94.6749C170.177 93.3172 171.645 75.1796 171.645 75.1796C171.645 75.1796 181.841 68.2141 184.447 65.8923C187.052 63.5705 187.225 60.2846 185.525 59.9422C183.825 59.5998 179.52 61.7013 177.82 62.7756C176.12 63.8499 170.685 65.55 168.816 66.0615C166.946 66.5731 165.077 67.1359 165.077 67.1359C165.077 67.1359 160.375 68.4345 155.562 67.7576Z" fill="#84041C" stroke="#263238" stroke-linecap="round" stroke-linejoin="round"/>
<path d="M149.387 73.9325L147.663 67.6951" stroke="#263238" stroke-linecap="round" stroke-linejoin="round"/>
<path d="M148.647 71.6971L146.03 66.0579" stroke="#263238" stroke-linecap="round" stroke-linejoin="round"/>
<path d="M171.646 75.1757L173.086 69.8198" stroke="#263238" stroke-linecap="round" stroke-linejoin="round"/>
<path d="M172.106 73.8262L174.07 70.3081" stroke="#263238" stroke-linecap="round" stroke-linejoin="round"/>
<path d="M142.108 60.1746L138.511 62.1343" stroke="#263238" stroke-linecap="round" stroke-linejoin="round"/>
<path d="M178.401 64.834L180.117 66.2231" stroke="#263238" stroke-linecap="round" stroke-linejoin="round"/>
<path d="M155.845 74.3926L154.428 83.5421C154.421 83.5901 154.423 83.6392 154.435 83.6863C154.446 83.7335 154.467 83.7779 154.496 83.817C154.525 83.8561 154.561 83.8892 154.603 83.9143C154.645 83.9393 154.691 83.9559 154.739 83.9632C154.787 83.971 154.836 83.9691 154.884 83.9576C154.931 83.9461 154.976 83.9253 155.015 83.8963C155.054 83.8674 155.087 83.8308 155.112 83.7889C155.137 83.747 155.153 83.7006 155.16 83.6523L156.466 74.7861L155.845 74.3926Z" fill="white" stroke="#263238" stroke-linecap="round" stroke-linejoin="round"/>
<path d="M161.339 74.7232L160.588 83.6995C160.582 83.7593 160.59 83.8194 160.61 83.8759C160.63 83.9324 160.662 83.9838 160.704 84.0268C160.746 84.0697 160.797 84.1031 160.853 84.1248C160.908 84.1464 160.968 84.1557 161.028 84.1521C161.131 84.1464 161.228 84.1032 161.3 84.0306C161.373 83.958 161.416 83.8611 161.422 83.7586L162.024 74.55L161.339 74.7232Z" fill="white" stroke="#263238" stroke-linecap="round" stroke-linejoin="round"/>
<path d="M155.22 67.3603C155.22 67.3603 153.182 69.627 153.013 70.5321C152.843 71.4372 154.429 72.5706 154.429 72.5706C154.429 72.5706 153.642 72.7988 154.201 73.3065C154.76 73.8141 158.054 76.3681 159.018 76.3681C159.982 76.3681 161.17 74.8373 164.134 74.1565C167.097 73.4757 169.175 70.418 168.95 69.0013C168.943 68.8242 168.896 68.651 168.814 68.4938C168.732 68.3366 168.617 68.1992 168.476 68.0912C168.336 67.9832 168.173 67.9073 168 67.8687C167.827 67.8302 167.648 67.8299 167.475 67.8679C167.475 67.8679 168.041 66.6244 167.136 66.0577C166.231 65.491 164.134 65.491 163.114 65.6052C162.095 65.7193 157.77 65.9436 155.22 67.3603Z" fill="#84041C" stroke="#263238" stroke-linecap="round" stroke-linejoin="round"/>
<path d="M163.766 72.8184C163.405 73.1124 163.029 73.3883 162.641 73.6448" stroke="#263238" stroke-linecap="round" stroke-linejoin="round"/>
<path d="M167.454 67.8679C167.454 67.8679 166.096 70.477 165.093 71.6064" stroke="#263238" stroke-linecap="round" stroke-linejoin="round"/>
<path d="M154.429 72.5706L155.845 73.3655" stroke="#263238" stroke-linecap="round" stroke-linejoin="round"/>
<path d="M134.657 60.3358C134.035 59.7692 132.45 58.1832 133.697 56.2589C134.944 54.3346 136.869 55.0114 138.455 55.0114C140.041 55.0114 151.48 57.7858 151.48 57.7858C151.48 57.7858 153.916 53.5947 154.428 52.8588C154.94 52.1229 156.919 52.0718 156.919 52.0718C156.919 52.0718 157.372 52.241 157.147 52.8077C156.923 53.3743 156.522 53.091 156.411 54.3818C156.301 55.6725 155.672 60.328 154.597 60.8946C153.523 61.4613 150.689 60.7805 150.689 60.7805L137.829 61.4062" fill="#BDBDBD"/>
<path d="M134.657 60.3358C134.035 59.7692 132.45 58.1832 133.697 56.2589C134.944 54.3346 136.869 55.0114 138.455 55.0114C140.041 55.0114 151.48 57.7858 151.48 57.7858C151.48 57.7858 153.916 53.5947 154.428 52.8588C154.94 52.1229 156.919 52.0718 156.919 52.0718C156.919 52.0718 157.372 52.241 157.147 52.8077C156.923 53.3743 156.522 53.091 156.411 54.3818C156.301 55.6725 155.672 60.328 154.597 60.8946C153.523 61.4613 150.689 60.7805 150.689 60.7805L137.829 61.4062" stroke="#263238" stroke-linecap="round" stroke-linejoin="round"/>
<path d="M137.829 61.4063L143.362 61.1348C143.05 60.8671 142.799 60.5352 142.626 60.1617C142.454 59.7881 142.364 59.3818 142.363 58.9704C142.385 57.8696 142.732 56.8 143.362 55.8969C141.08 55.3972 139.034 54.9958 138.447 54.9958C136.873 54.9958 134.933 54.315 133.689 56.2432C132.446 58.1715 134.028 59.7535 134.65 60.3202" fill="#84041C"/>
<path d="M137.829 61.4063L143.362 61.1348C143.05 60.8671 142.799 60.5352 142.626 60.1617C142.454 59.7881 142.364 59.3818 142.363 58.9704C142.385 57.8696 142.732 56.8 143.362 55.8969C141.08 55.3972 139.034 54.9958 138.447 54.9958C136.873 54.9958 134.933 54.315 133.689 56.2432C132.446 58.1715 134.028 59.7535 134.65 60.3202" stroke="#263238" stroke-linecap="round" stroke-linejoin="round"/>
<path d="M156.239 52.4615C156.239 52.4615 153.878 57.1642 153.976 57.7309C154.074 58.2975 154.37 58.9783 154.37 59.2027C154.37 59.427 153.126 62.3194 153.35 63.1104C153.575 63.9014 154.531 67.5887 155.448 68.8913C156.365 70.1939 156.975 70.1939 156.975 70.1939C156.975 70.1939 156.522 73.3067 156.865 74.2157C157.207 75.1247 158.336 76.5769 159.017 76.3683C159.698 76.1597 163.432 71.7798 163.775 70.4654C164.117 69.151 164.511 64.6845 164.511 64.6845C164.511 64.6845 165.192 63.4409 165.585 62.8743C166.816 61.384 167.533 59.5356 167.627 57.6049C167.738 54.6614 164.908 51.9421 162.358 51.2062C159.808 50.4703 157.136 51.9618 156.239 52.4615Z" fill="#BDBDBD" stroke="#263238" stroke-linecap="round" stroke-linejoin="round"/>
<path d="M155.786 59.7693C155.786 59.7693 154.542 62.524 154.766 62.6578C155.045 62.8638 155.366 63.0059 155.706 63.074C156.046 63.142 156.397 63.1342 156.734 63.0513C157.808 62.768 157.808 62.2013 157.808 62.2013" stroke="#263238" stroke-linecap="round" stroke-linejoin="round"/>
<path d="M156.888 65.6605C157.045 66.0541 156.967 66.4791 156.719 66.5735C156.471 66.668 156.144 66.4122 155.987 66.0029C155.829 65.5936 155.908 65.1844 156.156 65.0899C156.404 64.9955 156.742 65.2513 156.888 65.6605Z" fill="#263238"/>
<path d="M156.974 70.1939C156.974 70.1939 157.824 70.0798 158.505 69.9105C159.186 69.7413 161.905 67.4746 161.905 67.4746L156.742 73.4208L156.974 70.1939Z" fill="#263238" stroke="#263238" stroke-linecap="round" stroke-linejoin="round"/>
<path d="M158.675 57.3334C158.675 57.3334 160.151 56.4283 160.942 58.1834" stroke="#263238" stroke-linecap="round" stroke-linejoin="round"/>
<path d="M156.298 57.3923C156.056 57.2215 155.759 57.1495 155.466 57.1913C155.173 57.233 154.908 57.3852 154.724 57.6167" stroke="#263238" stroke-linecap="round" stroke-linejoin="round"/>
<path d="M159.585 59.97C159.585 60.2966 159.419 60.5642 159.215 60.5642C159.01 60.5642 158.845 60.2966 158.845 59.97C158.845 59.6434 159.01 59.3718 159.215 59.3718C159.419 59.3718 159.585 59.6394 159.585 59.97Z" fill="#263238"/>
<path d="M155.188 60.206C155.375 60.206 155.526 59.9629 155.526 59.6629C155.526 59.363 155.375 59.1199 155.188 59.1199C155.001 59.1199 154.85 59.363 154.85 59.6629C154.85 59.9629 155.001 60.206 155.188 60.206Z" fill="#263238"/>
<path d="M163.889 64.1294C164.109 64.2922 164.34 64.4395 164.581 64.5701C164.766 64.2356 165.266 63.3423 165.585 62.8858C166.816 61.3955 167.532 59.5472 167.627 57.6165C167.737 54.6729 164.908 51.9537 162.358 51.2178C160.974 50.8816 159.519 50.9932 158.202 51.5365C158.277 51.6821 158.537 51.8474 159.241 51.9537C160.772 52.178 162.582 51.4421 163.546 52.1229C164.51 52.8037 164.908 54.8421 164.058 55.578C163.208 56.3139 161.453 57.5024 162.189 58.4665C162.712 59.0976 163.098 59.8307 163.322 60.6191C163.322 60.8474 162.98 61.0717 163.322 61.1307C163.664 61.1897 164.109 61.2999 164.282 60.7883C164.455 60.2767 165.36 59.4858 165.813 60.3948C166.266 61.3038 165.699 62.3624 165.191 63.055C164.835 63.4984 164.392 63.864 163.889 64.1294Z" fill="#263238" stroke="#263238" stroke-linecap="round" stroke-linejoin="round"/>
<path d="M182.353 65.6051L177.879 65.4359C177.879 65.4359 164.735 62.2051 163.775 61.6974C162.815 61.1898 163.039 59.7298 162.925 59.3717C162.811 59.0136 162.531 57.5024 162.811 57.1089C163.09 56.7154 165.475 54.8973 165.644 54.673C165.813 54.4487 165.361 53.3704 165.475 53.0989C165.589 52.8273 165.868 52.7565 166.152 52.9296C166.32 53.0303 166.443 53.1926 166.494 53.3822C166.494 53.3822 167.061 53.4924 167.568 54.4014C168.076 55.3105 168.19 56.0424 168.08 56.3691C167.97 56.6957 168.588 57.3883 168.474 57.8959C168.247 58.525 167.964 59.1322 167.628 59.7101C167.628 59.7101 178.331 59.2575 180.146 59.2575C181.96 59.2575 186.206 59.0293 186.714 60.0446C187.221 61.0599 186.714 62.819 185.864 64.0114" fill="#BDBDBD"/>
<path d="M182.353 65.6051L177.879 65.4359C177.879 65.4359 164.735 62.2051 163.775 61.6974C162.815 61.1898 163.039 59.7298 162.925 59.3717C162.811 59.0136 162.531 57.5024 162.811 57.1089C163.09 56.7154 165.475 54.8973 165.644 54.673C165.813 54.4487 165.361 53.3704 165.475 53.0989C165.589 52.8273 165.868 52.7565 166.152 52.9296C166.32 53.0303 166.443 53.1926 166.494 53.3822C166.494 53.3822 167.061 53.4924 167.568 54.4014C168.076 55.3105 168.19 56.0424 168.08 56.3691C167.97 56.6957 168.588 57.3883 168.474 57.8959C168.247 58.525 167.964 59.1322 167.628 59.7101C167.628 59.7101 178.331 59.2575 180.146 59.2575C181.96 59.2575 186.206 59.0293 186.714 60.0446C187.221 61.0599 186.714 62.819 185.864 64.0114" stroke="#263238" stroke-linecap="round" stroke-linejoin="round"/>
<path d="M167.627 59.7141L166.057 59.5173" stroke="#263238" stroke-linecap="round" stroke-linejoin="round"/>
<path d="M166.494 53.3706C166.494 53.3706 167.202 54.7794 167.037 55.1887L166.876 55.5822" stroke="#263238" stroke-linecap="round" stroke-linejoin="round"/>
<path d="M168.08 56.373C167.757 56.6882 167.408 56.9752 167.037 57.2309" stroke="#263238" stroke-linecap="round" stroke-linejoin="round"/>
<path d="M185.863 64.0195C186.713 62.8389 187.225 61.072 186.713 60.0527C186.202 59.0335 182.015 59.2657 180.181 59.2657C180.395 59.7452 180.511 60.2623 180.524 60.787C180.537 61.3118 180.446 61.834 180.256 62.3234C179.752 63.7676 178.331 64.7711 177.363 65.3102L177.879 65.4401L182.353 65.6093" fill="#84041C"/>
<path d="M185.863 64.0195C186.713 62.8389 187.225 61.072 186.713 60.0527C186.202 59.0335 182.015 59.2657 180.181 59.2657C180.395 59.7452 180.511 60.2623 180.524 60.787C180.537 61.3118 180.446 61.834 180.256 62.3234C179.752 63.7676 178.331 64.7711 177.363 65.3102L177.879 65.4401L182.353 65.6093" stroke="#263238" stroke-linecap="round" stroke-linejoin="round"/>
<g opacity="0.3">
<path d="M89.8427 50.651C90.2091 49.9558 90.4009 49.1819 90.4015 48.3961C90.4015 47.0581 89.87 45.7749 88.9239 44.8287C87.9778 43.8826 86.6945 43.3511 85.3565 43.3511C84.0185 43.3511 82.7353 43.8826 81.7892 44.8287C80.843 45.7749 80.3115 47.0581 80.3115 48.3961C80.3133 49.1925 80.5087 49.9766 80.881 50.6806C81.2533 51.3847 81.7912 51.9877 82.4484 52.4376C81.7972 52.5556 81.1884 52.8423 80.6827 53.2692C80.1771 53.6962 79.7923 54.2483 79.5668 54.8705C79.3414 55.4927 79.2832 56.1631 79.3979 56.8148C79.5127 57.4666 79.7965 58.0768 80.221 58.5845C79.3898 59.0052 78.6884 59.6435 78.1915 60.4315C77.6946 61.2195 77.4208 62.1276 77.3994 63.0589C77.3994 65.9552 80.04 68.3085 83.3023 68.3085C86.5647 68.3085 89.2052 65.9474 89.2052 63.0589C89.2029 62.3792 89.0539 61.7081 88.7684 61.0913C88.9599 61.107 89.1527 61.1149 89.3469 61.1149C92.7233 61.1149 95.4623 58.7537 95.4623 55.877C95.4387 53.142 92.9909 50.8753 89.8427 50.651Z" fill="black"/>
<path d="M79.0402 44.2289C80.8094 44.2289 82.2435 42.7947 82.2435 41.0256C82.2435 39.2564 80.8094 37.8223 79.0402 37.8223C77.2711 37.8223 75.8369 39.2564 75.8369 41.0256C75.8369 42.7947 77.2711 44.2289 79.0402 44.2289Z" fill="black"/>
<path d="M70.4066 36.8501C70.2142 36.8493 70.0259 36.9057 69.8655 37.012C69.7052 37.1183 69.58 37.2699 69.5058 37.4474C69.4316 37.625 69.4118 37.8205 69.4489 38.0093C69.4859 38.1981 69.5782 38.3717 69.714 38.508C69.8497 38.6444 70.0229 38.7373 70.2116 38.7751C70.4003 38.813 70.5959 38.794 70.7737 38.7205C70.9516 38.6471 71.1036 38.5225 71.2106 38.3625C71.3176 38.2026 71.3747 38.0145 71.3747 37.8221C71.3737 37.5653 71.2715 37.3193 71.0902 37.1373C70.909 36.9554 70.6634 36.8522 70.4066 36.8501Z" fill="black"/>
<path d="M90.0044 38.9752C90.5424 38.9759 91.0685 38.8171 91.5162 38.5188C91.9639 38.2205 92.3131 37.796 92.5195 37.2992C92.7259 36.8024 92.7803 36.2555 92.6758 35.7278C92.5714 35.2001 92.3127 34.7152 91.9325 34.3345C91.5524 33.9538 91.0679 33.6944 90.5403 33.5892C90.0127 33.4839 89.4657 33.5375 88.9686 33.7432C88.4715 33.9489 88.0466 34.2975 87.7476 34.7447C87.4487 35.192 87.2891 35.7179 87.2891 36.2559C87.2885 36.6128 87.3584 36.9663 87.4946 37.2962C87.6309 37.6261 87.8308 37.9259 88.083 38.1785C88.3352 38.431 88.6347 38.6314 88.9644 38.7681C89.2941 38.9048 89.6475 38.9752 90.0044 38.9752Z" fill="black"/>
</g>
<g opacity="0.3">
<path d="M99.1224 17.7246C98.93 17.7246 98.7419 17.7817 98.582 17.8887C98.422 17.9957 98.2975 18.1477 98.224 18.3256C98.1506 18.5034 98.1315 18.6991 98.1694 18.8877C98.2072 19.0764 98.3001 19.2496 98.4365 19.3853C98.5728 19.5211 98.7464 19.6134 98.9352 19.6504C99.124 19.6875 99.3196 19.6677 99.4971 19.5935C99.6746 19.5193 99.8262 19.3941 99.9325 19.2338C100.039 19.0734 100.095 18.8851 100.094 18.6927C100.094 18.5652 100.069 18.439 100.02 18.3213C99.9714 18.2036 99.8998 18.0967 99.8095 18.0068C99.7192 17.9168 99.612 17.8456 99.4941 17.7972C99.3762 17.7488 99.2499 17.7241 99.1224 17.7246Z" fill="black"/>
<path d="M97.0442 9.53921C96.4836 9.83359 96.0228 10.2875 95.72 10.8437C95.4172 11.3998 95.2861 12.0332 95.3431 12.6639C95.4001 13.2946 95.6428 13.8942 96.0405 14.387C96.4381 14.8798 96.9729 15.2436 97.5773 15.4326C98.1817 15.6216 98.8285 15.6273 99.4361 15.4488C100.044 15.2704 100.585 14.9159 100.991 14.4301C101.397 13.9443 101.65 13.349 101.718 12.7195C101.786 12.0899 101.666 11.4543 101.373 10.8929C101.178 10.5191 100.912 10.1874 100.589 9.91684C100.266 9.6463 99.8922 9.44228 99.49 9.31649C99.0877 9.1907 98.6646 9.14562 98.2449 9.18384C97.8252 9.22206 97.4171 9.34283 97.0442 9.53921Z" fill="black"/>
<path d="M118.57 31.4982C118.937 30.803 119.128 30.0291 119.129 29.2433C119.126 28.4764 118.943 27.7208 118.595 27.0374C118.248 26.3539 117.744 25.7616 117.126 25.308C119.515 23.9818 120.79 21.5105 120.404 19.2674C120.71 19.0315 120.962 18.7331 121.144 18.3919C121.325 18.0508 121.432 17.6748 121.457 17.2892C121.481 16.9035 121.423 16.5171 121.287 16.1556C121.15 15.7942 120.938 15.4661 120.664 15.1932C120.39 14.9204 120.062 14.7091 119.7 14.5735C119.338 14.438 118.951 14.3812 118.566 14.407C118.18 14.4328 117.804 14.5406 117.464 14.7232C117.123 14.9058 116.826 15.159 116.591 15.4659C115.239 15.1865 113.834 15.3379 112.573 15.8988C112.575 15.1135 112.386 14.3395 112.022 13.6439C111.715 13.0568 111.295 12.536 110.786 12.1112C110.278 11.6864 109.691 11.3659 109.058 11.168C108.426 10.9701 107.761 10.8987 107.101 10.9579C106.441 11.0171 105.799 11.2057 105.212 11.5129C104.625 11.8201 104.104 12.24 103.679 12.7485C103.254 13.257 102.934 13.8442 102.736 14.4766C102.336 15.7537 102.46 17.1373 103.081 18.3229C103.517 19.1494 104.183 19.8326 104.997 20.2905C104.723 20.7697 104.578 21.3123 104.576 21.8646C104.577 22.2059 104.632 22.5448 104.742 22.8681C104.132 22.7336 103.501 22.7304 102.89 22.8588C102.279 22.9872 101.703 23.2442 101.199 23.6128C100.695 23.9813 100.275 24.4529 99.9681 24.9963C99.6608 25.5396 99.4727 26.1421 99.4164 26.7638C99.36 27.3854 99.4368 28.012 99.6414 28.6017C99.8461 29.1914 100.174 29.7308 100.603 30.1839C101.033 30.637 101.554 30.9935 102.131 31.2296C102.709 31.4657 103.331 31.576 103.955 31.5533C103.342 32.2008 102.941 33.0189 102.804 33.8994C102.667 34.7799 102.801 35.6812 103.187 36.4842C102.377 37.0367 101.776 37.8441 101.478 38.778C101.179 39.7118 101.202 40.7185 101.542 41.6381C101.881 42.5576 102.519 43.3372 103.352 43.853C104.186 44.3687 105.168 44.591 106.143 44.4846C106.457 47.1212 108.96 49.1754 112.002 49.1754C115.261 49.1754 117.905 46.8142 117.905 43.9257C117.902 43.2466 117.755 42.5758 117.472 41.9581C117.661 41.9739 117.854 41.9817 118.051 41.9817C121.427 41.9817 124.162 39.6206 124.162 36.7439C124.154 33.9774 121.687 31.7304 118.57 31.4982Z" fill="black"/>
<path d="M88.9421 12.6834C88.7721 12.7739 88.6328 12.9129 88.5418 13.0827C88.4509 13.2525 88.4125 13.4456 88.4315 13.6372C88.4505 13.8289 88.526 14.0107 88.6484 14.1594C88.7708 14.3081 88.9347 14.417 89.1192 14.4725C89.3037 14.5279 89.5005 14.5272 89.6846 14.4705C89.8687 14.4139 90.0318 14.3038 90.1533 14.1543C90.2747 14.0048 90.349 13.8225 90.3667 13.6307C90.3844 13.4389 90.3446 13.2462 90.2526 13.077C90.1309 12.8511 89.9245 12.6828 89.6788 12.609C89.4331 12.5352 89.1681 12.562 88.9421 12.6834Z" fill="black"/>
<path d="M107.296 5.48999C107.77 5.23895 108.159 4.85324 108.414 4.38149C108.669 3.90974 108.778 3.37306 108.729 2.83914C108.679 2.30522 108.472 1.79795 108.135 1.38129C107.797 0.964642 107.344 0.657261 106.832 0.49791C106.32 0.338559 105.772 0.334374 105.258 0.485879C104.743 0.637385 104.285 0.9378 103.941 1.34924C103.598 1.76069 103.383 2.26474 103.325 2.79784C103.268 3.33094 103.369 3.86923 103.617 4.34482C103.782 4.66251 104.009 4.94433 104.284 5.17404C104.558 5.40374 104.876 5.5768 105.218 5.68325C105.56 5.78969 105.92 5.82741 106.276 5.79425C106.633 5.76108 106.98 5.65767 107.296 5.48999Z" fill="black"/>
</g>
<path d="M78.62 53.8623C78.62 53.3268 78.4612 52.8033 78.1637 52.3581C77.8662 51.9128 77.4434 51.5658 76.9486 51.3609C76.4539 51.156 75.9095 51.1023 75.3843 51.2068C74.8591 51.3113 74.3767 51.5691 73.9981 51.9478C73.6194 52.3264 73.3616 52.8089 73.2571 53.334C73.1526 53.8592 73.2063 54.4036 73.4112 54.8984C73.6161 55.3931 73.9631 55.8159 74.4084 56.1134C74.8536 56.4109 75.3771 56.5697 75.9125 56.5697C76.6306 56.5697 77.3193 56.2845 77.827 55.7767C78.3348 55.269 78.62 54.5803 78.62 53.8623Z" fill="white" stroke="#263238" stroke-linecap="round" stroke-linejoin="round"/>
<path d="M77.8642 51.9221L74.165 55.6213" stroke="#263238" stroke-linecap="round" stroke-linejoin="round"/>
<path d="M103.747 82.4086C103.747 81.8732 103.588 81.3497 103.291 80.9045C102.993 80.4592 102.57 80.1122 102.076 79.9073C101.581 79.7023 101.036 79.6487 100.511 79.7532C99.9861 79.8577 99.5037 80.1155 99.125 80.4942C98.7464 80.8728 98.4885 81.3552 98.3841 81.8804C98.2796 82.4056 98.3332 82.95 98.5381 83.4447C98.743 83.9395 99.0901 84.3623 99.5353 84.6598C99.9805 84.9573 100.504 85.1161 101.039 85.1161C101.758 85.1161 102.446 84.8309 102.954 84.3231C103.462 83.8154 103.747 83.1267 103.747 82.4086Z" fill="#263238" stroke="#263238" stroke-linecap="round" stroke-linejoin="round"/>
<path d="M126.394 53.8623C126.394 53.3268 126.236 52.8033 125.938 52.3581C125.641 51.9128 125.218 51.5658 124.723 51.3609C124.228 51.156 123.684 51.1023 123.159 51.2068C122.634 51.3113 122.151 51.5691 121.772 51.9478C121.394 52.3264 121.136 52.8089 121.032 53.334C120.927 53.8592 120.981 54.4036 121.186 54.8984C121.391 55.3931 121.738 55.8159 122.183 56.1134C122.628 56.4109 123.151 56.5697 123.687 56.5697C124.405 56.5697 125.094 56.2845 125.601 55.7767C126.109 55.269 126.394 54.5803 126.394 53.8623Z" fill="white" stroke="#263238" stroke-linecap="round" stroke-linejoin="round"/>
<path d="M125.638 51.9221L121.938 55.6213" stroke="#263238" stroke-linecap="round" stroke-linejoin="round"/>
<path d="M89.6976 146.337L80.2529 149.619C80.0983 149.673 79.9666 149.778 79.88 149.917C79.7934 150.056 79.7569 150.22 79.7768 150.383C79.7994 150.565 79.8906 150.731 80.0318 150.848C80.1729 150.965 80.3533 151.024 80.5363 151.012L90.2367 150.434L89.6976 146.337Z" fill="white" stroke="#263238" stroke-linecap="round" stroke-linejoin="round"/>
<path d="M80.5527 151.012L82.1072 149.104" stroke="#263238" stroke-linecap="round" stroke-linejoin="round"/>
<path d="M82.3193 150.874L84.3617 148.387" stroke="#263238" stroke-linecap="round" stroke-linejoin="round"/>
<path d="M84.0938 150.827L86.8996 147.384" stroke="#263238" stroke-linecap="round" stroke-linejoin="round"/>
<path d="M85.9561 150.725L89.2814 146.652" stroke="#263238" stroke-linecap="round" stroke-linejoin="round"/>
<path d="M92.9244 148.163C92.8598 147.631 92.639 147.131 92.29 146.725C91.941 146.319 91.4793 146.025 90.9635 145.882C90.4477 145.738 89.9008 145.75 89.3921 145.917C88.8833 146.084 88.4355 146.399 88.1053 146.82C87.7751 147.242 87.5773 147.752 87.537 148.286C87.4966 148.82 87.6155 149.354 87.8786 149.82C88.1417 150.286 88.5372 150.664 89.0151 150.906C89.4929 151.147 90.0317 151.242 90.5633 151.177C90.9163 151.135 91.2573 151.023 91.567 150.848C91.8767 150.673 92.1489 150.439 92.3682 150.159C92.5875 149.879 92.7494 149.559 92.8449 149.216C92.9403 148.874 92.9674 148.516 92.9244 148.163Z" fill="white" stroke="#263238" stroke-linecap="round" stroke-linejoin="round"/>
<path d="M91.9408 146.325L88.7139 150.442" stroke="#263238" stroke-linecap="round" stroke-linejoin="round"/>
<path d="M138.826 145.802L137.885 146.983C137.775 146.912 137.665 146.841 137.539 146.774C137.105 146.532 136.655 146.319 136.193 146.137L138.554 145.436L139.467 145.224V145.165V142.571L134.965 143.433L135.752 144.098L135.398 143.996L132.101 144.976C130.715 144.692 131.207 143.587 129.617 143.433L128.287 142.957L122.624 142.705L121.676 142.729C119.708 141.595 117.898 141.462 117.021 144.303L114.833 143.079L112.164 143.473L113.672 142.331L109.768 141.174V143.838L106.765 144.33H101.712V146.995L105.951 147.616C105.804 147.755 105.672 147.91 105.557 148.077L101.551 148.27L100.583 146.617V149.281L101.551 150.93L105.254 150.753V152.984L109.347 154.165L112.668 153.177C114.15 153.472 115.646 153.69 117.15 153.83L116.481 155.196L122.144 155.448L122.821 154.082C124.47 154.082 126.131 153.999 127.752 153.846L129.94 155.07L135.001 154.302L134.607 152.61C135.213 152.429 135.788 152.24 136.272 152.036L140.491 152.657L143.025 151.162V148.927L144.142 148.876V146.211L138.826 145.802ZM111.067 144.582L111.952 145.078C111.397 145.2 110.878 145.334 110.378 145.472L111.067 144.582ZM129.015 151.666V150.316L127.492 150.359V150.162L125.883 150.41C122.908 150.497 118.862 150.619 118.721 150.619L118.386 151.3C115.997 151.426 113.916 151.276 112.633 150.556C109.803 148.982 111.869 147.038 117.253 146.227C122.636 145.417 129.287 146.038 132.116 147.616C134.658 149.025 133.238 150.737 129.015 151.658V151.666ZM141.789 149.246L140.215 149.065L142.273 148.966L141.789 149.246Z" fill="#263238"/>
<path d="M139.467 145.165V145.224L138.554 145.436L136.193 146.137C136.655 146.319 137.105 146.532 137.539 146.774C137.665 146.841 137.775 146.912 137.885 146.983L138.826 145.802L144.142 146.211V148.876L143.025 148.927V151.162L140.491 152.657L136.272 152.036C135.788 152.24 135.213 152.429 134.607 152.61L135.001 154.302L129.94 155.07L127.752 153.846C126.131 153.999 124.47 154.082 122.821 154.082L122.144 155.448L116.481 155.196L117.15 153.83C115.646 153.69 114.15 153.472 112.668 153.177L109.347 154.165L105.254 152.984V150.753L101.551 150.93L100.583 149.281V146.617L101.551 148.27L105.557 148.077C105.672 147.91 105.804 147.755 105.951 147.616L101.712 146.995V144.33H106.765L109.768 143.838V141.174L113.672 142.331L112.164 143.473L114.833 143.079L117.021 144.303C117.898 141.462 119.708 141.595 121.676 142.729L122.624 142.705L128.287 142.957L129.617 143.433C131.207 143.587 130.715 144.692 132.101 144.976L135.398 143.996L135.752 144.098L134.965 143.433L139.467 142.571V145.165ZM139.467 145.165H139.487M111.067 144.582L111.952 145.078C111.397 145.2 110.878 145.334 110.378 145.472L111.067 144.582ZM129.015 151.666V150.316L127.492 150.359V150.162L125.883 150.41C122.908 150.497 118.862 150.619 118.721 150.619L118.386 151.3C115.997 151.426 113.916 151.276 112.633 150.556C109.803 148.982 111.869 147.038 117.253 146.227C122.636 145.417 129.287 146.038 132.116 147.616C134.658 149.025 133.238 150.737 129.015 151.658V151.666ZM141.789 149.246L140.215 149.065L142.273 148.966L141.789 149.246Z" stroke="#263238" stroke-linecap="round" stroke-linejoin="round"/>
<path d="M128.275 140.297L126.98 142.28L128.275 141.961V140.297Z" fill="#263238" stroke="#263238" stroke-linecap="round" stroke-linejoin="round"/>
<path d="M127.492 149.273C122.113 150.088 115.458 149.466 112.633 147.888C109.807 146.31 111.869 144.366 117.253 143.559C122.636 142.752 129.287 143.366 132.116 144.944C134.946 146.522 132.876 148.462 127.492 149.273ZM114.821 140.419L109.756 141.206L111.952 142.434C110.763 142.684 109.597 143.032 108.465 143.472L104.247 142.855L101.712 144.346L105.951 144.968C105.739 145.147 105.566 145.367 105.444 145.616C105.321 145.864 105.251 146.135 105.238 146.412L100.595 146.632L101.563 148.285L106.218 148.061C106.526 148.312 106.857 148.535 107.206 148.726C107.64 148.967 108.09 149.178 108.552 149.36L105.266 150.336L109.359 151.516L112.656 150.536C114.141 150.83 115.64 151.048 117.146 151.19L116.47 152.551L122.132 152.803L122.809 151.441C124.458 151.441 126.119 151.355 127.74 151.201L129.928 152.425L134.989 151.662L132.793 150.434C133.981 150.181 135.147 149.834 136.28 149.395L140.498 150.013L143.033 148.521L138.794 147.9C139.006 147.721 139.178 147.5 139.301 147.252C139.423 147.003 139.493 146.732 139.507 146.455L144.15 146.231L143.182 144.582L138.527 144.803C138.218 144.553 137.888 144.331 137.539 144.141C137.104 143.901 136.655 143.688 136.193 143.504L139.483 142.528L135.386 141.347L132.089 142.327C130.604 142.031 129.106 141.813 127.599 141.674L128.275 140.312L122.613 140.057L121.936 141.422C120.287 141.422 118.626 141.509 117.009 141.658L114.821 140.434" fill="#BDBDBD"/>
<path d="M114.821 140.419L109.756 141.206L111.952 142.434C110.763 142.684 109.597 143.032 108.465 143.472L104.247 142.855L101.712 144.346L105.951 144.968C105.739 145.147 105.566 145.367 105.444 145.616C105.321 145.864 105.251 146.135 105.238 146.412L100.595 146.632L101.563 148.285L106.218 148.061C106.526 148.312 106.857 148.535 107.206 148.726C107.64 148.967 108.09 149.178 108.552 149.36L105.266 150.336L109.359 151.516L112.656 150.536C114.141 150.83 115.64 151.048 117.146 151.19L116.47 152.551L122.132 152.803L122.809 151.441C124.458 151.441 126.119 151.355 127.74 151.201L129.928 152.425L134.989 151.662L132.793 150.434C133.981 150.181 135.147 149.834 136.28 149.395L140.498 150.013L143.033 148.521L138.794 147.9C139.006 147.721 139.178 147.5 139.301 147.252C139.423 147.003 139.493 146.732 139.507 146.455L144.15 146.231L143.182 144.582L138.527 144.803C138.218 144.553 137.888 144.331 137.539 144.141C137.104 143.901 136.655 143.688 136.193 143.504L139.483 142.528L135.386 141.347L132.089 142.327C130.604 142.031 129.106 141.813 127.599 141.674L128.275 140.312L122.613 140.057L121.936 141.422C120.287 141.422 118.626 141.509 117.009 141.658L114.821 140.434M127.492 149.273C122.113 150.088 115.458 149.466 112.633 147.888C109.807 146.31 111.869 144.366 117.253 143.559C122.636 142.752 129.287 143.366 132.116 144.944C134.946 146.522 132.876 148.462 127.492 149.273Z" stroke="#263238" stroke-linecap="round" stroke-linejoin="round"/>
<path d="M90.9258 81.1339C90.9246 80.445 90.8733 79.7571 90.7723 79.0757L94.4006 77.8951L94.8965 76.7146L94.1094 76.9467L92.9879 73.4916L89.3477 74.6722C88.7142 73.4721 87.9096 72.3705 86.959 71.402L89.2021 68.3128L89.698 67.1322L88.9109 68.1003L85.4597 65.5935L83.2087 68.6906C81.9915 68.0882 80.692 67.6691 79.3522 67.447V63.6298H75.4799L75.1808 62.4492L74.6889 63.6298V67.4588C73.3496 67.6863 72.0513 68.1106 70.8363 68.7181L68.5932 65.6171L66.0706 67.4509L65.3348 67.1558L65.256 67.3486L64.8389 68.3443L67.0938 71.4413C66.151 72.4144 65.3556 73.5201 64.7327 74.7233L62.2967 73.9363L61.5962 72.3622L61.1004 73.5427L59.668 77.9502L63.3081 79.1308C63.2116 79.7915 63.163 80.4583 63.1625 81.126C63.1636 81.8149 63.2149 82.5027 63.316 83.1841L61.3483 83.8256L60.1914 83.1763L59.6994 84.3569L61.1161 88.7801L64.7563 87.5995C65.3901 88.8016 66.1962 89.9046 67.1489 90.8737L65.7519 92.7901H65.3977L64.9019 93.9707L68.6522 96.6978L70.9032 93.6008C72.1211 94.2012 73.4204 94.6202 74.7597 94.8443V98.6616H79.3955L79.8913 97.481H79.3955V94.8365C80.7348 94.6093 82.0331 94.185 83.2481 93.5772L85.4912 96.6624L89.2454 93.9392L89.7373 92.7587L88.7338 93.2427L86.9945 90.8461C87.937 89.8729 88.7325 88.7672 89.3556 87.5641L92.9879 88.7447L94.4203 84.3372L90.7802 83.1566C90.8778 82.4868 90.9265 81.8108 90.9258 81.1339ZM77.0382 90.0551C75.2736 90.0559 73.5484 89.5333 72.0808 88.5535C70.6132 87.5737 69.4691 86.1807 68.7933 84.5506C68.1174 82.9205 67.9402 81.1266 68.284 79.3958C68.6278 77.665 69.4771 76.075 70.7246 74.827C71.9721 73.5789 73.5617 72.7289 75.2924 72.3843C77.0231 72.0398 78.817 72.2162 80.4474 72.8913C82.0778 73.5664 83.4713 74.7099 84.4518 76.1771C85.4322 77.6443 85.9555 79.3692 85.9555 81.1339C85.9555 83.4993 85.0162 85.7678 83.344 87.4408C81.6718 89.1137 79.4036 90.0541 77.0382 90.0551Z" fill="#263238" stroke="#263238" stroke-linecap="round" stroke-linejoin="round"/>
<path d="M93.4841 87.5367L94.9165 83.1252L91.2764 81.9447C91.3696 81.2823 91.4169 80.6144 91.4181 79.9455C91.4182 79.2581 91.3682 78.5715 91.2685 77.8913L94.8968 76.7107L93.4644 72.2993L89.8243 73.4799C89.1904 72.2778 88.3844 71.1748 87.4316 70.2057L89.6787 67.1166L85.9087 64.3973L83.6617 67.4904C82.4428 66.8895 81.142 66.4718 79.8012 66.2508V62.4336H75.1812V66.2626C73.8419 66.4901 72.5436 66.9144 71.3285 67.5219L69.0854 64.4327L65.3351 67.1559L67.5861 70.2569C66.6446 71.2311 65.8492 72.3366 65.2249 73.5389L61.5966 72.3583L60.1484 76.754L63.7886 77.9346C63.6923 78.5953 63.6436 79.2621 63.643 79.9298C63.642 80.6187 63.6933 81.3068 63.7964 81.9879L60.1642 83.1685L61.6006 87.58L65.2407 86.3994C65.8708 87.6016 66.6758 88.7036 67.6294 89.6696L65.3863 92.7627L69.1366 95.4859L71.3876 92.3889C72.6039 92.9933 73.9038 93.4124 75.2441 93.6324V97.4496H79.8799V93.6206C81.2191 93.3931 82.5174 92.9688 83.7325 92.3613L85.9756 95.4505L89.7259 92.7233L87.4828 89.6381C88.4256 88.665 89.221 87.5593 89.844 86.3561L93.4841 87.5367ZM68.6132 79.9455C68.6132 78.1809 69.1365 76.4559 70.117 74.9887C71.0974 73.5216 72.491 72.3781 74.1213 71.703C75.7517 71.0279 77.5457 70.8514 79.2763 71.196C81.007 71.5405 82.5966 72.3906 83.8441 73.6387C85.0916 74.8867 85.941 76.4767 86.2848 78.2075C86.6285 79.9383 86.4513 81.7322 85.7755 83.3623C85.0996 84.9924 83.9556 86.3854 82.488 87.3652C81.0204 88.345 79.2951 88.8676 77.5305 88.8668C76.3591 88.8668 75.1993 88.636 74.1171 88.1876C73.0349 87.7392 72.0517 87.082 71.2236 86.2536C70.3955 85.4251 69.7388 84.4416 69.2909 83.3593C68.843 82.2769 68.6127 81.1169 68.6132 79.9455Z" fill="#BDBDBD" stroke="#263238" stroke-linecap="round" stroke-linejoin="round"/>
<path d="M115.096 56.4675C115.097 55.7785 115.045 55.0905 114.942 54.4093L118.574 53.2287L119.066 52.0481L118.279 52.2803L117.142 48.8134L113.502 49.9939C112.867 48.7937 112.061 47.6921 111.109 46.7237L113.356 43.6345L113.848 42.454L113.061 43.422L109.61 40.9153L107.363 44.0123C106.144 43.4102 104.843 42.9911 103.502 42.7688V38.9516H99.6577L99.3625 37.771L98.8667 38.9516V42.7806C97.5274 43.0081 96.2291 43.4324 95.0141 44.0399L92.7709 40.9507L90.2366 42.7845L89.5047 42.4933L89.422 42.6822L89.0128 43.6975L91.2637 46.7946C90.32 47.7684 89.5245 48.8755 88.9026 50.0805L86.4666 49.2935L85.7662 47.7194L85.2743 48.8999L83.8418 53.3074L87.4819 54.488C87.3856 55.1487 87.337 55.8155 87.3363 56.4832C87.3355 57.1721 87.3868 57.8601 87.4898 58.5413L85.5222 59.1828L84.3337 58.5177L83.8379 59.6983L85.2703 64.1058L88.9144 62.9252C89.5465 64.1262 90.3513 65.228 91.3031 66.1954L89.91 68.1158H89.5519L89.0561 69.2767L92.8064 72.0039L95.0534 68.9068C96.2721 69.509 97.5729 69.928 98.9139 70.1504V73.9991H103.55L104.045 72.8185H103.55V70.174C104.889 69.9465 106.187 69.5222 107.402 68.9147L109.645 72.0039L113.396 69.2767L113.892 68.0962L112.884 68.5763L111.145 66.1836C112.088 65.2098 112.884 64.1027 113.506 62.8977L117.138 64.0783L118.571 59.6708L114.926 58.4902C115.032 57.8209 115.089 57.1449 115.096 56.4675ZM101.208 65.3887C99.4437 65.3887 97.7189 64.8655 96.2518 63.8852C94.7847 62.9049 93.6412 61.5116 92.966 59.8815C92.2908 58.2513 92.1141 56.4576 92.4583 54.727C92.8026 52.9964 93.6522 51.4068 94.8999 50.1592C96.1475 48.9115 97.7372 48.0618 99.4677 47.7176C101.198 47.3734 102.992 47.5501 104.622 48.2253C106.252 48.9005 107.646 50.044 108.626 51.5111C109.606 52.9782 110.129 54.703 110.129 56.4675C110.129 58.8335 109.189 61.1027 107.516 62.7757C105.843 64.4488 103.574 65.3887 101.208 65.3887Z" fill="#263238" stroke="#263238" stroke-linecap="round" stroke-linejoin="round"/>
<path d="M117.654 62.8702L119.086 58.4588L115.446 57.2782C115.543 56.6175 115.591 55.9507 115.592 55.283C115.591 54.5941 115.539 53.9063 115.438 53.2249L119.067 52.0443L117.634 47.6328L113.994 48.8134C113.364 47.6112 112.559 46.5092 111.605 45.5432L113.848 42.4501L110.098 39.7269L107.847 42.8239C106.631 42.22 105.331 41.8009 103.991 41.5804V37.7632H99.3549V41.5922C98.0156 41.8197 96.7174 42.244 95.5023 42.8515L93.2592 39.7623L89.5089 42.4894L91.7598 45.5865C90.8171 46.5596 90.0216 47.6653 89.3987 48.8685L85.7664 47.6879L84.334 52.1033L87.9741 53.2839C87.8777 53.9459 87.829 54.614 87.8285 55.283C87.8296 55.9706 87.8809 56.6571 87.982 57.3372L84.3537 58.5178L85.7861 62.9292L89.4262 61.7486C90.0601 62.9507 90.8661 64.0537 91.8189 65.0228L89.5561 68.0962L93.3064 70.8509L95.5574 67.7578C96.775 68.3581 98.0745 68.7758 99.4139 68.9974V72.8146H104.054V68.9895C105.392 68.7611 106.689 68.3353 107.902 67.7263L110.149 70.8155L113.9 68.0923L111.649 64.9913C112.59 64.0173 113.386 62.9118 114.01 61.7093L117.654 62.8702ZM92.783 55.283C92.7822 53.5184 93.3048 51.7931 94.2846 50.3255C95.2644 48.8579 96.6574 47.7139 98.2875 47.038C99.9176 46.3622 101.711 46.185 103.442 46.5287C105.173 46.8725 106.763 47.7219 108.011 48.9694C109.259 50.2169 110.109 51.8065 110.454 53.5372C110.798 55.2678 110.622 57.0618 109.947 58.6922C109.272 60.3225 108.128 61.7161 106.661 62.6965C105.194 63.677 103.469 64.2003 101.704 64.2003C99.3389 64.2003 97.0703 63.2609 95.3974 61.5887C93.7244 59.9165 92.784 57.6484 92.783 55.283Z" fill="#BDBDBD" stroke="#263238" stroke-linecap="round" stroke-linejoin="round"/>
<path opacity="0.2" d="M110.396 85.919H110.432L111.026 85.3799L110.396 85.919Z" fill="black"/>
<path opacity="0.2" d="M109.724 87.7727L109.535 87.8711C109.543 87.9222 109.578 87.9262 109.724 87.7727Z" fill="black"/>
<path opacity="0.2" d="M110.051 87.0918C110.106 87.0209 109.657 87.4853 109.508 87.6742C109.657 87.6033 110.082 87.2059 110.051 87.0918Z" fill="black"/>
<path opacity="0.2" d="M109.028 88.7801L110.692 88.2409C110.818 88.115 110.885 88.0048 110.795 87.9419C110.511 88.3354 110.547 88.0835 110.342 88.2291V88.2646C110.291 88.3 110.138 88.4062 110.197 88.3C110.601 88.0664 110.988 87.8033 111.354 87.5129C111.188 87.5995 111.401 87.2729 111.409 87.2138C111.723 86.958 111.491 87.2886 111.527 87.3634C111.684 87.2178 112.03 87.0761 112.058 86.8557C112.192 86.5645 111.712 87.0328 111.574 87.0328L112.55 86.3127H112.503C112.631 86.2605 112.74 86.1715 112.817 86.0569C112.837 85.9113 112.625 86.0923 112.514 86.2379C112.865 85.6948 113.506 85.6673 113.695 85.0927L113.545 85.1872C113.601 85.1124 113.652 85.0809 113.699 85.0809L114.002 84.892C114.002 84.8527 114.002 84.7779 113.967 84.8133L114.27 84.6362C114.785 84.2427 114.27 84.3765 114.38 84.1955L114.356 84.2191C114.474 84.0578 114.521 83.8925 114.407 83.9751L114.97 83.5816C114.907 83.5816 114.856 83.5816 114.844 83.5422L114.97 83.5816C115.273 83.5108 116.001 82.8378 116.202 83.0543C116.221 83.029 116.24 83.0027 116.257 82.9756C116.257 82.9362 116.237 82.8929 116.229 82.8496C116.182 82.8992 116.129 82.9428 116.072 82.9795L116.229 82.8496C116.141 82.3901 116.088 81.9243 116.072 81.4565C115.942 81.5628 115.848 81.6572 115.844 81.7281L115.899 81.6966L115.879 81.8068C115.866 81.7985 115.856 81.7867 115.85 81.7727C115.843 81.7587 115.841 81.7432 115.844 81.7281C115.47 81.9524 115.198 82.3223 114.903 82.5151L114.982 82.6253C114.811 82.7239 114.655 82.8458 114.517 82.9874C114.517 82.9874 114.561 82.9874 114.6 82.9874L114.817 82.8181C114.762 82.8938 114.687 82.9525 114.6 82.9874C114.116 83.3749 113.655 83.7901 113.219 84.2309C113.305 84.2703 113.345 84.3096 113.612 84.0932C113.317 84.5654 112.475 84.9904 111.928 85.6083H112.015L111.621 85.8562C111.719 85.8208 111.708 85.8955 111.751 85.9349C111.208 86.5134 110.511 87.202 110.035 87.3044C110.236 87.1942 109.894 87.6703 110.295 87.4185C109.82 87.7475 109.376 88.1189 108.969 88.5282L109.028 88.7801ZM112.109 86.4543L112.475 86.1671L112.101 86.5291L112.109 86.4543ZM111.161 87.324L110.838 87.6467L110.637 87.753L111.161 87.324Z" fill="black"/>
<path opacity="0.2" d="M109.521 87.8869C109.521 87.8122 109.623 87.6075 109.363 87.9656L109.521 87.8869Z" fill="black"/>
<path opacity="0.2" d="M109.555 86.6787L110.208 86.2852L109.964 86.3915L110.357 86.1042C110.239 86.0648 109.791 86.3128 109.555 86.6787Z" fill="black"/>
<path opacity="0.2" d="M109.914 86.647C109.84 86.6852 109.772 86.7343 109.713 86.7926C109.775 86.7375 109.842 86.6887 109.914 86.647Z" fill="black"/>
<path opacity="0.2" d="M109.913 86.6473C109.996 86.6237 109.889 86.8007 110.149 86.6197C110.145 86.545 110.039 86.5922 109.913 86.6473Z" fill="black"/>
<path opacity="0.2" d="M123.136 96.6034L123.336 96.2964C123.045 96.2807 123.179 96.4499 123.136 96.6034Z" fill="black"/>
<path opacity="0.2" d="M110.579 85.9271L110.433 85.9192L110.394 85.9546L110.579 85.9271Z" fill="black"/>
<path opacity="0.2" d="M126.517 71.0322C126.678 70.9653 126.93 70.9574 127.016 70.6387C126.713 70.6623 126.776 70.8866 126.517 71.0322Z" fill="black"/>
<path opacity="0.2" d="M123.073 96.7062C123.105 96.6795 123.127 96.6434 123.137 96.6033L123.073 96.7062Z" fill="black"/>
<path opacity="0.2" d="M128.618 67.7422H128.555C128.496 67.8484 128.468 67.935 128.5 67.9468C128.521 67.87 128.562 67.7997 128.618 67.7422Z" fill="black"/>
<path opacity="0.2" d="M126.949 72.0314H126.855C127.418 71.6379 127.854 70.8311 128.342 70.292C128.342 70.3628 127.917 70.7209 128.091 70.7996L128.775 70.1857C128.775 70.1149 129.055 69.8237 128.811 69.9299C128.724 70.0016 128.65 70.0866 128.59 70.1818L128.61 70.0362C129.287 69.4971 128.763 70.2605 128.889 70.3707C129.169 70.0087 129.401 70.0126 129.617 69.7962C129.598 69.5758 129.066 70.0834 129.224 69.6781C129.536 69.2843 129.942 68.9756 130.404 68.7809C130.419 68.6554 130.464 68.5352 130.534 68.4306C130.357 68.3519 130.176 68.2771 129.995 68.2063C128.996 69.1272 127.843 69.7568 127.067 70.9807H127.111L126.249 71.5552C126.135 71.7008 126.209 71.8504 126.032 72.1022C126.032 71.9842 125.899 72.1022 125.745 72.2596C126.036 72.2872 126.32 72.3265 126.599 72.3777C126.69 72.2384 126.809 72.1203 126.949 72.0314Z" fill="black"/>
<path opacity="0.2" d="M111.755 85.1361C111.865 84.9905 111.731 84.9511 112.034 84.7701C112.066 84.8842 112.33 84.9629 112.621 84.5615C112.301 84.6312 111.998 84.765 111.731 84.9551L111.755 85.1361Z" fill="black"/>
<path opacity="0.2" d="M112.593 84.8015L112.986 84.3096C112.589 84.3922 112.707 84.5811 112.593 84.8015Z" fill="black"/>
<path opacity="0.2" d="M112.594 84.8015L112.472 84.9638C112.523 84.9181 112.564 84.863 112.594 84.8015Z" fill="black"/>
<path opacity="0.2" d="M116.139 79.7971H116.144V79.792L116.139 79.7971Z" fill="black"/>
<path opacity="0.2" d="M135.977 72.6887L135.894 72.5864C135.835 72.6376 135.776 72.6927 135.713 72.7556C135.721 72.8501 135.859 72.7714 135.977 72.6887Z" fill="black"/>
<path opacity="0.2" d="M131.719 87.0367C131.865 86.8084 132.046 86.8596 132.172 86.7336C132.136 86.6313 132.026 86.6785 131.939 86.6864C131.857 86.7887 131.778 86.8871 131.691 86.9855C131.695 87.005 131.705 87.0229 131.719 87.0367Z" fill="black"/>
<path opacity="0.2" d="M132.155 86.6198C132.155 86.5371 132.301 86.3955 132.419 86.2262C132.238 86.1987 132.077 86.5922 132.155 86.6198Z" fill="black"/>
<path opacity="0.2" d="M129.854 89.7126C129.724 89.7835 129.401 89.7441 129.299 90.0393L129.496 89.937L129.468 89.9802L129.578 90.0117C129.346 89.8661 129.759 89.7953 129.854 89.7126Z" fill="black"/>
<path opacity="0.2" d="M133.182 76.0298L133.005 76.2856L133.162 76.14L133.182 76.0298Z" fill="black"/>
<path opacity="0.2" d="M116.466 83.8372C116.328 83.9793 116.179 84.1109 116.021 84.2307L116.096 84.3448C115.926 84.4427 115.77 84.5632 115.632 84.7029C115.645 84.7087 115.659 84.7116 115.673 84.7116C115.687 84.7116 115.701 84.7087 115.714 84.7029L115.935 84.5298C115.878 84.6064 115.802 84.6663 115.714 84.7029C115.238 85.0881 114.783 85.4993 114.353 85.9347C114.439 85.974 114.482 86.0134 114.746 85.7969C114.451 86.2692 113.605 86.6942 113.058 87.312H113.148L112.755 87.5599C112.853 87.5284 112.841 87.6032 112.881 87.6386L112.775 87.7488C113.393 88.8867 114.166 89.9331 115.073 90.8577L112.83 93.9469L116.58 96.674L118.827 93.5769C120.046 94.1774 121.347 94.5963 122.687 94.8205V95.7217C122.727 95.6926 122.759 95.6546 122.781 95.6108C122.802 95.567 122.814 95.5187 122.813 95.4698L122.715 95.5131C122.747 95.4659 122.778 95.4501 122.813 95.458L123.014 95.3714C123.014 95.3399 123.014 95.2849 122.971 95.3006L123.172 95.2258C123.498 95.0212 123.109 95.0172 123.172 94.8992C123.231 94.7969 123.234 94.6788 123.172 94.7182L123.534 94.5253C123.512 94.5257 123.491 94.5204 123.473 94.51C123.454 94.4997 123.438 94.4846 123.427 94.4663L123.534 94.5253C123.758 94.5253 124.195 94.1515 124.399 94.364C124.454 94.2735 124.478 94.179 124.399 94.179C124.367 94.2165 124.327 94.2461 124.281 94.2656L124.399 94.179C124.62 93.9862 124.191 94.0649 124.553 93.7658C124.513 93.7265 124.486 93.7658 124.419 93.8091C124.502 93.7186 124.549 93.695 124.588 93.7029C124.559 93.6742 124.54 93.637 124.533 93.5966C124.612 93.6753 124.734 93.5179 124.789 93.4274H124.541C124.608 93.4242 124.674 93.4036 124.731 93.3678C124.788 93.332 124.835 93.282 124.868 93.2228H124.691C124.946 93.026 124.887 93.3881 125.084 93.0418L124.919 93.3723C125.234 93.1126 125.312 93.3723 125.509 93.3212C125.946 93.1519 126.076 92.5341 126.572 92.5735C126.52 92.4515 126.454 92.4593 126.465 92.3019C126.388 92.372 126.297 92.4248 126.198 92.4567C126.099 92.4887 125.994 92.4989 125.891 92.4869C125.395 92.7269 126.123 92.904 125.517 93.1086C125.43 92.9788 125.552 92.8489 125.722 92.7899C125.635 92.6836 125.434 92.7623 125.301 92.7899C125.584 92.6089 125.8 92.1563 125.958 92.0028H125.938H125.973C126.14 91.9724 126.291 91.8864 126.402 91.7589C126.402 91.7589 126.402 91.7234 126.402 91.6801C126.41 91.6918 126.414 91.7055 126.414 91.7195C126.414 91.7335 126.41 91.7472 126.402 91.7589C126.461 91.8454 126.879 91.5345 126.914 91.7943C127.201 91.5818 126.863 91.4322 127.276 91.3614C127.06 91.326 127.351 91.1095 127.138 91.1056C127.162 91.2984 126.717 91.3889 126.513 91.4401L126.808 91.0112C126.753 91.1331 126.957 91.082 127.024 91.0466L126.969 90.897C127.276 91.0899 127.426 90.0824 127.898 90.1887C127.768 90.2871 127.756 90.472 127.571 90.3933C127.433 90.6767 127.803 90.5389 127.792 90.7239C128.22 90.4956 128.555 89.8345 129.094 89.6653C128.952 89.6653 128.799 89.8266 128.681 89.7361C128.886 89.4174 129.436 89.3426 129.83 89.1222L129.645 89.0435C130.015 88.9019 129.696 88.894 130.015 88.65C130.015 88.6775 130.015 88.7641 130.094 88.6972C130.31 88.465 130.007 88.5673 130.121 88.3863C130.353 88.347 130.361 88.284 130.361 88.1974C129.227 89.0625 127.901 89.6427 126.496 89.8893C125.09 90.1358 123.646 90.0416 122.285 89.6144C120.923 89.1872 119.684 88.4396 118.672 87.4343C117.659 86.429 116.903 85.1954 116.466 83.8372ZM129.496 88.8743C129.653 88.9687 129.299 89.2206 129.244 89.3387C129.145 89.134 129.535 89.1655 129.496 88.8861V88.8743Z" fill="black"/>
<path opacity="0.2" d="M135.981 73.2128C136.005 73.1746 136.024 73.1333 136.037 73.0901C135.989 73.1495 135.977 73.1851 135.981 73.2128Z" fill="black"/>
<path opacity="0.2" d="M136.067 73.2676C136.119 73.2661 136.169 73.2448 136.206 73.2083C136.155 73.2144 136.107 73.235 136.067 73.2676Z" fill="black"/>
<path opacity="0.2" d="M136.067 73.2672C136.02 73.2672 135.988 73.2672 135.98 73.2161C135.693 73.6366 135.358 74.0222 134.981 74.3652C134.91 74.5501 135.374 74.2628 135.512 74.192C135.028 74.0346 135.937 73.7985 136.083 73.4286C135.984 73.464 135.819 73.645 135.729 73.6411C135.813 73.4935 135.929 73.366 136.067 73.2672Z" fill="black"/>
<path opacity="0.2" d="M123.104 96.4304C122.96 96.4317 122.816 96.4462 122.675 96.4737C122.696 96.5148 122.73 96.5486 122.77 96.5706C122.811 96.5926 122.858 96.6019 122.904 96.5972C122.95 96.5926 122.994 96.5742 123.029 96.5445C123.065 96.5147 123.091 96.475 123.104 96.4304Z" fill="black"/>
<path opacity="0.2" d="M135.201 73.4484L135.839 72.8345C135.677 72.681 135.575 73.0864 135.386 73.1218C135.414 72.9132 135.661 72.7283 135.87 72.5551C135.554 72.1523 135.218 71.7661 134.863 71.3981L137.106 68.3089L134.406 66.3413C134.174 66.5617 133.906 66.8647 133.619 67.0929L133.702 67.1677L133.395 67.3842L133.536 67.3487C133.273 67.6006 132.832 67.7777 132.6 68.1358C132.765 67.9194 132.938 67.9981 132.974 68.0728L132.053 68.7182C132.088 68.793 131.762 69.155 132.053 68.9779L131.659 69.1904L131.746 69.2298C130.636 70.5717 129.121 71.1699 128.177 72.6653H128.22L128.062 72.7715C129.895 73.4588 131.451 74.7278 132.494 76.3841C132.924 76.1051 133.321 75.7762 133.674 75.4042C133.584 75.4042 133.422 75.5459 133.379 75.5459C133.847 75.1524 134.674 74.869 134.784 74.3929C134.516 74.5267 134.202 74.6919 133.914 74.8494C133.874 74.894 133.82 74.9244 133.761 74.9359C133.58 75.0383 133.411 75.1327 133.285 75.2114C133.517 74.8926 133.631 74.9595 133.761 74.9359L133.914 74.8494C133.996 74.7653 134.064 74.6682 134.115 74.5621L133.875 74.6329C134.367 74.0859 134.457 74.4244 134.851 74.2394L135.052 73.8026C135.343 73.4243 135.689 73.0915 136.079 72.8148L135.988 72.7046C135.752 72.9604 135.453 73.3579 135.201 73.4484Z" fill="black"/>
<path opacity="0.2" d="M127.453 91.7788L127.374 91.8457C127.406 91.8308 127.433 91.8077 127.453 91.7788Z" fill="black"/>
<path opacity="0.2" d="M127.229 91.8733C127.296 91.9598 127.304 91.9205 127.382 91.8457C127.264 91.9008 127.154 91.7709 127.067 91.9913C127.126 91.9834 127.15 91.8811 127.229 91.8733Z" fill="black"/>
<path opacity="0.2" d="M127.812 91.2868C127.741 91.0271 127.419 91.397 127.32 91.578C127.423 91.5544 127.623 91.1806 127.812 91.2868Z" fill="black"/>
<path opacity="0.2" d="M127.362 91.1098L127.382 91.2484L127.505 91.094L127.362 91.1098Z" fill="black"/>
<path opacity="0.2" d="M128.705 89.8191L128.906 89.7129L128.902 89.6853L128.705 89.7916V89.8191Z" fill="black"/>
<path opacity="0.2" d="M128.555 91.3378C128.362 91.204 128.476 91.5306 128.24 91.5975C128.319 91.6762 128.508 91.5149 128.614 91.5149C128.673 91.4244 128.504 91.4558 128.429 91.4362C128.462 91.3928 128.505 91.3589 128.555 91.3378Z" fill="black"/>
<path opacity="0.2" d="M128.036 92.1016L127.965 92.1645C127.996 92.1536 128.021 92.131 128.036 92.1016Z" fill="black"/>
<path opacity="0.2" d="M128.035 92.1022L128.154 92.0033C128.067 91.9399 128.075 92.031 128.035 92.1022Z" fill="black"/>
<path opacity="0.2" d="M126.78 70.3356L126.942 70.1546C126.768 70.4104 127.335 70.0129 127.052 70.3789C126.938 70.5245 127.347 70.2373 127.465 70.0523C127.378 70.0129 127.103 70.3396 127.127 70.1585L127.241 70.0129C127.071 70.2333 126.969 69.9697 126.78 70.3356Z" fill="black"/>
<path opacity="0.2" d="M135.721 84.05C135.623 84.1051 135.587 84.0933 135.54 84.2704C135.638 84.2311 135.729 84.1051 135.721 84.05Z" fill="black"/>
<path opacity="0.2" d="M133.03 85.8049C132.998 85.8049 132.782 86.0568 132.703 85.982L132.762 86.1591C132.849 86.0214 133.057 86.0017 133.03 86.0725C133.045 85.9033 133.179 85.864 133.03 85.8049Z" fill="black"/>
<path opacity="0.2" d="M134.441 84.231C134.355 84.3648 134.048 84.3844 134.134 84.5733L134.426 84.3884C134.418 84.2979 134.552 84.2585 134.441 84.231Z" fill="black"/>
<path opacity="0.2" d="M138.85 81.134C138.85 80.4451 138.799 79.7571 138.696 79.0759L142.328 77.8953L140.896 73.4878L137.256 74.6684C137.047 74.2748 136.819 73.9049 136.579 73.535C136.464 73.6766 136.321 73.792 136.158 73.8734C136.158 73.9443 136.315 73.7633 136.248 73.9128C135.461 74.6723 134.155 75.6758 133.321 76.695C133.203 76.636 133.021 76.7265 132.805 76.8839C133.589 78.3235 133.961 79.9512 133.879 81.5883C133.798 83.2254 133.267 84.8084 132.345 86.1633C132.422 86.1252 132.506 86.1025 132.593 86.0964C132.498 85.636 133.265 85.3093 133.057 85.0968C133.057 85.1244 133.206 85.1362 133.262 85.0181H133.132C133.293 84.66 133.58 84.9552 133.694 84.7466C133.651 84.7112 133.588 84.7466 133.513 84.723C133.812 84.3295 134.32 84.4396 134.54 83.9635C134.501 83.9635 134.466 83.9438 134.438 83.9871C134.411 84.0304 134.462 83.9162 134.631 83.8533L134.588 84.0579C135.021 84.1248 134.981 83.4637 135.324 83.2433C135.249 83.2433 135.032 83.4322 135.08 83.2433C135.265 83.0544 135.513 83.3417 135.607 82.9875C135.477 83.0584 135.383 82.9049 135.261 82.9875C135.232 83.0254 135.199 83.0598 135.162 83.0898C135.187 83.0485 135.22 83.0135 135.261 82.9875C135.391 82.8262 135.418 82.6491 135.568 82.6924C135.582 82.6732 135.59 82.6497 135.59 82.6255C135.59 82.6013 135.582 82.5778 135.568 82.5586C135.544 82.5644 135.52 82.5644 135.497 82.5586C135.497 82.5271 135.54 82.535 135.568 82.5586C135.737 82.5586 135.831 82.3382 135.906 82.2202L135.835 82.1965C136.268 82.2674 136.146 81.9093 136.402 81.685L136.292 81.6535C136.422 81.5826 136.662 81.5157 136.729 81.2403H136.551C136.752 81.1616 136.878 80.768 137.126 80.7838C137.154 80.709 136.839 80.7562 137.055 80.5201C137.161 80.5201 137.394 80.4021 137.374 80.2604C137.335 80.221 137.26 80.2014 137.24 80.3037C137.209 80.347 137.24 80.3312 137.279 80.343H137.138C137.248 80.1069 137.342 80.2643 137.484 80.04C137.484 79.9534 137.342 80.04 137.272 80.0046L138.114 79.4615C138.192 79.5088 138.137 79.6307 138.279 79.6426L138.066 79.9062C138.066 80.1227 138.314 79.9062 138.46 79.8236L138.307 79.9967C138.309 79.9993 138.312 80.0014 138.316 80.0028C138.319 80.0043 138.323 80.005 138.326 80.005C138.33 80.005 138.334 80.0043 138.337 80.0028C138.34 80.0014 138.343 79.9993 138.346 79.9967L138.22 80.1148C138.688 79.922 138.078 80.6421 138.539 80.3942C138.429 80.469 138.298 80.5076 138.165 80.5044C137.972 80.6382 138.082 80.6657 138.059 80.768L138.393 80.6224C137.98 80.9609 138.543 80.6933 138.342 81.0396C137.948 81.2796 138.086 81.7755 137.948 81.9486C137.602 82.2516 137.948 81.7046 137.693 81.8463C137.5 82.0076 137.693 82.0037 137.586 82.1414L137.37 82.0785C137.146 82.2595 137.492 82.2202 137.327 82.2831C137.252 82.531 137.433 82.2831 137.582 82.3539C137.512 82.3539 137.283 82.4838 137.264 82.6137C137.303 82.653 137.523 82.4445 137.401 82.6137C136.827 83.0426 136.862 83.326 136.394 83.7549L136.504 83.7864C136.437 83.8218 136.366 83.8297 136.343 83.9044H136.414C136.097 84.1259 135.801 84.3748 135.528 84.6482L135.764 84.5813L135.398 84.7505L135.556 84.845C135.339 84.8135 135.107 85.2031 134.82 85.4195L134.903 85.4943L134.702 85.6005H134.808C134.655 85.7461 134.344 85.7894 134.234 86.0295C134.32 85.8918 134.474 85.9901 134.517 86.057L133.927 86.3758C133.97 86.4388 133.789 86.6591 133.99 86.5804L133.718 86.6631L133.797 86.7142C133.203 87.5406 132.132 87.6941 131.699 88.6819H131.735L131.172 88.9495C131.113 89.0439 131.203 89.1738 131.117 89.343C131.058 89.1659 130.865 89.5673 130.688 89.5437C130.637 89.6932 130.767 89.6224 130.841 89.6421C130.558 90.1576 130.054 90.2796 129.692 90.799C129.837 90.4699 130.02 90.1594 130.239 89.8742C129.818 90.1615 129.877 90.3386 129.452 90.681L129.684 90.555C129.661 90.9289 129.008 91.0391 129.145 91.2949C128.893 91.4916 128.504 91.4877 128.264 91.7986L128.551 91.8537L128.303 92.1055L128.181 91.9914C128.095 92.0662 128.075 92.1292 128.095 92.1685C128.156 92.1589 128.218 92.1589 128.279 92.1685C128.193 92.2157 128.118 92.2039 128.095 92.1685C127.792 92.2039 127.626 92.5187 127.284 92.6525L127.319 92.7352C127.359 92.7352 127.39 92.7352 127.319 92.8021V92.7352C127.288 92.7385 127.256 92.7385 127.225 92.7352C127.284 92.8847 127.056 93.0343 127.142 93.1287C127.241 93.0736 127.469 92.9516 127.39 92.9044C127.701 92.8296 127.221 93.2035 127.099 93.3294C127.178 93.1405 126.989 93.3019 126.89 93.353C126.89 93.3806 126.926 93.353 126.961 93.3766C126.792 93.6757 126.41 93.4593 126.457 93.8253L126.308 93.7544L126.202 94.022C125.966 93.8174 125.918 94.2621 125.682 94.0889C125.466 94.2975 125.836 94.1873 125.737 94.2385C125.584 94.4824 125.037 94.632 125.072 94.8012H125.108V94.8878C125.084 94.8704 125.067 94.8453 125.06 94.8169C124.813 94.9153 124.667 95.1475 124.486 95.2498L124.569 95.3561C124.458 95.3939 124.358 95.4573 124.277 95.541C124.299 95.5496 124.323 95.5496 124.344 95.541L124.478 95.4505C124.464 95.4749 124.445 95.4958 124.422 95.5115C124.399 95.5272 124.372 95.5373 124.344 95.541C124.051 95.7455 123.777 95.976 123.526 96.2297C123.604 96.2809 123.644 96.3202 123.805 96.2022C123.671 96.517 123.093 96.6744 122.79 97.0482H122.861L122.691 97.1191V97.2214C122.697 97.2324 122.705 97.2418 122.715 97.2489L122.691 97.2726V98.5712H127.327V94.7422C128.666 94.5147 129.965 94.0903 131.18 93.4829L133.423 96.5681L137.173 93.8449L134.922 90.7439C135.866 89.7716 136.661 88.6657 137.283 87.4619L140.912 88.6425L142.348 84.235L138.704 83.0544C138.797 82.4184 138.845 81.7767 138.85 81.134ZM134.651 83.6644C134.824 83.3929 134.71 83.6014 134.966 83.4047L134.651 83.6644Z" fill="black"/>
<path opacity="0.2" d="M111.094 81.1339C111.093 81.8228 111.145 82.5108 111.248 83.192L107.615 84.3726L108.729 87.7963C109.06 87.4958 109.341 87.1453 109.563 86.7574L108.957 87.1155C109.237 86.7889 109.89 86.3953 109.681 86.2419C109.394 86.6354 109.429 86.3835 109.225 86.5291V86.5646C109.174 86.6 109.02 86.7062 109.079 86.6C109.485 86.3665 109.873 86.1034 110.24 85.8129C110.071 85.8995 110.283 85.5729 110.291 85.5138C110.606 85.2581 110.374 85.5886 110.409 85.6634C110.567 85.5178 110.913 85.3761 110.945 85.1557C111.074 84.8645 110.594 85.3328 110.457 85.3289L111.409 84.6245H111.362C111.489 84.5709 111.598 84.4822 111.677 84.3687C111.677 84.2231 111.488 84.4041 111.373 84.5497C111.724 84.0066 112.365 83.9791 112.554 83.4045L112.405 83.499C112.464 83.4242 112.511 83.3927 112.558 83.3888L112.861 83.196C112.861 83.1606 112.861 83.0858 112.83 83.1212L113.129 82.9441C113.648 82.5506 113.129 82.6844 113.239 82.4994L113.215 82.523C113.333 82.3617 113.38 82.2004 113.266 82.283L113.829 81.8895C113.766 81.8895 113.719 81.8895 113.703 81.8501L113.829 81.8895C114.132 81.8186 114.86 81.1418 115.061 81.3621C115.175 81.2165 115.234 81.0788 115.147 81.1024L115.124 81.126C115.067 81.187 115.004 81.2412 114.935 81.2874L115.124 81.126C115.124 81.126 115.124 81.126 115.143 81.1024C115.513 80.764 114.9 81.0276 115.502 80.4846C115.462 80.4452 115.407 80.52 115.305 80.5908C115.45 80.4374 115.525 80.3901 115.572 80.3862C115.557 80.3699 115.546 80.3506 115.539 80.3295C115.533 80.3084 115.53 80.2862 115.533 80.2642C115.616 80.339 115.836 80.0832 115.95 79.9376L115.616 80.0084C115.823 79.9326 116.003 79.7953 116.131 79.6149L115.891 79.6818C116.092 79.5126 116.147 79.5401 116.198 79.5559C116.536 77.6811 117.465 75.9637 118.85 74.6551C120.234 73.3465 122.001 72.5154 123.892 72.2835C123.985 72.2089 124.048 72.1025 124.069 71.9844C124.151 72.0198 124.069 72.1418 123.947 72.2795C124.025 72.2795 124.104 72.2717 124.183 72.2559H124.124C124.679 71.9332 124.25 72.0356 124.769 71.6027C124.769 71.6381 124.749 71.7522 124.86 71.642C125.253 71.2485 124.785 71.4925 125.009 71.2013C125.698 70.9179 125.108 70.8353 125.824 70.3316H125.733C126.296 69.9381 126.729 69.151 127.217 68.5922C127.217 68.663 126.792 69.0211 126.965 69.0998L127.622 68.4899C127.622 68.419 127.902 68.1278 127.658 68.2341C127.571 68.3057 127.497 68.3908 127.437 68.4859L127.461 68.3364C128.134 67.8012 127.614 68.5647 127.736 68.6748C128.016 68.3128 128.248 68.3167 128.464 68.1003C128.464 67.876 127.913 68.3876 128.071 67.9822C128.142 67.8691 128.231 67.7681 128.334 67.6831C127.972 67.5966 127.61 67.5179 127.24 67.4549V63.6377H122.613V67.4667C121.273 67.6942 119.975 68.1185 118.76 68.726L116.517 65.6368L112.767 68.3639L115.029 71.4413C114.087 72.4144 113.291 73.5201 112.668 74.7233L109.04 73.5428L107.604 77.9503L111.248 79.1308C111.148 79.7939 111.097 80.4634 111.094 81.1339ZM108.831 87.0368L108.505 87.0683C108.733 86.8833 108.863 86.9856 108.812 87.0329L108.831 87.0368ZM109.721 85.9467L109.52 86.053L110.043 85.624L109.721 85.9467ZM110.984 84.8291V84.7543L111.346 84.4671L110.984 84.8291Z" fill="black"/>
<path opacity="0.2" d="M131.786 88.0795C131.707 88.0284 131.558 88.2291 131.538 88.0795L131.597 87.989C131.51 88.1228 131.377 87.8985 131.302 88.1464L131.392 88.0362C131.31 88.2015 131.672 88.0087 131.526 88.2369C131.467 88.3393 131.731 88.1976 131.786 88.0795Z" fill="black"/>
<path opacity="0.2" d="M136.158 82.559H136.193C136.194 82.5218 136.204 82.4853 136.221 82.4521C136.181 82.468 136.146 82.4878 136.158 82.559Z" fill="black"/>
<path opacity="0.2" d="M137.401 81.5902L137.5 81.539C137.551 81.3895 137.382 81.4525 137.287 81.539C137.326 81.543 137.33 81.5981 137.401 81.5902Z" fill="black"/>
<path opacity="0.2" d="M135.768 84.1445C135.929 84.0304 136.059 84.1996 136.134 83.9792C136.008 84.0776 135.886 83.8809 135.768 84.1445Z" fill="black"/>
<path opacity="0.2" d="M135.949 82.3105C136.036 82.3105 136.244 82.2082 136.299 82.3105C136.41 82.1295 136.524 81.9445 136.256 81.9878L136.138 82.1452C136.201 82.0783 136.205 82.1098 136.24 82.1177C136.189 82.2633 136.048 82.2633 135.949 82.3105Z" fill="black"/>
<path opacity="0.2" d="M136.312 82.4134C136.318 82.3978 136.322 82.3809 136.322 82.3639C136.322 82.3469 136.318 82.3301 136.312 82.3145L136.232 82.4609C136.28 82.453 136.3 82.449 136.312 82.4134Z" fill="black"/>
<path opacity="0.2" d="M131.558 88.4456C131.322 88.4023 131.416 88.5912 131.243 88.6502C131.353 88.6345 131.558 88.6778 131.558 88.4456Z" fill="black"/>
<path opacity="0.2" d="M133.525 65.7668C133.522 65.7538 133.522 65.7405 133.525 65.7275L133.45 65.6724C133.257 65.8258 132.997 65.9518 133.056 66.1249L133.525 65.7668Z" fill="black"/>
<path opacity="0.2" d="M111.535 87.6231H111.567L112.165 87.084L111.535 87.6231Z" fill="black"/>
<path opacity="0.2" d="M111.095 88.0951L111.488 87.8079C111.226 87.8496 110.989 87.9904 110.827 88.2014L111.189 88.0833L111.327 88.0007L111.095 88.0951Z" fill="black"/>
<path opacity="0.2" d="M127.752 72.6613L127.815 72.681C127.897 72.6614 127.972 72.6194 128.032 72.5597C128.092 72.4999 128.134 72.4247 128.153 72.3425C127.898 72.3622 127.898 72.5236 127.752 72.6613Z" fill="black"/>
<path opacity="0.2" d="M128.602 71.7562C128.515 71.7207 128.24 72.0434 128.263 71.8624L128.377 71.7168C128.208 71.9372 128.106 71.6774 127.917 72.0395L128.078 71.8624C127.905 72.1143 128.472 71.7168 128.189 72.0828C128.074 72.2284 128.484 71.9411 128.602 71.7562Z" fill="black"/>
<path opacity="0.2" d="M113.609 86.6676C113.659 86.6225 113.701 86.5689 113.732 86.5093L113.609 86.6676Z" fill="black"/>
<path opacity="0.2" d="M113.755 86.2654C113.437 86.3376 113.136 86.4713 112.869 86.6589L112.889 86.8439C113.003 86.6983 112.869 86.6589 113.172 86.4779C113.2 86.592 113.455 86.6668 113.755 86.2654Z" fill="black"/>
<path opacity="0.2" d="M133.355 65.5815L133.222 65.7665C133.288 65.7228 133.353 65.6755 133.415 65.6248L133.355 65.5815Z" fill="black"/>
<path opacity="0.2" d="M113.73 86.5095L114.124 86.0137C113.727 86.0963 113.849 86.2852 113.73 86.5095Z" fill="black"/>
<path opacity="0.2" d="M130.747 68.5173C130.688 68.5528 130.641 68.5724 130.617 68.5488V68.7731C130.681 68.6913 130.76 68.6219 130.849 68.5685L130.747 68.5173Z" fill="black"/>
<path opacity="0.2" d="M129.637 69.6388C129.637 69.5287 129.917 69.2768 130.137 69.021C129.905 69.0171 129.547 69.5995 129.637 69.6388Z" fill="black"/>
<path opacity="0.2" d="M111.716 87.6309L111.567 87.623L111.527 87.6624L111.716 87.6309Z" fill="black"/>
</svg>
