<svg width="329" height="333" viewBox="0 0 329 333" fill="none" xmlns="http://www.w3.org/2000/svg">
<path d="M271.961 255.867C268.914 215.243 265.989 174.622 262.785 134.017C262.451 124.084 261.193 114.211 259.027 104.523C256.415 94.7236 253.309 92.1967 242.984 91.539C237.71 91.2261 232.386 91.2033 226.653 91.0106C224.002 44.7881 174.676 13.4378 132.111 28.1003C102.845 38.296 89.8945 61.4871 81.7969 88.7024C80.9348 91.8105 80.1749 93.6715 76.7271 93.6934C69.8237 93.7655 63.5127 96.4231 56.9391 98.161C48.9706 100.316 45.9144 105.844 44.9976 112.882C43.892 122.546 43.7198 132.285 44.4833 141.966C45.6514 160.484 46.6777 178.964 48.1293 197.557C49.8999 220.271 51.0122 243.053 54.4867 265.553C56.3376 277.547 62.1676 282.772 74.591 283.443C97.1668 284.846 119.543 281.038 141.999 279.8C166.556 278.454 191.054 275.454 215.614 273.654C231.167 272.488 246.774 271.124 262.395 268.611C270.707 267.306 272.588 264.257 271.961 255.867ZM114.031 92.6189C117.591 68.8066 137.456 49.1269 157.748 49.6488C181.958 50.2132 196.898 62.2354 200.12 91.4657L114.031 92.6189Z" fill="#1D1D1D"/>
<path d="M194.314 100.552C156.99 99.717 119.733 101.937 82.4529 101.6C74.6117 101.515 66.7514 102.488 58.8934 102.793C52.7534 102.949 50.6255 106.664 50.2824 111.857C49.7612 117.983 49.654 124.133 49.9616 130.267C51.3254 153.043 52.8537 175.813 54.5465 198.576C56.2466 220.47 57.0009 242.476 60.5483 264.194C62.1472 274.035 65.5624 276.889 75.5127 278.052C81.8849 278.392 88.2794 278.175 94.6228 277.405C110.335 276.368 126.022 275.203 141.709 274.038C158.455 272.79 175.205 271.494 191.959 270.147C206.61 268.979 221.241 267.776 235.699 266.314C239.365 265.955 242.874 264.733 242.564 259.7C241.338 241.152 240.67 222.57 238.943 204.07C236.969 182.285 234.37 160.333 231.838 138.582C231.187 128.891 230.049 119.242 228.426 109.672C227.225 104.219 224.678 101.202 218.57 101.245C210.483 101.277 202.387 100.79 194.314 100.552Z" fill="#EFDB50"/>
<path d="M236.967 108.088C242.845 159.983 246.036 211.735 249.548 263.421C253.068 263.299 256.582 262.995 260.074 262.512C263.499 261.853 266.654 260.639 266.272 256C265.023 237.521 264.378 219.051 262.667 200.599C260.702 178.904 258.117 157.043 255.589 135.409C254.453 125.61 254.458 115.63 251.996 106.021C251.205 102.967 250.498 99.3907 246.776 98.8206C241.38 97.5271 235.759 97.4085 230.294 98.4729L232.719 101.207C233.418 101.968 234.132 102.673 234.777 103.299C241.411 101.229 241.411 101.229 245.477 101.982C244.851 107.198 239.642 105.868 236.967 108.088Z" fill="#E2CC2B"/>
<path d="M219.992 92.1847C219.993 90.4185 220.041 89.3652 219.959 88.3384C217.688 56.8519 181.113 27.6687 150.218 31.338C119.323 35.0073 89.0073 62.7075 86.8317 93.922C93.5943 93.4412 100.39 94.8269 106.91 92.576C109.456 79.7188 115.688 67.8404 124.851 58.3783C145.885 35.1771 195.657 40.2265 202.12 78.7393C202.861 83.2309 204.407 87.5719 205.491 91.8199L219.992 92.1847Z" fill="#F2E03B"/>
<path d="M130.214 195.298C125.794 193.003 122.259 189.334 120.141 184.845C118.024 180.356 117.44 175.291 118.478 170.416C119.754 165.916 122.299 161.863 125.811 158.739C129.323 155.616 133.654 153.552 138.29 152.794C143.188 152.602 148.034 153.758 152.293 156.133C156.553 158.509 160.061 162.013 162.431 166.259C166.911 176.087 163.466 186.318 151.868 197.011C154.663 203.815 157.488 210.839 160.284 217.856C161.491 220.546 162.153 223.451 162.231 226.404C162.345 227.145 162.283 227.903 162.05 228.619C161.817 229.334 161.419 229.987 160.889 230.526C160.359 231.064 159.711 231.473 158.996 231.72C158.282 231.967 157.52 232.044 156.773 231.947C145.729 231.76 134.686 231.573 123.587 231.038C118.522 230.778 116.498 227.663 117.931 222.713C120.699 213.051 124.835 203.82 130.214 195.298Z" fill="#1D1D1D"/>
<path d="M156.656 226.513C156.748 226.036 156.76 225.548 156.692 225.069C153.763 217.444 151.042 209.723 147.832 202.235C145.556 196.964 146.172 193.646 151.571 190.391C153.433 189.086 155.018 187.429 156.236 185.515C157.454 183.601 158.28 181.469 158.665 179.242C159.051 177.015 158.989 174.738 158.482 172.542C157.976 170.347 157.035 168.276 155.716 166.452C148.054 157.05 138.297 155.751 129.787 162.778C122.599 168.766 121.176 181.681 128.657 187.461C136.138 193.241 134.062 198.32 131.373 204.841C128.685 211.362 125.147 217.657 123.728 225.516L156.656 226.513Z" fill="#1D1D1D"/>
<path d="M209.358 210.636C212.485 211.864 212.491 214.805 212.712 217.41C212.769 217.836 212.717 218.27 212.56 218.671C212.403 219.073 212.146 219.43 211.814 219.708C211.481 219.985 211.084 220.175 210.659 220.26C210.235 220.344 209.796 220.321 209.385 220.191C205.823 219.544 206.616 216.573 206.619 214.149C206.612 212.42 206.953 210.753 209.358 210.636Z" fill="#1D1D1D"/>
<path d="M199.354 246.588C198.462 246.275 197.644 245.786 196.949 245.15C196.254 244.513 195.696 243.743 195.31 242.885C194.923 242.026 194.716 241.098 194.699 240.155C194.683 239.212 194.858 238.274 195.215 237.397C195.322 237.077 195.506 236.787 195.751 236.552C195.996 236.317 196.294 236.145 196.62 236.05C196.945 235.955 197.289 235.94 197.62 236.006C197.952 236.072 198.262 236.218 198.522 236.431C201.785 239.027 201.374 242.371 199.354 246.588Z" fill="#1D1D1D"/>
<path d="M204.392 233.589C205.224 233.819 205.997 234.219 206.662 234.763C207.327 235.308 207.869 235.985 208.254 236.752C208.64 237.519 208.859 238.359 208.9 239.217C208.94 240.076 208.799 240.935 208.487 241.74C208.396 241.992 208.245 242.219 208.049 242.403C207.852 242.587 207.615 242.722 207.357 242.798C207.099 242.874 206.827 242.888 206.563 242.84C206.299 242.791 206.051 242.681 205.839 242.519C202.68 240.313 203.207 237.424 204.392 233.589Z" fill="#1D1D1D"/>
</svg>
